<mxfile host="app.diagrams.net" modified="2023-09-21T12:27:27.195Z" agent="Mozilla/5.0 (Windows NT 10.0; Win64; x64) AppleWebKit/537.36 (KHTML, like Gecko) Chrome/115.0.0.0 Safari/537.36" etag="KHfNckQOulFxirHd3eKu" version="21.7.2" type="device">
  <diagram name="PÃ¡gina-1" id="QsP6UM8AbMpNLyxBezr-">
    <mxGraphModel dx="1961" dy="617" grid="1" gridSize="10" guides="1" tooltips="1" connect="1" arrows="1" fold="1" page="1" pageScale="1" pageWidth="827" pageHeight="1169" math="0" shadow="0">
      <root>
        <mxCell id="0" />
        <mxCell id="1" parent="0" />
        <mxCell id="3I1n53TY_OWZ9Fxeo7li-98" style="edgeStyle=orthogonalEdgeStyle;rounded=0;orthogonalLoop=1;jettySize=auto;html=1;exitX=0;exitY=0;exitDx=0;exitDy=0;entryX=0;entryY=1;entryDx=0;entryDy=0;" parent="1" source="3I1n53TY_OWZ9Fxeo7li-81" target="3I1n53TY_OWZ9Fxeo7li-78" edge="1">
          <mxGeometry relative="1" as="geometry" />
        </mxCell>
        <mxCell id="3I1n53TY_OWZ9Fxeo7li-99" style="edgeStyle=orthogonalEdgeStyle;rounded=0;orthogonalLoop=1;jettySize=auto;html=1;exitX=1;exitY=0.5;exitDx=0;exitDy=0;entryX=0;entryY=0.5;entryDx=0;entryDy=0;entryPerimeter=0;" parent="1" source="3I1n53TY_OWZ9Fxeo7li-81" target="3I1n53TY_OWZ9Fxeo7li-94" edge="1">
          <mxGeometry relative="1" as="geometry" />
        </mxCell>
        <mxCell id="3I1n53TY_OWZ9Fxeo7li-81" value="" style="rounded=1;whiteSpace=wrap;html=1;fillColor=#dae8fc;strokeColor=#6c8ebf;" parent="1" vertex="1">
          <mxGeometry x="3590" y="620" width="280" height="140" as="geometry" />
        </mxCell>
        <mxCell id="3I1n53TY_OWZ9Fxeo7li-46" style="edgeStyle=orthogonalEdgeStyle;rounded=0;orthogonalLoop=1;jettySize=auto;html=1;exitX=1;exitY=0;exitDx=0;exitDy=0;entryX=0;entryY=0;entryDx=0;entryDy=0;" parent="1" source="3I1n53TY_OWZ9Fxeo7li-12" target="3I1n53TY_OWZ9Fxeo7li-39" edge="1">
          <mxGeometry relative="1" as="geometry" />
        </mxCell>
        <mxCell id="3I1n53TY_OWZ9Fxeo7li-12" value="" style="rounded=1;whiteSpace=wrap;html=1;fillColor=#fff2cc;strokeColor=#d6b656;" parent="1" vertex="1">
          <mxGeometry x="-20" y="500" width="280" height="140" as="geometry" />
        </mxCell>
        <mxCell id="3I1n53TY_OWZ9Fxeo7li-7" value="" style="shape=image;verticalLabelPosition=bottom;labelBackgroundColor=default;verticalAlign=top;aspect=fixed;imageAspect=0;image=data:image/png,iVBORw0KGgoAAAANSUhEUgAAAEEAAABACAMAAAByderSAAAAAXNSR0IArs4c6QAAAARnQU1BAACxjwv8YQUAAAAzUExURQAAAAAAAAAAAAAAAAAAAAAAAAAAAAAAAAAAAAAAAAAAAAAAAAAAAAAAAAAAAAAAAAAAAKMFRskAAAAQdFJOUwAQIDBAUGBwgI+fr7/P3+8jGoKKAAAACXBIWXMAABcRAAAXEQHKJvM/AAAB2klEQVRYR+1X267cIAwMwWBz9/9/be0sp1q1CVChPqy087ByuEy4eOLZ44uPgDGnBQB7mt6wDgMYSmv8hpYiwSITUGGuKaB3YK3RhTjnkXKV5gB91DOgcAlPL3NUufj+cA+TWrI9voeNXHp4i1jmq7Q19+gGprkejeD47NHfODn1aITIzxs9mafbgMRDBiyc6XmA1X4/ZIADYpP0IffHKGMdpiI99rATBgGgZo/kYS05xZxL1fxsta9ugeHC6TxRiDGlGAIh2N9ZtsrwjI9nMJqNOwymaUJvMbAO2NrFqXPHDNijEXDIMKcw2IYMkSs9q1/nlzZWN9jAnIO7YTGnk29wi3Z+ko6yyKqmGInkg+0RQ4i5iGRFWqKOtbsARzKpVq0ZTTUq1eJHW1u3eeHLYHLeVJbkrJSkrV0gTfNhXJhfcEOG+tz5A1uHDI3DSFhymEFqx/AcsErZezgNI/amNYTZSaoCOScSEwTqwS4/JuUnirYue7NyF0bGqz7f0EoK/jXzH25T3+10KWLIepNiKx8ufDyDJ/nZYbD7ypqq2yyewyDx65KfrD24A6z4ybHxtWnuJ5+7X4Cof0dGfnIBMvbGT0odvIreMsRPIpH6yRAQ/Zuf/OK/4Dh+ASFsGDaydMGOAAAAAElFTkSuQmCC;" parent="1" vertex="1">
          <mxGeometry x="10" y="553" width="65" height="64" as="geometry" />
        </mxCell>
        <mxCell id="3I1n53TY_OWZ9Fxeo7li-8" value="" style="shape=image;verticalLabelPosition=bottom;labelBackgroundColor=default;verticalAlign=top;aspect=fixed;imageAspect=0;image=data:image/png,iVBORw0KGgoAAAANSUhEUgAAADIAAAApCAYAAAB3LnrpAAAAAXNSR0IArs4c6QAAAARnQU1BAACxjwv8YQUAAAAJcEhZcwAAFxEAABcRAcom8z8AAAcsSURBVGhD7VgLUM1pFG/Z3dm1s1h2x6PujUqkkNZzE3axwtp2SYy3ZoxhrdGVPHq6D6Ii6aUSsbEeEZtRSOm+X91b6XVJy1qUR1uZrLXu2fNdX+aq/62UPGb9Zn5z6/8/53znfN93zvm+v9k7/F9RV1fHBoD36L9vJ3xTipclZF/d/lYH4pmg8fshKg+C00rt6KO3Czj7HyxJ0MQPDr0CsyPlieTZYeWtEQnZl782CLwNePCgoues6Nzz1oFqcNokfJx+qcKGPPfYJYt2DZPc0uv13QyCbzLSNDccp4arSqx8ZdBngwTmxchTyHNcoY4u/OwSW14+bEop9DYIv6mIytBNHx+iuM9eJwLW6nQYxpPAUdk1F/IuPqt8vBNPBr28MmHsFlHlG7sq3ocKlg/jip+w1mZDX046sNcJwX2nVERfm7njtrImq4TvbAIU4Bmv3EFfvTlYti8vdDBXAaw1mdB3DQbByQAnvgKSpdfnkPc4+53H8HNuP32fASzOORgpkDwWllSMMRh43UAHzT2ilMf7B2IQnLMGJwkt1l4Etx2SYswLNpELTivxGMJXgSWuRr1Mn41SmBkhOW0w9DohL6u0nRObW0YS2hJX4JmD+PfAQCkE/1a6CAP9FIP50D1CdpK9XvRMhpDtlQGOPAXwUgsnUpOvHgdE11wmhChumePME8eNHTRfcwGmhIiuk2QmvFL5d79R3IsPLXA7GcsRsnxy4NutYg3pOdT0qwM6Zz91u+yeuY/QkNTGjpFE7h8gA/6pUl+U+xgd7LQ1rZTbz08CfYzk6mnplQ4OPDX4HNJyqPlXh5X7c8Ns/OUGpxs6xvK+ADj75f/o9c4YiDWy1/TtEhkLV66hbD3NOZkwLlh8/2ZNzRd0iPbHuaJKW2eB+F8Lo8SuJwnMNkAOq3/R8nEluiK7CHV3Rw3yvfCIvabxtqon0bPGiVkSp4yiw7Q/FsQoT5HkZnKI5IAzL6emtvbRYAzic1yNzj8laYL6+csY5Y1JJmaUQPIkJfePIXSo9kPkucuuwwRKYGG1YXLG2k8Gy/dp9mAQVrW1tT3wt+eUUJHO0CAZ5BuSvV6Mh0tZNsktOuTLBzrVwTVEpCbdmskJC6+z4CwQ6fN+r3JCR7qRIJLEVycPCRQZmiOTTkOyMPGdNqsgPF03kw778uF7uGC5/Sblcw3NmJY4m4t2K45jAJ/V6fWW+NvJM0612ypAie+ZdZhIGumkrSLSSDvSoV8e0GjXb4IlFRbYH5gGJ1ttOE8MB8XlQ6m8oSeQRjeCL3pUfyxpCUniDwhSACe5Hcrx0gR1qC0e8pjKLSHZbnOj5UIq/hz8jubPd+TJDWcrJl0mWmDgYwXCmoq/HlpTM23HcfVNuxE8nFUTjpBjBjkcxmaVu1KVRvA/VhgxAM9ibMwBJhuNmQ7kLrM0QZVETbQds3dJz5gqt4TkiPFjhDQXt1OTHxUWxqmOkSZqKscakkycY0DO49OaP53R9vvUTOuw4+zlyY5cmcmqQ5xyxBNt+Nkrc6mKSWAlY3lEK4tYeOFqeKwxRSKLW1bepsQnypO3ifLZ63IYByHszbkAePwoR9lOVK1JyHR3LSaEyG80dVwxJjlRD/QXQ8iZ0hmtDsb/aOEqB+7z94fnB0mHQXw18FOLV1GVFmFPTunI0ZvFT8w55xntNqS5dxa4hojLcUU/oSZajmq9vvv4YPFdU+WWkFSWidskN3GmulK1FiPoROGCL7HxsbCJMtk2Jjkxk0vb8kT1i5fjxXHKnf2wkZkqt+S5XZAKVidr/anKC2PVAS3PDhtsS7o+yzsTRvOFVWW3a3tQ9eaRorjugM3tcVN1n6zGV3zhnerq6u5UrVWYF6P81cZf0Xwlw/ek4rlHSGOoavOYtUua0VS5JbTylYJXsnYvbquPqFqrQPTddsrVZDxTq19PNk7s0MAcfWTmZXuqbhork7Qz7PlaQ9mzXC9kZG8fMbgES6HwVq09OtK2+o4gOTZuizTfcm0WYwDGtNwghqlhovNUlRlosMPGIwWR30XlZ05D4WnbJYz8Pkp7fsORgmCUb9NXdaKPlcg8MuuGY9CJkphBgeJmtxgpx4O4Clh3KM+NmmmMF3WsqqqqxdWKlM7T+XeGCdJ081fs0/LdwmWHJ4dKipx5F+scA4UwwBd7VXN5QsnyuQjjNwt16G+bd4NJEId1FQ+tBSeLJuE2Xb84UXtwWphEMTIo68ZwrgjIBzxyFe6DW8QC+wO5UbLxZtjwK0xTJLLEhmecYm2bgym7D11SL9UMRIdneB28tGFOtDJxWphYhbP8aFyYBpy2FYLD1hKwFRSBVVAeWAWooa+f3HCDJE60lX39VTBhRx4IdXcnUZdah+v36uacLqnmcVOLo1Yn5+/1TFAnzY9V7lkYK49aEq8MX7Y3N2zFvtywn/drQtuL3ill4YnZTz+Ov8M7tCvMzP4DPg9G/NiqJiUAAAAASUVORK5CYII=;" parent="1" vertex="1">
          <mxGeometry x="17.5" y="520" width="50" height="41" as="geometry" />
        </mxCell>
        <mxCell id="3I1n53TY_OWZ9Fxeo7li-9" value="" style="shape=image;verticalLabelPosition=bottom;labelBackgroundColor=default;verticalAlign=top;aspect=fixed;imageAspect=0;image=data:image/png,iVBORw0KGgoAAAANSUhEUgAAAFgAAAAVCAMAAAD1jdm0AAAAAXNSR0IArs4c6QAAAARnQU1BAACxjwv8YQUAAABdUExURQAAAEDfn0DPr0rVqkjXr0bSrEXVqkTWrUjXq0fVqkbWrEbWq0XVrEfWq0bVrEbVq0bXrEbWrUfWrEfXrUbWrUbXrUfXrEbWrEbWrEbXrEbWrUbWrEbWrEbWrEbWrC8HAJQAAAAedFJOUwAIEBggKDA4QEhQWGhweICHj5efp7e/x8/X3+fv95WHJJIAAAAJcEhZcwAAFxEAABcRAcom8z8AAAB0SURBVEhL7dM5EoAgEERRBHFX3HAB9P7H1LI6MW+MfNGPp3rEjyUNHYpN271EspXOaiRZ0vleosnU6BskW76uOZKt9rNCPszJc0TZh5pchWS6l2ESNFPl3gcm0XYrkExyCC2SqglDjLeT25IhuWSsf/uaEBdVVAw33fy1rAAAAABJRU5ErkJggg==;" parent="1" vertex="1">
          <mxGeometry x="85" y="580" width="88" height="21" as="geometry" />
        </mxCell>
        <mxCell id="3I1n53TY_OWZ9Fxeo7li-10" value="" style="shape=image;verticalLabelPosition=bottom;labelBackgroundColor=default;verticalAlign=top;aspect=fixed;imageAspect=0;image=data:image/png,iVBORw0KGgoAAAANSUhEUgAAACoAAAAqCAMAAADyHTlpAAAAAXNSR0IArs4c6QAAAARnQU1BAACxjwv8YQUAAAAzUExURQAAAAAAAAAAAAAAAAAAAAAAAAAAAAAAAAAAAAAAAAAAAAAAAAAAAAAAAAAAAAAAAAAAAKMFRskAAAAQdFJOUwAQIDBAUGBwgI+fr7/P3+8jGoKKAAAACXBIWXMAABcRAAAXEQHKJvM/AAABEElEQVRIS+WT27KDIAxFCaBguNj//9qSwFSB6PB65qyZ0l1dRRNA/RPA2JbeAR9TiDEful14ZMseOLhz5+9HfPxNBsG1JLKHOmUlbi0IQL6bChIhv4cXHmmOj9SPJFats2npwoQWBkzup7App6eS9/sNwGi7kjrgbKEAwbckg1cb4tQR25Vt8IM1bXM9bnzvPXEfwrwsk6pspjHNFc2qwnIJUvtxQ1C5Dzx1j6CytqjSuuO8IUS1fOxCs0pzI41ztwQVWYI0urPq2qMhYb/RRhXwOktbPEOg8mqNVbUHDYjltPd/1YaWWZ/ksmr5WBhrzcMGZZfUar5CblEXTHadWzLJDbhmkjuc0hf0svnnUeoLij0Gel/xvfgAAAAASUVORK5CYII=;" parent="1" vertex="1">
          <mxGeometry x="103" y="511" width="42" height="42" as="geometry" />
        </mxCell>
        <mxCell id="3I1n53TY_OWZ9Fxeo7li-11" value="" style="shape=image;verticalLabelPosition=bottom;labelBackgroundColor=default;verticalAlign=top;aspect=fixed;imageAspect=0;image=data:image/png,iVBORw0KGgoAAAANSUhEUgAAAD0AAAA8CAMAAADi4EJ+AAAAAXNSR0IArs4c6QAAAARnQU1BAACxjwv8YQUAAAAzUExURQAAAAAAAAAAAAAAAAAAAAAAAAAAAAAAAAAAAAAAAAAAAAAAAAAAAAAAAAAAAAAAAAAAAKMFRskAAAAQdFJOUwAQIDBAUGBwgI+fr7/P3+8jGoKKAAAACXBIWXMAABcRAAAXEQHKJvM/AAAAr0lEQVRIS+3WwQ6DIBBFUVqpSsXK/39t1U6qEOY9mm7aZO4KwbOZsMBZXxaSUi8/wEL01dp4iLIoSlMLV7UfGriu3Y1zoJ1Pg3xpIc051JRjzTjRKx9fi2pMY0415Fwjrurl8W5Rr42m+3NzkN0yTWdNWHfx6L7vZxF9GY8q14No0g/r89Tyuu34g6nlXbdjm1qRTa2eTa2WTQ1kUyv6Yz3LkxoVVS2PeZymrbacewJuBBm5f+PmQQAAAABJRU5ErkJggg==;" parent="1" vertex="1">
          <mxGeometry x="176" y="555.5" width="61" height="60" as="geometry" />
        </mxCell>
        <mxCell id="3I1n53TY_OWZ9Fxeo7li-19" value="Data Pipeline and Business Analysis" style="text;html=1;align=center;verticalAlign=middle;resizable=0;points=[];autosize=1;strokeColor=none;fillColor=none;" parent="1" vertex="1">
          <mxGeometry x="10" y="460" width="220" height="30" as="geometry" />
        </mxCell>
        <mxCell id="3I1n53TY_OWZ9Fxeo7li-20" value="BA" style="shape=umlActor;verticalLabelPosition=bottom;verticalAlign=top;html=1;outlineConnect=0;fillColor=#fff2cc;strokeColor=#d6b656;" parent="1" vertex="1">
          <mxGeometry x="340" y="541" width="30" height="60" as="geometry" />
        </mxCell>
        <mxCell id="3I1n53TY_OWZ9Fxeo7li-27" value="DSC" style="shape=umlActor;verticalLabelPosition=bottom;verticalAlign=top;html=1;outlineConnect=0;" parent="1" vertex="1">
          <mxGeometry x="35" y="920" width="30" height="60" as="geometry" />
        </mxCell>
        <mxCell id="3I1n53TY_OWZ9Fxeo7li-28" value="MLE" style="shape=umlActor;verticalLabelPosition=bottom;verticalAlign=top;html=1;outlineConnect=0;" parent="1" vertex="1">
          <mxGeometry x="130" y="660" width="30" height="60" as="geometry" />
        </mxCell>
        <mxCell id="3I1n53TY_OWZ9Fxeo7li-51" style="edgeStyle=orthogonalEdgeStyle;rounded=0;orthogonalLoop=1;jettySize=auto;html=1;exitX=1;exitY=0;exitDx=0;exitDy=0;entryX=0;entryY=0;entryDx=0;entryDy=0;" parent="1" source="3I1n53TY_OWZ9Fxeo7li-39" target="3I1n53TY_OWZ9Fxeo7li-47" edge="1">
          <mxGeometry relative="1" as="geometry" />
        </mxCell>
        <mxCell id="3I1n53TY_OWZ9Fxeo7li-63" style="edgeStyle=orthogonalEdgeStyle;rounded=0;orthogonalLoop=1;jettySize=auto;html=1;exitX=0.75;exitY=0;exitDx=0;exitDy=0;entryX=0;entryY=0.5;entryDx=0;entryDy=0;dashed=1;dashPattern=8 8;" parent="1" source="3I1n53TY_OWZ9Fxeo7li-39" target="3I1n53TY_OWZ9Fxeo7li-61" edge="1">
          <mxGeometry relative="1" as="geometry">
            <Array as="points">
              <mxPoint x="900" y="500" />
              <mxPoint x="900" y="202" />
            </Array>
          </mxGeometry>
        </mxCell>
        <mxCell id="3I1n53TY_OWZ9Fxeo7li-39" value="" style="rounded=1;whiteSpace=wrap;html=1;fillColor=#dae8fc;strokeColor=#6c8ebf;" parent="1" vertex="1">
          <mxGeometry x="640" y="500" width="280" height="140" as="geometry" />
        </mxCell>
        <mxCell id="3I1n53TY_OWZ9Fxeo7li-40" value="" style="shape=image;verticalLabelPosition=bottom;labelBackgroundColor=default;verticalAlign=top;aspect=fixed;imageAspect=0;image=data:image/png,iVBORw0KGgoAAAANSUhEUgAAAEsAAABLCAMAAAAPkIrYAAAAAXNSR0IArs4c6QAAAARnQU1BAACxjwv8YQUAAACTUExURQAAAEDVqkTVqkfZrkfWrUbWrUfUrUTXq0bWrkXWq0XWrEfWrUTXq0bVq0bVrUXVq0XXrETWqkbVrEXWq0bVrEXWrEbXrUXWrEXWrEbVrEbWrEXWrEfVrEbWrEbXrUbWq0bXrEfWq0fWq0bWrEbVq0XWrEbWrEbWq0bWrEfWrEbVrEbVrUXXq0bWrEbXrUXWq0bWrMz++HAAAAAvdFJOUwAMHi8yPkFSWGRrcHR0eXqBlqiusLm+v8ff3+Hj5OTl6err7e7v8PHy8vX19vb4fTv+VAAAAAlwSFlzAAAXEQAAFxEByibzPwAAAP5JREFUWEft18cSgjAQgGGwK4q9Y++d9386SbIEgZUQh4Oj+10Ss5P/ajAI+W+WbcFOsqXYKFnTdWAnDV2fDScpoa2bwxwyafX46lArjlp8TY1afE0t+1YuYIZacMiY/DCJaBXXE7ALt0IDFWgtr4I7jbReByp+a94oe9rx1stARbYK7FcVaQUDFWpRK+oXWt2RD38A6bRUDyC91qzDrDJpBQMMtagVRa0PW5W8pyWuDNg+Dy18gPFb9zEnriz4/sRbbwYYaG33wHvO9I+wP3stdHBJbJUk04AN836AEa1sfG/rwD9itWzqcDusCf8sWh54y4JPfj01uE3IXzKMJ2Mph/CEbp4MAAAAAElFTkSuQmCC;" parent="1" vertex="1">
          <mxGeometry x="742.5" y="526" width="75" height="75" as="geometry" />
        </mxCell>
        <mxCell id="3I1n53TY_OWZ9Fxeo7li-43" value="DSC" style="shape=umlActor;verticalLabelPosition=bottom;verticalAlign=top;html=1;outlineConnect=0;" parent="1" vertex="1">
          <mxGeometry x="980" y="540" width="30" height="60" as="geometry" />
        </mxCell>
        <mxCell id="3I1n53TY_OWZ9Fxeo7li-44" value="MLE" style="shape=umlActor;verticalLabelPosition=bottom;verticalAlign=top;html=1;outlineConnect=0;" parent="1" vertex="1">
          <mxGeometry x="765" y="660" width="30" height="60" as="geometry" />
        </mxCell>
        <mxCell id="3I1n53TY_OWZ9Fxeo7li-59" style="edgeStyle=orthogonalEdgeStyle;rounded=0;orthogonalLoop=1;jettySize=auto;html=1;exitX=1;exitY=0;exitDx=0;exitDy=0;entryX=0;entryY=0;entryDx=0;entryDy=0;" parent="1" source="3I1n53TY_OWZ9Fxeo7li-47" target="3I1n53TY_OWZ9Fxeo7li-54" edge="1">
          <mxGeometry relative="1" as="geometry" />
        </mxCell>
        <mxCell id="3I1n53TY_OWZ9Fxeo7li-47" value="" style="rounded=1;whiteSpace=wrap;html=1;fillColor=#dae8fc;strokeColor=#6c8ebf;" parent="1" vertex="1">
          <mxGeometry x="1290" y="501" width="280" height="140" as="geometry" />
        </mxCell>
        <mxCell id="3I1n53TY_OWZ9Fxeo7li-48" value="" style="shape=image;verticalLabelPosition=bottom;labelBackgroundColor=default;verticalAlign=top;aspect=fixed;imageAspect=0;image=data:image/png,iVBORw0KGgoAAAANSUhEUgAAAEIAAABBCAMAAABSHoJ0AAAAAXNSR0IArs4c6QAAAARnQU1BAACxjwv8YQUAAAAzUExURQAAAEDPr0jXp0XVqkTTq0bWrEXVqkfWq0bVq0bWrUfXrEbWrEXWrEbWrEbWrEbWrEbWrB4gB+kAAAAQdFJOUwAQIDBAUGBwgI+fr7/P3+8jGoKKAAAACXBIWXMAABcRAAAXEQHKJvM/AAACzElEQVRYR+1Wa4/jIAwM74cB+///2rOBdhuS7UrlPpy0NxJtSBuwx8M4xy+HD2NsAPJx1DQnn6FxBOjn5CMYcjzsnH0ET5qHmrOPEOtxJB4bABiMbqBxMYTRz6E7m27OPoJjNmVsIDQem2yWwegGOptb8lbMpDC6ActMythAwMHoBjqbPDbwN9j0ndENGDLbbLJRCKMbyCxtGRv4b71P/DLrVW/U+5P1GpdqRSRGaxDtDe9vrdcmJCwpBm+t8yHmSlTTul9n8956VaYSzbKt41XjvJ743iwU4D1F4bzGG+t1bAL38Kdz/cZ6v18ivorZMj9Q7q3XEtvZDXRCoV/FWrlCCYsLqeFtFIUaUVrOn3aAiCJmQEilEQaJSLU7+3aEoCNH2UCqyjVNqUiNg2pMp6Gh6JmsuWzGKJCENeVjqV1ZiBI479nFHCj5V66iaO8sGbYQ98rauFTyVBezE5lRzfG5uXYRT5SwatWlJIbZMc/OFxpHKJtDdONR1Vl6QBQ70/0CVA3tKebRAXlz4JUJUrCcff9lQAy5rjbCRp/bU8yvns2FlYDwVeeVWV/NTHP66B+d79IBLYX4eqtwBEuDMq0a99X5LhahF+4Sc3b+k8fay/JYGFaLUEsfGM36i09bMY/CzvcIhcuZv9Kf0Rwiww7FR+ER5WQz4otqBi6LZkq518gEdr5+FAQSnny1pVxW37RVz/wDAJehhC9SzCDIL9xZhLMqJlzIfFROZ2F2PlX573Pd/jMQcm59/iPGe0RgplLPXQFJSliJczxH1lEu2Y2ENT+dhiUl5BTksHN01yJJ1KsLhH4HqnJ8vjglR0HqFlBelvJdJuVcazY92YjXUVjkUmPu9lFyINlxEWxHIszBaqWUtqFgf5cxSGxDlgpAa8pQlVkggGXDB4yY3wCW2NURMsMfiT/Fp2RqDys38+0SAm2ds+YuyH8Xx/EHzu8etJJ9jYAAAAAASUVORK5CYII=;" parent="1" vertex="1">
          <mxGeometry x="1397" y="531" width="66" height="65" as="geometry" />
        </mxCell>
        <mxCell id="3I1n53TY_OWZ9Fxeo7li-49" value="Data Exploration Analysis" style="text;html=1;align=center;verticalAlign=middle;resizable=0;points=[];autosize=1;strokeColor=none;fillColor=none;" parent="1" vertex="1">
          <mxGeometry x="700" y="460" width="160" height="30" as="geometry" />
        </mxCell>
        <mxCell id="3I1n53TY_OWZ9Fxeo7li-50" value="Data Wrangling" style="text;html=1;align=center;verticalAlign=middle;resizable=0;points=[];autosize=1;strokeColor=none;fillColor=none;" parent="1" vertex="1">
          <mxGeometry x="1375" y="460" width="110" height="30" as="geometry" />
        </mxCell>
        <mxCell id="3I1n53TY_OWZ9Fxeo7li-52" value="DSC" style="shape=umlActor;verticalLabelPosition=bottom;verticalAlign=top;html=1;outlineConnect=0;" parent="1" vertex="1">
          <mxGeometry x="1640" y="540" width="30" height="60" as="geometry" />
        </mxCell>
        <mxCell id="3I1n53TY_OWZ9Fxeo7li-53" value="MLE" style="shape=umlActor;verticalLabelPosition=bottom;verticalAlign=top;html=1;outlineConnect=0;" parent="1" vertex="1">
          <mxGeometry x="1415" y="660" width="30" height="60" as="geometry" />
        </mxCell>
        <mxCell id="3I1n53TY_OWZ9Fxeo7li-65" style="edgeStyle=orthogonalEdgeStyle;rounded=0;orthogonalLoop=1;jettySize=auto;html=1;exitX=1;exitY=1;exitDx=0;exitDy=0;endArrow=none;endFill=0;dashed=1;dashPattern=8 8;entryX=0.899;entryY=1.04;entryDx=0;entryDy=0;entryPerimeter=0;" parent="1" source="3I1n53TY_OWZ9Fxeo7li-54" target="3I1n53TY_OWZ9Fxeo7li-39" edge="1">
          <mxGeometry relative="1" as="geometry">
            <mxPoint x="910" y="640" as="targetPoint" />
            <Array as="points">
              <mxPoint x="2120" y="860" />
              <mxPoint x="892" y="860" />
            </Array>
          </mxGeometry>
        </mxCell>
        <mxCell id="3I1n53TY_OWZ9Fxeo7li-72" style="edgeStyle=orthogonalEdgeStyle;rounded=0;orthogonalLoop=1;jettySize=auto;html=1;exitX=1;exitY=0;exitDx=0;exitDy=0;entryX=0;entryY=0;entryDx=0;entryDy=0;" parent="1" source="3I1n53TY_OWZ9Fxeo7li-54" target="3I1n53TY_OWZ9Fxeo7li-66" edge="1">
          <mxGeometry relative="1" as="geometry" />
        </mxCell>
        <mxCell id="3I1n53TY_OWZ9Fxeo7li-54" value="" style="rounded=1;whiteSpace=wrap;html=1;fillColor=#dae8fc;strokeColor=#6c8ebf;" parent="1" vertex="1">
          <mxGeometry x="1840" y="500" width="280" height="140" as="geometry" />
        </mxCell>
        <mxCell id="3I1n53TY_OWZ9Fxeo7li-55" value="Data Versioning" style="text;html=1;align=center;verticalAlign=middle;resizable=0;points=[];autosize=1;strokeColor=none;fillColor=none;" parent="1" vertex="1">
          <mxGeometry x="1925" y="460" width="110" height="30" as="geometry" />
        </mxCell>
        <mxCell id="3I1n53TY_OWZ9Fxeo7li-56" value="" style="shape=image;verticalLabelPosition=bottom;labelBackgroundColor=default;verticalAlign=top;aspect=fixed;imageAspect=0;image=data:image/png,iVBORw0KGgoAAAANSUhEUgAAAD0AAAA8CAMAAADi4EJ+AAAAAXNSR0IArs4c6QAAAARnQU1BAACxjwv8YQUAAAAzUExURQAAAAAAAAAAAAAAAAAAAAAAAAAAAAAAAAAAAAAAAAAAAAAAAAAAAAAAAAAAAAAAAAAAAKMFRskAAAAQdFJOUwAQIDBAUGBwgI+fr7/P3+8jGoKKAAAACXBIWXMAABcRAAAXEQHKJvM/AAAAr0lEQVRIS+3WwQ6DIBBFUVqpSsXK/39t1U6qEOY9mm7aZO4KwbOZsMBZXxaSUi8/wEL01dp4iLIoSlMLV7UfGriu3Y1zoJ1Pg3xpIc051JRjzTjRKx9fi2pMY0415Fwjrurl8W5Rr42m+3NzkN0yTWdNWHfx6L7vZxF9GY8q14No0g/r89Tyuu34g6nlXbdjm1qRTa2eTa2WTQ1kUyv6Yz3LkxoVVS2PeZymrbacewJuBBm5f+PmQQAAAABJRU5ErkJggg==;" parent="1" vertex="1">
          <mxGeometry x="1949.5" y="540" width="61" height="60" as="geometry" />
        </mxCell>
        <mxCell id="3I1n53TY_OWZ9Fxeo7li-57" value="MLE" style="shape=umlActor;verticalLabelPosition=bottom;verticalAlign=top;html=1;outlineConnect=0;" parent="1" vertex="1">
          <mxGeometry x="2190" y="540" width="30" height="60" as="geometry" />
        </mxCell>
        <mxCell id="3I1n53TY_OWZ9Fxeo7li-58" value="DSC" style="shape=umlActor;verticalLabelPosition=bottom;verticalAlign=top;html=1;outlineConnect=0;" parent="1" vertex="1">
          <mxGeometry x="2240" y="540" width="30" height="60" as="geometry" />
        </mxCell>
        <mxCell id="3I1n53TY_OWZ9Fxeo7li-64" style="edgeStyle=orthogonalEdgeStyle;rounded=0;orthogonalLoop=1;jettySize=auto;html=1;exitX=1;exitY=0.5;exitDx=0;exitDy=0;dashed=1;dashPattern=8 8;endArrow=none;endFill=0;" parent="1" source="3I1n53TY_OWZ9Fxeo7li-61" edge="1">
          <mxGeometry relative="1" as="geometry">
            <mxPoint x="2110" y="500" as="targetPoint" />
          </mxGeometry>
        </mxCell>
        <mxCell id="3I1n53TY_OWZ9Fxeo7li-61" value="" style="shape=image;verticalLabelPosition=bottom;labelBackgroundColor=default;verticalAlign=top;aspect=fixed;imageAspect=0;image=data:image/png,iVBORw0KGgoAAAANSUhEUgAAAEEAAABACAMAAAByderSAAAAAXNSR0IArs4c6QAAAARnQU1BAACxjwv8YQUAAAAzUExURQAAAAAAAAAAAAAAAAAAAAAAAAAAAAAAAAAAAAAAAAAAAAAAAAAAAAAAAAAAAAAAAAAAAKMFRskAAAAQdFJOUwAQIDBAUGBwgI+fr7/P3+8jGoKKAAAACXBIWXMAABcRAAAXEQHKJvM/AAAB2klEQVRYR+1X267cIAwMwWBz9/9/be0sp1q1CVChPqy087ByuEy4eOLZ44uPgDGnBQB7mt6wDgMYSmv8hpYiwSITUGGuKaB3YK3RhTjnkXKV5gB91DOgcAlPL3NUufj+cA+TWrI9voeNXHp4i1jmq7Q19+gGprkejeD47NHfODn1aITIzxs9mafbgMRDBiyc6XmA1X4/ZIADYpP0IffHKGMdpiI99rATBgGgZo/kYS05xZxL1fxsta9ugeHC6TxRiDGlGAIh2N9ZtsrwjI9nMJqNOwymaUJvMbAO2NrFqXPHDNijEXDIMKcw2IYMkSs9q1/nlzZWN9jAnIO7YTGnk29wi3Z+ko6yyKqmGInkg+0RQ4i5iGRFWqKOtbsARzKpVq0ZTTUq1eJHW1u3eeHLYHLeVJbkrJSkrV0gTfNhXJhfcEOG+tz5A1uHDI3DSFhymEFqx/AcsErZezgNI/amNYTZSaoCOScSEwTqwS4/JuUnirYue7NyF0bGqz7f0EoK/jXzH25T3+10KWLIepNiKx8ufDyDJ/nZYbD7ypqq2yyewyDx65KfrD24A6z4ybHxtWnuJ5+7X4Cof0dGfnIBMvbGT0odvIreMsRPIpH6yRAQ/Zuf/OK/4Dh+ASFsGDaydMGOAAAAAElFTkSuQmCC;" parent="1" vertex="1">
          <mxGeometry x="1500" y="170" width="65" height="64" as="geometry" />
        </mxCell>
        <mxCell id="3I1n53TY_OWZ9Fxeo7li-62" value="Feature Storage" style="text;html=1;align=center;verticalAlign=middle;resizable=0;points=[];autosize=1;strokeColor=none;fillColor=none;" parent="1" vertex="1">
          <mxGeometry x="1477.5" y="140" width="110" height="30" as="geometry" />
        </mxCell>
        <mxCell id="3I1n53TY_OWZ9Fxeo7li-111" style="edgeStyle=orthogonalEdgeStyle;rounded=0;orthogonalLoop=1;jettySize=auto;html=1;exitX=1;exitY=0;exitDx=0;exitDy=0;entryX=0;entryY=0;entryDx=0;entryDy=0;" parent="1" source="3I1n53TY_OWZ9Fxeo7li-66" target="3I1n53TY_OWZ9Fxeo7li-77" edge="1">
          <mxGeometry relative="1" as="geometry" />
        </mxCell>
        <mxCell id="3I1n53TY_OWZ9Fxeo7li-66" value="" style="rounded=1;whiteSpace=wrap;html=1;fillColor=#dae8fc;strokeColor=#6c8ebf;" parent="1" vertex="1">
          <mxGeometry x="2530" y="501" width="280" height="140" as="geometry" />
        </mxCell>
        <mxCell id="3I1n53TY_OWZ9Fxeo7li-67" value="" style="shape=image;verticalLabelPosition=bottom;labelBackgroundColor=default;verticalAlign=top;aspect=fixed;imageAspect=0;image=data:image/png,iVBORw0KGgoAAAANSUhEUgAAADYAAAA2CAMAAAC7m5rvAAAAAXNSR0IArs4c6QAAAARnQU1BAACxjwv8YQUAAAAzUExURQAAAAAAAAAAAAAAAAAAAAAAAAAAAAAAAAAAAAAAAAAAAAAAAAAAAAAAAAAAAAAAAAAAAKMFRskAAAAQdFJOUwAQIDBAUGBwgI+fr7/P3+8jGoKKAAAACXBIWXMAABcRAAAXEQHKJvM/AAABXElEQVRIS+WW3ZLEEBBGCUIQvP/TruYzqfmJpKt292L3XEwnMqfSmkD8P7R1HYWGW9gUfSOUFU13yI8/6yJxdY0q9Ue6ja7zZZp6Az7XOx+DryF7NLqTdE3uz/e0uXq7G51qcFuOvf3I/ImIZhtaMCWRLUSwLYh17/GFpHuEJsTSw9Day99508APayU/c08T6gX08Uo74de0Ni/Z2prIm2kSZSDG3F+ToTDTFIpO1C9giXJYrCR9srB4ffMZFrMkj8+UpxHtCVtzTZhpiz2g9GgQXGqzcqqFA5r5WQ+LlaQuHhavb3pYPO2Arcm2hHE1GerMnGsKVSRo3ayDAGuqSYwZUSejzHZYrCRV3mHx+qYCLHZJAFtTl5X8hEptg5xpGusIUQeZBhrW/G1YtRpV2+OwWEnKvcDi9U1iv2FqB9+rjS3/DPN5yzelH5hOCCcHDKFwPDvh8jj0JxDiCwMKErYcPNadAAAAAElFTkSuQmCC;" parent="1" vertex="1">
          <mxGeometry x="2643" y="543" width="54" height="54" as="geometry" />
        </mxCell>
        <mxCell id="3I1n53TY_OWZ9Fxeo7li-68" value="SeleÃ§Ã£o de recursos" style="text;html=1;align=center;verticalAlign=middle;resizable=0;points=[];autosize=1;strokeColor=none;fillColor=none;" parent="1" vertex="1">
          <mxGeometry x="2605" y="460" width="130" height="30" as="geometry" />
        </mxCell>
        <mxCell id="3I1n53TY_OWZ9Fxeo7li-69" value="MLE" style="shape=umlActor;verticalLabelPosition=bottom;verticalAlign=top;html=1;outlineConnect=0;" parent="1" vertex="1">
          <mxGeometry x="2870" y="540" width="30" height="60" as="geometry" />
        </mxCell>
        <mxCell id="3I1n53TY_OWZ9Fxeo7li-70" value="DSC" style="shape=umlActor;verticalLabelPosition=bottom;verticalAlign=top;html=1;outlineConnect=0;" parent="1" vertex="1">
          <mxGeometry x="2920" y="540" width="30" height="60" as="geometry" />
        </mxCell>
        <mxCell id="3I1n53TY_OWZ9Fxeo7li-73" value="" style="aspect=fixed;html=1;points=[];align=center;image;fontSize=12;image=img/lib/azure2/analytics/Azure_Databricks.svg;" parent="1" vertex="1">
          <mxGeometry x="1300" y="596" width="36.94" height="40" as="geometry" />
        </mxCell>
        <mxCell id="3I1n53TY_OWZ9Fxeo7li-74" value="" style="aspect=fixed;html=1;points=[];align=center;image;fontSize=12;image=img/lib/azure2/analytics/Azure_Databricks.svg;" parent="1" vertex="1">
          <mxGeometry x="1850" y="596" width="36.94" height="40" as="geometry" />
        </mxCell>
        <mxCell id="3I1n53TY_OWZ9Fxeo7li-75" value="" style="sketch=0;aspect=fixed;html=1;points=[];align=center;image;fontSize=12;image=img/lib/mscae/Azure_Repos.svg;" parent="1" vertex="1">
          <mxGeometry x="1900" y="596" width="36" height="40" as="geometry" />
        </mxCell>
        <mxCell id="3I1n53TY_OWZ9Fxeo7li-76" value="" style="aspect=fixed;html=1;points=[];align=center;image;fontSize=12;image=img/lib/azure2/analytics/Azure_Databricks.svg;" parent="1" vertex="1">
          <mxGeometry x="2540" y="596" width="36.94" height="40" as="geometry" />
        </mxCell>
        <mxCell id="3I1n53TY_OWZ9Fxeo7li-95" style="edgeStyle=orthogonalEdgeStyle;rounded=0;orthogonalLoop=1;jettySize=auto;html=1;exitX=1;exitY=0;exitDx=0;exitDy=0;entryX=0;entryY=0;entryDx=0;entryDy=0;" parent="1" source="3I1n53TY_OWZ9Fxeo7li-77" target="3I1n53TY_OWZ9Fxeo7li-78" edge="1">
          <mxGeometry relative="1" as="geometry" />
        </mxCell>
        <mxCell id="3I1n53TY_OWZ9Fxeo7li-77" value="" style="rounded=1;whiteSpace=wrap;html=1;fillColor=#dae8fc;strokeColor=#6c8ebf;" parent="1" vertex="1">
          <mxGeometry x="3160" y="501" width="280" height="140" as="geometry" />
        </mxCell>
        <mxCell id="3I1n53TY_OWZ9Fxeo7li-96" style="edgeStyle=orthogonalEdgeStyle;rounded=0;orthogonalLoop=1;jettySize=auto;html=1;exitX=1;exitY=0.5;exitDx=0;exitDy=0;entryX=0;entryY=0.5;entryDx=0;entryDy=0;" parent="1" source="3I1n53TY_OWZ9Fxeo7li-78" target="3I1n53TY_OWZ9Fxeo7li-93" edge="1">
          <mxGeometry relative="1" as="geometry" />
        </mxCell>
        <mxCell id="3I1n53TY_OWZ9Fxeo7li-78" value="" style="rounded=1;whiteSpace=wrap;html=1;fillColor=#dae8fc;strokeColor=#6c8ebf;" parent="1" vertex="1">
          <mxGeometry x="3590" y="280" width="280" height="140" as="geometry" />
        </mxCell>
        <mxCell id="3I1n53TY_OWZ9Fxeo7li-79" value="" style="shape=image;verticalLabelPosition=bottom;labelBackgroundColor=default;verticalAlign=top;aspect=fixed;imageAspect=0;image=data:image/png,iVBORw0KGgoAAAANSUhEUgAAADYAAAA2CAMAAAC7m5rvAAAAAXNSR0IArs4c6QAAAARnQU1BAACxjwv8YQUAAABUUExURQAAAEDVqkLWrUfUrkfWrUXWrEXWrUbWq0XVq0bXrEbXrEbWrEfWrEbXrEfXrUbWrEbVrEfWrEfXrEXWrUbWrUbWrEbXrEXWrEbVrEbWq0bWrEbWrZO5h1cAAAAXdFJOUwAMHy8yb3Z8jJG+wc7Q0N/j6urr7vHx0rGC5gAAAAlwSFlzAAAXEQAAFxEByibzPwAAAKFJREFUSEvt0d0OgjAMhuGCgPypqBO1vf/7NNk+ki0zOnBn9jmABvZmWUYql90mZHgD8wfZdEo02eVLVuI6virtcs08mkU0i2gWyZK1+0Tt08/u9plsyVay2e26yiw/7PaICf5ago8+Q13sLDxg7AaWC0YfriMwCtcYqWYZMb5R+A7CDcaiYTlidBA4PQ7ihGfD2+kROFmyD8KsSoZAZUH0Ap7XZhvmSHsTAAAAAElFTkSuQmCC;" parent="1" vertex="1">
          <mxGeometry x="3703" y="323" width="54" height="54" as="geometry" />
        </mxCell>
        <mxCell id="3I1n53TY_OWZ9Fxeo7li-80" value="" style="shape=image;verticalLabelPosition=bottom;labelBackgroundColor=default;verticalAlign=top;aspect=fixed;imageAspect=0;image=data:image/png,iVBORw0KGgoAAAANSUhEUgAAADYAAAA2CAMAAAC7m5rvAAAAAXNSR0IArs4c6QAAAARnQU1BAACxjwv8YQUAAABUUExURQAAAEDVqkLWrUfUrkfWrUXWrEXWrUbWq0XVq0bXrEbXrEbWrEfWrEbXrEfXrUbWrEbVrEfWrEfXrEXWrUbWrUbWrEbXrEXWrEbVrEbWq0bWrEbWrZO5h1cAAAAXdFJOUwAMHy8yb3Z8jJG+wc7Q0N/j6urr7vHx0rGC5gAAAAlwSFlzAAAXEQAAFxEByibzPwAAAKFJREFUSEvt0d0OgjAMhuGCgPypqBO1vf/7NNk+ki0zOnBn9jmABvZmWUYql90mZHgD8wfZdEo02eVLVuI6virtcs08mkU0i2gWyZK1+0Tt08/u9plsyVay2e26yiw/7PaICf5ago8+Q13sLDxg7AaWC0YfriMwCtcYqWYZMb5R+A7CDcaiYTlidBA4PQ7ihGfD2+kROFmyD8KsSoZAZUH0Ap7XZhvmSHsTAAAAAElFTkSuQmCC;" parent="1" vertex="1">
          <mxGeometry x="3703" y="666" width="54" height="54" as="geometry" />
        </mxCell>
        <mxCell id="3I1n53TY_OWZ9Fxeo7li-82" value="AutoML" style="sketch=0;html=1;verticalAlign=top;labelPosition=center;verticalLabelPosition=bottom;align=center;spacingTop=-6;fontSize=11;fontStyle=1;fontColor=#999999;shape=image;aspect=fixed;imageAspect=0;image=data:image/svg+xml,PHN2ZyB4bWxucz0iaHR0cDovL3d3dy53My5vcmcvMjAwMC9zdmciIHhtbG5zOnY9Imh0dHBzOi8vdmVjdGEuaW8vbmFubyIgd2lkdGg9IjIwIiBoZWlnaHQ9IjE4IiB2aWV3Qm94PSIwIDAgMjAgMTgiPiYjeGE7CTxzdHlsZSB0eXBlPSJ0ZXh0L2NzcyI+JiN4YTsJLnN0MHtmaWxsOiM0Mjg1ZjQ7fSYjeGE7CS5zdDF7ZmlsbDojNjY5ZGY2O2ZpbGwtb3BhY2l0eTouOH0mI3hhOwkuc3Qye2ZpbGw6I2FlY2JmYTtmaWxsLW9wYWNpdHk6LjZ9JiN4YTsJPC9zdHlsZT4mI3hhOwk8cGF0aCBjbGFzcz0ic3QwIiBkPSJNOS4xNyA1LjE0bDEuNjYtMi41N0w5LjE1IDBINUwwIDguNThsMi41IDUuMTQgNS04LjU4eiIvPiYjeGE7CTxwYXRoIGNsYXNzPSJzdDEiIGQ9Ik0xNC4xNyA1LjE0bDEuNjYtMi41N0wxNC4xNyAwaC0zLjM0bDEuNjcgMi41Ny0xLjY3IDIuNTd6Ii8+JiN4YTsJPHBhdGggY2xhc3M9InN0MiIgZD0iTTEwLjgzIDEyLjg2bC0xLjY2IDIuNTdMMTAuODUgMThIMTVsNS04LjU4LTIuNS01LjE0LTUgOC41OHoiLz4mI3hhOwk8cGF0aCBjbGFzcz0ic3QxIiBkPSJNOS4xNyAxMi44Nkg1LjgzbC0xLjY2IDIuNTdMNS44MyAxOGgzLjM0TDcuNSAxNS40M3oiLz4mI3hhOzwvc3ZnPg==;" parent="1" vertex="1">
          <mxGeometry x="3225" y="531" width="42" height="38" as="geometry" />
        </mxCell>
        <mxCell id="3I1n53TY_OWZ9Fxeo7li-84" value="" style="shape=image;html=1;verticalAlign=top;verticalLabelPosition=bottom;labelBackgroundColor=#ffffff;imageAspect=0;aspect=fixed;image=https://cdn0.iconfinder.com/data/icons/business-startup-10/50/59-128.png" parent="1" vertex="1">
          <mxGeometry x="3330" y="530" width="50" height="50" as="geometry" />
        </mxCell>
        <mxCell id="3I1n53TY_OWZ9Fxeo7li-85" value="DefiniÃ§Ã£o de modelo" style="text;html=1;align=center;verticalAlign=middle;resizable=0;points=[];autosize=1;strokeColor=none;fillColor=none;" parent="1" vertex="1">
          <mxGeometry x="3235" y="460" width="130" height="30" as="geometry" />
        </mxCell>
        <mxCell id="3I1n53TY_OWZ9Fxeo7li-86" value="&lt;ul&gt;&lt;li style=&quot;text-align: justify;&quot;&gt;AutoML&lt;/li&gt;&lt;li style=&quot;text-align: justify;&quot;&gt;Baseline Model&lt;/li&gt;&lt;/ul&gt;" style="text;html=1;align=center;verticalAlign=middle;resizable=0;points=[];autosize=1;strokeColor=none;fillColor=none;" parent="1" vertex="1">
          <mxGeometry x="3225" y="630" width="150" height="70" as="geometry" />
        </mxCell>
        <mxCell id="3I1n53TY_OWZ9Fxeo7li-87" value="" style="shape=image;verticalLabelPosition=bottom;labelBackgroundColor=default;verticalAlign=top;aspect=fixed;imageAspect=0;image=https://www.databricks.com/wp-content/uploads/2021/06/MLflow-logo-pos-TM-1.png;" parent="1" vertex="1">
          <mxGeometry x="3248.26" y="600" width="103.48" height="40" as="geometry" />
        </mxCell>
        <mxCell id="3I1n53TY_OWZ9Fxeo7li-89" value="" style="shape=image;verticalLabelPosition=bottom;labelBackgroundColor=default;verticalAlign=top;aspect=fixed;imageAspect=0;image=https://www.databricks.com/wp-content/uploads/2021/06/MLflow-logo-pos-TM-1.png;" parent="1" vertex="1">
          <mxGeometry x="3599.52" y="390" width="59.5" height="23" as="geometry" />
        </mxCell>
        <mxCell id="3I1n53TY_OWZ9Fxeo7li-90" value="" style="shape=image;verticalLabelPosition=bottom;labelBackgroundColor=default;verticalAlign=top;aspect=fixed;imageAspect=0;image=https://www.databricks.com/wp-content/uploads/2021/06/MLflow-logo-pos-TM-1.png;" parent="1" vertex="1">
          <mxGeometry x="3599.52" y="730" width="59.5" height="23" as="geometry" />
        </mxCell>
        <mxCell id="3I1n53TY_OWZ9Fxeo7li-91" value="" style="sketch=0;aspect=fixed;html=1;points=[];align=center;image;fontSize=12;image=img/lib/mscae/Machine_Learning_Service_Workspaces.svg;" parent="1" vertex="1">
          <mxGeometry x="3610" y="347" width="27.6" height="30" as="geometry" />
        </mxCell>
        <mxCell id="3I1n53TY_OWZ9Fxeo7li-92" value="" style="sketch=0;aspect=fixed;html=1;points=[];align=center;image;fontSize=12;image=img/lib/mscae/Machine_Learning_Service_Workspaces.svg;" parent="1" vertex="1">
          <mxGeometry x="3610" y="690" width="27.6" height="30" as="geometry" />
        </mxCell>
        <mxCell id="3I1n53TY_OWZ9Fxeo7li-97" style="edgeStyle=orthogonalEdgeStyle;rounded=0;orthogonalLoop=1;jettySize=auto;html=1;exitX=0.5;exitY=1;exitDx=0;exitDy=0;entryX=1;entryY=0;entryDx=0;entryDy=0;" parent="1" source="3I1n53TY_OWZ9Fxeo7li-93" target="3I1n53TY_OWZ9Fxeo7li-81" edge="1">
          <mxGeometry relative="1" as="geometry">
            <Array as="points">
              <mxPoint x="4207" y="620" />
            </Array>
          </mxGeometry>
        </mxCell>
        <mxCell id="3I1n53TY_OWZ9Fxeo7li-93" value="" style="shape=image;verticalLabelPosition=bottom;labelBackgroundColor=default;verticalAlign=top;aspect=fixed;imageAspect=0;image=data:image/png,iVBORw0KGgoAAAANSUhEUgAAADYAAAA2CAMAAAC7m5rvAAAAAXNSR0IArs4c6QAAAARnQU1BAACxjwv8YQUAAAAzUExURQAAAAAAAAAAAAAAAAAAAAAAAAAAAAAAAAAAAAAAAAAAAAAAAAAAAAAAAAAAAAAAAAAAAKMFRskAAAAQdFJOUwAQIDBAUGBwgI+fr7/P3+8jGoKKAAAACXBIWXMAABcRAAAXEQHKJvM/AAABXElEQVRIS+WW3ZLEEBBGCUIQvP/TruYzqfmJpKt292L3XEwnMqfSmkD8P7R1HYWGW9gUfSOUFU13yI8/6yJxdY0q9Ue6ja7zZZp6Az7XOx+DryF7NLqTdE3uz/e0uXq7G51qcFuOvf3I/ImIZhtaMCWRLUSwLYh17/GFpHuEJsTSw9Day99508APayU/c08T6gX08Uo74de0Ni/Z2prIm2kSZSDG3F+ToTDTFIpO1C9giXJYrCR9srB4ffMZFrMkj8+UpxHtCVtzTZhpiz2g9GgQXGqzcqqFA5r5WQ+LlaQuHhavb3pYPO2Arcm2hHE1GerMnGsKVSRo3ayDAGuqSYwZUSejzHZYrCRV3mHx+qYCLHZJAFtTl5X8hEptg5xpGusIUQeZBhrW/G1YtRpV2+OwWEnKvcDi9U1iv2FqB9+rjS3/DPN5yzelH5hOCCcHDKFwPDvh8jj0JxDiCwMKErYcPNadAAAAAElFTkSuQmCC;" parent="1" vertex="1">
          <mxGeometry x="4180" y="323" width="54" height="54" as="geometry" />
        </mxCell>
        <mxCell id="3I1n53TY_OWZ9Fxeo7li-94" value="" style="sketch=0;points=[[0.015,0.015,0],[0.985,0.015,0],[0.985,0.985,0],[0.015,0.985,0],[0.25,0,0],[0.5,0,0],[0.75,0,0],[1,0.25,0],[1,0.5,0],[1,0.75,0],[0.75,1,0],[0.5,1,0],[0.25,1,0],[0,0.75,0],[0,0.5,0],[0,0.25,0]];verticalLabelPosition=bottom;html=1;verticalAlign=top;aspect=fixed;align=center;pointerEvents=1;shape=mxgraph.cisco19.rect;prIcon=monitoring;fillColor=#FAFAFA;strokeColor=#005073;" parent="1" vertex="1">
          <mxGeometry x="4360" y="666" width="50" height="50" as="geometry" />
        </mxCell>
        <mxCell id="3I1n53TY_OWZ9Fxeo7li-100" value="" style="shape=image;verticalLabelPosition=bottom;labelBackgroundColor=default;verticalAlign=top;aspect=fixed;imageAspect=0;image=https://www.databricks.com/wp-content/uploads/2021/06/MLflow-logo-pos-TM-1.png;" parent="1" vertex="1">
          <mxGeometry x="4360" y="773" width="59.5" height="23" as="geometry" />
        </mxCell>
        <mxCell id="3I1n53TY_OWZ9Fxeo7li-101" value="" style="sketch=0;aspect=fixed;html=1;points=[];align=center;image;fontSize=12;image=img/lib/mscae/Machine_Learning_Service_Workspaces.svg;" parent="1" vertex="1">
          <mxGeometry x="4370.48" y="730" width="27.6" height="30" as="geometry" />
        </mxCell>
        <mxCell id="3I1n53TY_OWZ9Fxeo7li-102" value="" style="sketch=0;aspect=fixed;html=1;points=[];align=center;image;fontSize=12;image=img/lib/mscae/Azure_Repos.svg;" parent="1" vertex="1">
          <mxGeometry x="3610.6" y="650" width="27" height="30" as="geometry" />
        </mxCell>
        <mxCell id="3I1n53TY_OWZ9Fxeo7li-103" value="" style="sketch=0;aspect=fixed;html=1;points=[];align=center;image;fontSize=12;image=img/lib/mscae/Azure_Repos.svg;" parent="1" vertex="1">
          <mxGeometry x="4373.25" y="814" width="27" height="30" as="geometry" />
        </mxCell>
        <mxCell id="3I1n53TY_OWZ9Fxeo7li-104" value="&lt;ul&gt;&lt;li style=&quot;text-align: justify;&quot;&gt;Feature Engineering&lt;/li&gt;&lt;li style=&quot;text-align: justify;&quot;&gt;Hyperparameter Turning&lt;/li&gt;&lt;/ul&gt;" style="text;html=1;align=center;verticalAlign=middle;resizable=0;points=[];autosize=1;strokeColor=none;fillColor=none;" parent="1" vertex="1">
          <mxGeometry x="4210" y="315" width="190" height="70" as="geometry" />
        </mxCell>
        <mxCell id="3I1n53TY_OWZ9Fxeo7li-105" value="&lt;div style=&quot;text-align: justify;&quot;&gt;AnÃ¡lise do Modelo&lt;/div&gt;" style="text;html=1;align=center;verticalAlign=middle;resizable=0;points=[];autosize=1;strokeColor=none;fillColor=none;" parent="1" vertex="1">
          <mxGeometry x="4320" y="630" width="120" height="30" as="geometry" />
        </mxCell>
        <mxCell id="3I1n53TY_OWZ9Fxeo7li-106" value="Treinamento de Modelo" style="text;html=1;align=center;verticalAlign=middle;resizable=0;points=[];autosize=1;strokeColor=none;fillColor=none;" parent="1" vertex="1">
          <mxGeometry x="3655" y="230" width="150" height="30" as="geometry" />
        </mxCell>
        <mxCell id="3I1n53TY_OWZ9Fxeo7li-107" value="Teste e HomologaÃ§Ã£o de modelo" style="text;html=1;align=center;verticalAlign=middle;resizable=0;points=[];autosize=1;strokeColor=none;fillColor=none;" parent="1" vertex="1">
          <mxGeometry x="3622" y="571" width="200" height="30" as="geometry" />
        </mxCell>
        <mxCell id="3I1n53TY_OWZ9Fxeo7li-108" value="Engenharia de Modelo" style="text;html=1;align=center;verticalAlign=middle;resizable=0;points=[];autosize=1;strokeColor=none;fillColor=none;" parent="1" vertex="1">
          <mxGeometry x="4137" y="285" width="140" height="30" as="geometry" />
        </mxCell>
        <mxCell id="3I1n53TY_OWZ9Fxeo7li-110" value="&lt;ul&gt;&lt;li style=&quot;text-align: justify;&quot;&gt;MÃ©tricas de Erro&amp;nbsp;&lt;/li&gt;&lt;li style=&quot;text-align: justify;&quot;&gt;&amp;nbsp;AcurÃ¡cia&lt;/li&gt;&lt;/ul&gt;" style="text;html=1;align=center;verticalAlign=middle;resizable=0;points=[];autosize=1;strokeColor=none;fillColor=none;" parent="1" vertex="1">
          <mxGeometry x="4394.08" y="655" width="150" height="70" as="geometry" />
        </mxCell>
        <mxCell id="3I1n53TY_OWZ9Fxeo7li-112" value="MLE" style="shape=umlActor;verticalLabelPosition=bottom;verticalAlign=top;html=1;outlineConnect=0;" parent="1" vertex="1">
          <mxGeometry x="3880" y="700" width="30" height="60" as="geometry" />
        </mxCell>
        <mxCell id="3I1n53TY_OWZ9Fxeo7li-113" value="DSC" style="shape=umlActor;verticalLabelPosition=bottom;verticalAlign=top;html=1;outlineConnect=0;" parent="1" vertex="1">
          <mxGeometry x="3880" y="360" width="30" height="60" as="geometry" />
        </mxCell>
        <mxCell id="3I1n53TY_OWZ9Fxeo7li-114" value="MLE" style="shape=umlActor;verticalLabelPosition=bottom;verticalAlign=top;html=1;outlineConnect=0;" parent="1" vertex="1">
          <mxGeometry x="4454.08" y="720" width="30" height="60" as="geometry" />
        </mxCell>
        <mxCell id="3I1n53TY_OWZ9Fxeo7li-115" value="DSC" style="shape=umlActor;verticalLabelPosition=bottom;verticalAlign=top;html=1;outlineConnect=0;" parent="1" vertex="1">
          <mxGeometry x="4290" y="385" width="30" height="60" as="geometry" />
        </mxCell>
        <mxCell id="3I1n53TY_OWZ9Fxeo7li-116" value="DSC" style="shape=umlActor;verticalLabelPosition=bottom;verticalAlign=top;html=1;outlineConnect=0;" parent="1" vertex="1">
          <mxGeometry x="3264" y="693" width="30" height="60" as="geometry" />
        </mxCell>
        <mxCell id="3I1n53TY_OWZ9Fxeo7li-117" value="MLE" style="shape=umlActor;verticalLabelPosition=bottom;verticalAlign=top;html=1;outlineConnect=0;" parent="1" vertex="1">
          <mxGeometry x="3306" y="693" width="30" height="60" as="geometry" />
        </mxCell>
        <mxCell id="3I1n53TY_OWZ9Fxeo7li-120" value="" style="sketch=0;aspect=fixed;html=1;points=[];align=center;image;fontSize=12;image=img/lib/mscae/Azure_Repos.svg;" parent="1" vertex="1">
          <mxGeometry x="3610" y="300" width="27" height="30" as="geometry" />
        </mxCell>
        <mxCell id="3I1n53TY_OWZ9Fxeo7li-123" value="&lt;ul&gt;&lt;li style=&quot;text-align: justify;&quot;&gt;Logging&lt;/li&gt;&lt;li style=&quot;text-align: justify;&quot;&gt;Monitoramento&amp;nbsp;&lt;/li&gt;&lt;/ul&gt;" style="text;html=1;align=center;verticalAlign=middle;resizable=0;points=[];autosize=1;strokeColor=none;fillColor=none;" parent="1" vertex="1">
          <mxGeometry x="5975.5" y="200" width="150" height="70" as="geometry" />
        </mxCell>
        <mxCell id="3I1n53TY_OWZ9Fxeo7li-142" style="edgeStyle=orthogonalEdgeStyle;rounded=0;orthogonalLoop=1;jettySize=auto;html=1;exitX=0;exitY=0;exitDx=0;exitDy=0;entryX=0.433;entryY=-0.033;entryDx=0;entryDy=0;entryPerimeter=0;startArrow=classic;startFill=1;endArrow=none;endFill=0;" parent="1" source="3I1n53TY_OWZ9Fxeo7li-124" target="3I1n53TY_OWZ9Fxeo7li-105" edge="1">
          <mxGeometry relative="1" as="geometry" />
        </mxCell>
        <mxCell id="3I1n53TY_OWZ9Fxeo7li-171" style="edgeStyle=orthogonalEdgeStyle;rounded=0;orthogonalLoop=1;jettySize=auto;html=1;exitX=1;exitY=0;exitDx=0;exitDy=0;entryX=0;entryY=0.5;entryDx=0;entryDy=0;" parent="1" source="3I1n53TY_OWZ9Fxeo7li-124" target="3I1n53TY_OWZ9Fxeo7li-169" edge="1">
          <mxGeometry relative="1" as="geometry" />
        </mxCell>
        <mxCell id="3I1n53TY_OWZ9Fxeo7li-175" style="edgeStyle=orthogonalEdgeStyle;rounded=0;orthogonalLoop=1;jettySize=auto;html=1;exitX=1;exitY=0;exitDx=0;exitDy=0;entryX=0;entryY=0.5;entryDx=0;entryDy=0;" parent="1" source="3I1n53TY_OWZ9Fxeo7li-124" target="3I1n53TY_OWZ9Fxeo7li-174" edge="1">
          <mxGeometry relative="1" as="geometry" />
        </mxCell>
        <mxCell id="3I1n53TY_OWZ9Fxeo7li-124" value="" style="rounded=1;whiteSpace=wrap;html=1;fillColor=#dae8fc;strokeColor=#6c8ebf;" parent="1" vertex="1">
          <mxGeometry x="4690" y="624" width="280" height="140" as="geometry" />
        </mxCell>
        <mxCell id="3I1n53TY_OWZ9Fxeo7li-125" value="" style="sketch=0;aspect=fixed;html=1;points=[];align=center;image;fontSize=12;image=img/lib/mscae/Azure_Test_Plans.svg;" parent="1" vertex="1">
          <mxGeometry x="4807.5" y="663.5" width="45" height="50" as="geometry" />
        </mxCell>
        <mxCell id="3I1n53TY_OWZ9Fxeo7li-127" value="" style="shape=image;verticalLabelPosition=bottom;labelBackgroundColor=default;verticalAlign=top;aspect=fixed;imageAspect=0;image=https://www.databricks.com/wp-content/uploads/2021/06/MLflow-logo-pos-TM-1.png;" parent="1" vertex="1">
          <mxGeometry x="4697" y="733.5" width="59.5" height="23" as="geometry" />
        </mxCell>
        <mxCell id="3I1n53TY_OWZ9Fxeo7li-128" value="" style="sketch=0;aspect=fixed;html=1;points=[];align=center;image;fontSize=12;image=img/lib/mscae/Azure_Repos.svg;" parent="1" vertex="1">
          <mxGeometry x="4707" y="689.5" width="27" height="30" as="geometry" />
        </mxCell>
        <mxCell id="3I1n53TY_OWZ9Fxeo7li-129" value="Testes" style="text;html=1;align=center;verticalAlign=middle;resizable=0;points=[];autosize=1;strokeColor=none;fillColor=none;" parent="1" vertex="1">
          <mxGeometry x="4800" y="587" width="60" height="30" as="geometry" />
        </mxCell>
        <mxCell id="3I1n53TY_OWZ9Fxeo7li-130" value="&lt;ul&gt;&lt;li style=&quot;text-align: justify;&quot;&gt;Testes UnitÃ¡rios&lt;/li&gt;&lt;li style=&quot;text-align: justify;&quot;&gt;Teste de HomologaÃ§Ã£o&lt;/li&gt;&lt;li style=&quot;text-align: justify;&quot;&gt;ProdutizaÃ§Ã£o&lt;/li&gt;&lt;li style=&quot;text-align: justify;&quot;&gt;Prova de Conceito (POC)&lt;/li&gt;&lt;/ul&gt;" style="text;html=1;align=center;verticalAlign=middle;resizable=0;points=[];autosize=1;strokeColor=none;fillColor=none;" parent="1" vertex="1">
          <mxGeometry x="4935" y="641" width="200" height="100" as="geometry" />
        </mxCell>
        <mxCell id="3I1n53TY_OWZ9Fxeo7li-166" style="edgeStyle=orthogonalEdgeStyle;rounded=0;orthogonalLoop=1;jettySize=auto;html=1;exitX=1;exitY=0.5;exitDx=0;exitDy=0;entryX=0;entryY=0.5;entryDx=0;entryDy=0;" parent="1" source="3I1n53TY_OWZ9Fxeo7li-131" target="3I1n53TY_OWZ9Fxeo7li-146" edge="1">
          <mxGeometry relative="1" as="geometry" />
        </mxCell>
        <mxCell id="3I1n53TY_OWZ9Fxeo7li-131" value="" style="rounded=1;whiteSpace=wrap;html=1;fillColor=#dae8fc;strokeColor=#6c8ebf;" parent="1" vertex="1">
          <mxGeometry x="5350" y="621.5" width="280" height="140" as="geometry" />
        </mxCell>
        <mxCell id="3I1n53TY_OWZ9Fxeo7li-132" value="" style="sketch=0;aspect=fixed;html=1;points=[];align=center;image;fontSize=12;image=img/lib/mscae/Azure_Repos.svg;" parent="1" vertex="1">
          <mxGeometry x="5368.24" y="679" width="27" height="30" as="geometry" />
        </mxCell>
        <mxCell id="3I1n53TY_OWZ9Fxeo7li-133" value="" style="shape=image;verticalLabelPosition=bottom;labelBackgroundColor=default;verticalAlign=top;aspect=fixed;imageAspect=0;image=data:image/png,iVBORw0KGgoAAAANSUhEUgAAAEUAAABFCAMAAAArU9sbAAAAAXNSR0IArs4c6QAAAARnQU1BAACxjwv8YQUAAAAzUExURQAAAEDPr0jXp0XVqkTTq0bWrEXVqkfWq0bVq0bWrUfXrEbWrEXWrEbWrEbWrEbWrEbWrB4gB+kAAAAQdFJOUwAQIDBAUGBwgI+fr7/P3+8jGoKKAAAACXBIWXMAABcRAAAXEQHKJvM/AAABjUlEQVRYR+2WgY6DIAxAUUBRHPj/X3ullAk4p/XcZZf4km3QwUtpBBE3N/8deYKW5iakm8/gFc2PPCjMxdN8RFKQT56MohiflUW2PHABK0tDnaM0f2GRGpDU2WbHMoTegzrb7Flc21qv6yezZtcixBgidujzURV7Fq+1DZHZw8dZoyCtxpgquSN1cQa+vNL9OIWuhY0GKebsWBp8qIToIWhCoO0MqspkdiwLUB27NHm5ZMBcTU3IbCqGHLeAxqd1QGWK84RhgZNnohYeZFinCMfSPYsaj8NlVRwLTO5TA/Fph7EsQ1oSWea5i32WBQbHJYHFdd2y3VkWkYa66sjnWTw9Mi4theBZHlReN+DPE55lIktfDeBYGmXnsahHgmPBv6rdHOFZtDQXWKTQF1h6fUUugd9aBB6fr/5jWTb5pEUrHvql5RS5BZM7RXG1OHs7dEUxW3z3cfHT6jlq1mD9CEWxApr6nrzoeRl5fIVFj0i8CkVsDKV3/xHCzeU19J48xDdZlN2CU5ebm88hxA+bi0Rh9GSVcQAAAABJRU5ErkJggg==;" parent="1" vertex="1">
          <mxGeometry x="5455.5" y="658" width="69" height="69" as="geometry" />
        </mxCell>
        <mxCell id="3I1n53TY_OWZ9Fxeo7li-135" value="MLE" style="shape=umlActor;verticalLabelPosition=bottom;verticalAlign=top;html=1;outlineConnect=0;" parent="1" vertex="1">
          <mxGeometry x="4986" y="731" width="30" height="60" as="geometry" />
        </mxCell>
        <mxCell id="3I1n53TY_OWZ9Fxeo7li-137" value="" style="shape=image;verticalLabelPosition=bottom;labelBackgroundColor=default;verticalAlign=top;aspect=fixed;imageAspect=0;image=https://upload.wikimedia.org/wikipedia/commons/b/ba/Pytest_logo.svg;" parent="1" vertex="1">
          <mxGeometry x="4757.5" y="773" width="50" height="50" as="geometry" />
        </mxCell>
        <mxCell id="3I1n53TY_OWZ9Fxeo7li-138" value="" style="shape=image;verticalLabelPosition=bottom;labelBackgroundColor=default;verticalAlign=top;aspect=fixed;imageAspect=0;image=https://docs.greatexpectations.io/img/gx-logo.svg;" parent="1" vertex="1">
          <mxGeometry x="4820" y="780.5" width="75.19" height="20" as="geometry" />
        </mxCell>
        <mxCell id="3I1n53TY_OWZ9Fxeo7li-140" value="" style="shape=image;verticalLabelPosition=bottom;labelBackgroundColor=default;verticalAlign=top;aspect=fixed;imageAspect=0;image=https://docs.greatexpectations.io/img/gx-logo.svg;" parent="1" vertex="1">
          <mxGeometry x="1942.4099999999999" y="660" width="75.19" height="20" as="geometry" />
        </mxCell>
        <mxCell id="3I1n53TY_OWZ9Fxeo7li-141" value="" style="shape=image;verticalLabelPosition=bottom;labelBackgroundColor=default;verticalAlign=top;aspect=fixed;imageAspect=0;image=https://docs.greatexpectations.io/img/gx-logo.svg;" parent="1" vertex="1">
          <mxGeometry x="5452.41" y="794" width="75.19" height="20" as="geometry" />
        </mxCell>
        <mxCell id="3I1n53TY_OWZ9Fxeo7li-143" value="Deployment" style="text;html=1;align=center;verticalAlign=middle;resizable=0;points=[];autosize=1;strokeColor=none;fillColor=none;" parent="1" vertex="1">
          <mxGeometry x="5437.5" y="582" width="90" height="30" as="geometry" />
        </mxCell>
        <mxCell id="3I1n53TY_OWZ9Fxeo7li-144" value="" style="shape=image;verticalLabelPosition=bottom;labelBackgroundColor=#ffffff;verticalAlign=top;aspect=fixed;imageAspect=0;image=data:image/svg+xml,PHN2ZyB4bWxuczpkYz0iaHR0cDovL3B1cmwub3JnL2RjL2VsZW1lbnRzLzEuMS8iIHhtbG5zOmNjPSJodHRwOi8vY3JlYXRpdmVjb21tb25zLm9yZy9ucyMiIHhtbG5zOnJkZj0iaHR0cDovL3d3dy53My5vcmcvMTk5OS8wMi8yMi1yZGYtc3ludGF4LW5zIyIgeG1sbnM6c3ZnPSJodHRwOi8vd3d3LnczLm9yZy8yMDAwL3N2ZyIgeG1sbnM9Imh0dHA6Ly93d3cudzMub3JnLzIwMDAvc3ZnIiB4bWxuczp4bGluaz0iaHR0cDovL3d3dy53My5vcmcvMTk5OS94bGluayIgeG1sbnM6c29kaXBvZGk9Imh0dHA6Ly9zb2RpcG9kaS5zb3VyY2Vmb3JnZS5uZXQvRFREL3NvZGlwb2RpLTAuZHRkIiB4bWxuczppbmtzY2FwZT0iaHR0cDovL3d3dy5pbmtzY2FwZS5vcmcvbmFtZXNwYWNlcy9pbmtzY2FwZSIgdmVyc2lvbj0iMS4xIiBpZD0iTGF5ZXJfMSIgeD0iMHB4IiB5PSIwcHgiIHZpZXdCb3g9IjAgMCA0NC4yMTk5OTcgNDUuNzc5OTk5IiB4bWw6c3BhY2U9InByZXNlcnZlIiBzb2RpcG9kaTpkb2NuYW1lPSJhenVyZV9kYXRhYnJpY2tzLnN2ZyIgd2lkdGg9IjQ0LjIxOTk5NyIgaGVpZ2h0PSI0NS43Nzk5OTkiIGlua3NjYXBlOnZlcnNpb249IjAuOTIuMyAoMjQwNTU0NiwgMjAxOC0wMy0xMSkiPjxtZXRhZGF0YSBpZD0ibWV0YWRhdGEzMDcwMyI+PHJkZjpSREY+PGNjOldvcmsgcmRmOmFib3V0PSIiPjxkYzpmb3JtYXQ+aW1hZ2Uvc3ZnK3htbDwvZGM6Zm9ybWF0PjxkYzp0eXBlIHJkZjpyZXNvdXJjZT0iaHR0cDovL3B1cmwub3JnL2RjL2RjbWl0eXBlL1N0aWxsSW1hZ2UiLz48ZGM6dGl0bGUvPjwvY2M6V29yaz48L3JkZjpSREY+PC9tZXRhZGF0YT48ZGVmcyBpZD0iZGVmczMwNzAxIi8+PHNvZGlwb2RpOm5hbWVkdmlldyBwYWdlY29sb3I9IiNmZmZmZmYiIGJvcmRlcmNvbG9yPSIjNjY2NjY2IiBib3JkZXJvcGFjaXR5PSIxIiBvYmplY3R0b2xlcmFuY2U9IjEwIiBncmlkdG9sZXJhbmNlPSIxMCIgZ3VpZGV0b2xlcmFuY2U9IjEwIiBpbmtzY2FwZTpwYWdlb3BhY2l0eT0iMCIgaW5rc2NhcGU6cGFnZXNoYWRvdz0iMiIgaW5rc2NhcGU6d2luZG93LXdpZHRoPSIxOTIwIiBpbmtzY2FwZTp3aW5kb3ctaGVpZ2h0PSIxMDE3IiBpZD0ibmFtZWR2aWV3MzA2OTkiIHNob3dncmlkPSJmYWxzZSIgZml0LW1hcmdpbi10b3A9IjAiIGZpdC1tYXJnaW4tbGVmdD0iMCIgZml0LW1hcmdpbi1yaWdodD0iMCIgZml0LW1hcmdpbi1ib3R0b209IjAiIGlua3NjYXBlOnpvb209IjEuMDMwMzAzIiBpbmtzY2FwZTpjeD0iMjQwLjA4NSIgaW5rc2NhcGU6Y3k9Ii0xNzcuMzkiIGlua3NjYXBlOndpbmRvdy14PSItOCIgaW5rc2NhcGU6d2luZG93LXk9Ii04IiBpbmtzY2FwZTp3aW5kb3ctbWF4aW1pemVkPSIxIiBpbmtzY2FwZTpjdXJyZW50LWxheWVyPSJMYXllcl8xIi8+JiN4YTsmI3hhOzxnIGlkPSJnMzA2OTYiIHRyYW5zZm9ybT0idHJhbnNsYXRlKC01Ny4yOTAwMDEsLTE5Ny41OCkiPiYjeGE7CTxkZWZzIGlkPSJkZWZzMzA2NzUiPiYjeGE7CQk8cmVjdCBpZD0iU1ZHSURfM18iIHg9IjU3LjI5MDAwMSIgeT0iMTk3LjU4IiB3aWR0aD0iNDUuMzMwMDAyIiBoZWlnaHQ9IjQ4LjE2Ii8+JiN4YTsJPC9kZWZzPiYjeGE7CTxjbGlwUGF0aCBpZD0iU1ZHSURfNF8iPiYjeGE7CQk8dXNlIHhsaW5rOmhyZWY9IiNTVkdJRF8zXyIgc3R5bGU9Im92ZXJmbG93OnZpc2libGUiIGlkPSJ1c2UzMDY3NyIgeD0iMCIgeT0iMCIgd2lkdGg9IjEwMCUiIGhlaWdodD0iMTAwJSIvPiYjeGE7CTwvY2xpcFBhdGg+JiN4YTsJPGcgY2xpcC1wYXRoPSJ1cmwoI1NWR0lEXzRfKSIgaWQ9ImczMDY5NCI+JiN4YTsJCTxkZWZzIGlkPSJkZWZzMzA2ODEiPiYjeGE7CQkJPHJlY3QgaWQ9IlNWR0lEXzVfIiB4PSI1Ny4yOTAwMDEiIHk9IjE5Ny41OCIgd2lkdGg9IjQ1LjMzMDAwMiIgaGVpZ2h0PSI0OC4xNiIvPiYjeGE7CQk8L2RlZnM+JiN4YTsJCTxjbGlwUGF0aCBpZD0iU1ZHSURfNl8iPiYjeGE7CQkJPHVzZSB4bGluazpocmVmPSIjU1ZHSURfNV8iIHN0eWxlPSJvdmVyZmxvdzp2aXNpYmxlIiBpZD0idXNlMzA2ODMiIHg9IjAiIHk9IjAiIHdpZHRoPSIxMDAlIiBoZWlnaHQ9IjEwMCUiLz4mI3hhOwkJPC9jbGlwUGF0aD4mI3hhOwkJPHBvbHlnb24gc3R5bGU9ImZpbGw6I2RjMjEyNiIgcG9pbnRzPSI3OS40NiwyNDMuMzYgNTcuMjksMjMxLjMyIDU3LjI5LDIyNC4wMSA3OS40LDIxMi42MiAxMDEuNDUsMjI0LjAxIDEwMS40NSwyMzEuMzIgIiBjbGlwLXBhdGg9InVybCgjU1ZHSURfNl8pIiBpZD0icG9seWdvbjMwNjg2Ii8+JiN4YTsJCTxwb2x5Z29uIHN0eWxlPSJmaWxsOiNmMDU0MmQiIHBvaW50cz0iNzkuNCwyMzUuNTcgNTcuMjksMjI0LjAxIDc5LjQsMjEyLjYyIDEwMS41MSwyMjQuMDEgIiBjbGlwLXBhdGg9InVybCgjU1ZHSURfNl8pIiBpZD0icG9seWdvbjMwNjg4Ii8+JiN4YTsJCTxwb2x5Z29uIHN0eWxlPSJmaWxsOiNkYzIxMjYiIHBvaW50cz0iNzkuNDYsMjI4LjMyIDU3LjI5LDIxNi4yOCA1Ny4yOSwyMDguOTYgNzkuNCwxOTcuNTggMTAxLjQ1LDIwOC45NiAxMDEuNDUsMjE2LjI4ICIgY2xpcC1wYXRoPSJ1cmwoI1NWR0lEXzZfKSIgaWQ9InBvbHlnb24zMDY5MCIvPiYjeGE7CQk8cG9seWdvbiBzdHlsZT0iZmlsbDojZjA1NDJkIiBwb2ludHM9Ijc5LjQsMjIwLjUzIDU3LjI5LDIwOC45NiA3OS40LDE5Ny41OCAxMDEuNTEsMjA4Ljk2ICIgY2xpcC1wYXRoPSJ1cmwoI1NWR0lEXzZfKSIgaWQ9InBvbHlnb24zMDY5MiIvPiYjeGE7CTwvZz4mI3hhOzwvZz4mI3hhOzwvc3ZnPg==;" parent="1" vertex="1">
          <mxGeometry x="5365.48" y="718.5" width="32.52" height="34" as="geometry" />
        </mxCell>
        <mxCell id="3I1n53TY_OWZ9Fxeo7li-145" value="job&lt;br&gt;control-m" style="text;html=1;align=center;verticalAlign=middle;resizable=0;points=[];autosize=1;strokeColor=none;fillColor=none;" parent="1" vertex="1">
          <mxGeometry x="5846.5" y="749" width="70" height="40" as="geometry" />
        </mxCell>
        <mxCell id="3I1n53TY_OWZ9Fxeo7li-146" value="" style="shape=image;html=1;verticalAlign=top;verticalLabelPosition=bottom;labelBackgroundColor=#ffffff;imageAspect=0;aspect=fixed;image=https://cdn1.iconfinder.com/data/icons/material-core/20/schedule-128.png" parent="1" vertex="1">
          <mxGeometry x="5850" y="660" width="63" height="63" as="geometry" />
        </mxCell>
        <mxCell id="3I1n53TY_OWZ9Fxeo7li-147" value="Schedule" style="text;html=1;align=center;verticalAlign=middle;resizable=0;points=[];autosize=1;strokeColor=none;fillColor=none;" parent="1" vertex="1">
          <mxGeometry x="5846.5" y="615.5" width="70" height="30" as="geometry" />
        </mxCell>
        <mxCell id="3I1n53TY_OWZ9Fxeo7li-148" value="&lt;ul&gt;&lt;li&gt;Job no Databricks&lt;/li&gt;&lt;li style=&quot;text-align: justify;&quot;&gt;Json&lt;/li&gt;&lt;/ul&gt;" style="text;html=1;align=center;verticalAlign=middle;resizable=0;points=[];autosize=1;strokeColor=none;fillColor=none;" parent="1" vertex="1">
          <mxGeometry x="5900" y="656.5" width="160" height="70" as="geometry" />
        </mxCell>
        <mxCell id="3I1n53TY_OWZ9Fxeo7li-167" style="edgeStyle=orthogonalEdgeStyle;rounded=0;orthogonalLoop=1;jettySize=auto;html=1;exitX=0.5;exitY=1;exitDx=0;exitDy=0;entryX=1.033;entryY=0.56;entryDx=0;entryDy=0;entryPerimeter=0;endArrow=none;endFill=0;startArrow=classic;startFill=1;" parent="1" source="3I1n53TY_OWZ9Fxeo7li-149" target="3I1n53TY_OWZ9Fxeo7li-148" edge="1">
          <mxGeometry relative="1" as="geometry">
            <Array as="points">
              <mxPoint x="6460" y="692" />
              <mxPoint x="6065" y="692" />
            </Array>
          </mxGeometry>
        </mxCell>
        <mxCell id="3I1n53TY_OWZ9Fxeo7li-180" style="edgeStyle=orthogonalEdgeStyle;rounded=0;orthogonalLoop=1;jettySize=auto;html=1;entryX=1;entryY=0;entryDx=0;entryDy=0;" parent="1" target="3I1n53TY_OWZ9Fxeo7li-164" edge="1">
          <mxGeometry relative="1" as="geometry">
            <mxPoint x="6460" y="340" as="sourcePoint" />
            <Array as="points">
              <mxPoint x="6460" y="340" />
              <mxPoint x="6460" y="145" />
              <mxPoint x="6000" y="145" />
            </Array>
          </mxGeometry>
        </mxCell>
        <mxCell id="3I1n53TY_OWZ9Fxeo7li-149" value="" style="rounded=1;whiteSpace=wrap;html=1;fillColor=#dae8fc;strokeColor=#6c8ebf;" parent="1" vertex="1">
          <mxGeometry x="6320" y="384" width="280" height="140" as="geometry" />
        </mxCell>
        <mxCell id="3I1n53TY_OWZ9Fxeo7li-150" value="Produto" style="text;html=1;align=center;verticalAlign=middle;resizable=0;points=[];autosize=1;strokeColor=none;fillColor=none;" parent="1" vertex="1">
          <mxGeometry x="6425" y="347" width="70" height="30" as="geometry" />
        </mxCell>
        <mxCell id="3I1n53TY_OWZ9Fxeo7li-153" value="" style="shape=image;html=1;verticalAlign=top;verticalLabelPosition=bottom;labelBackgroundColor=#ffffff;imageAspect=0;aspect=fixed;image=https://cdn0.iconfinder.com/data/icons/basic-e-commerce-line/48/Package_box_add-128.png" parent="1" vertex="1">
          <mxGeometry x="6396" y="390.5" width="128" height="128" as="geometry" />
        </mxCell>
        <mxCell id="3I1n53TY_OWZ9Fxeo7li-154" value="MLE" style="shape=umlActor;verticalLabelPosition=bottom;verticalAlign=top;html=1;outlineConnect=0;" parent="1" vertex="1">
          <mxGeometry x="5659" y="720" width="30" height="60" as="geometry" />
        </mxCell>
        <mxCell id="3I1n53TY_OWZ9Fxeo7li-155" value="MLE" style="shape=umlActor;verticalLabelPosition=bottom;verticalAlign=top;html=1;outlineConnect=0;" parent="1" vertex="1">
          <mxGeometry x="5941.25" y="740.5" width="30" height="60" as="geometry" />
        </mxCell>
        <mxCell id="3I1n53TY_OWZ9Fxeo7li-156" value="DE" style="shape=umlActor;verticalLabelPosition=bottom;verticalAlign=top;html=1;outlineConnect=0;fillColor=#e1d5e7;strokeColor=#9673a6;" parent="1" vertex="1">
          <mxGeometry x="5988.75" y="740.5" width="30" height="60" as="geometry" />
        </mxCell>
        <mxCell id="3I1n53TY_OWZ9Fxeo7li-159" value="" style="shape=image;verticalLabelPosition=bottom;labelBackgroundColor=#ffffff;verticalAlign=top;aspect=fixed;imageAspect=0;image=data:image/svg+xml,PHN2ZyB4bWxuczpjYz0iaHR0cDovL2NyZWF0aXZlY29tbW9ucy5vcmcvbnMjIiB4bWxuczpkYz0iaHR0cDovL3B1cmwub3JnL2RjL2VsZW1lbnRzLzEuMS8iIHhtbG5zOmlua3NjYXBlPSJodHRwOi8vd3d3Lmlua3NjYXBlLm9yZy9uYW1lc3BhY2VzL2lua3NjYXBlIiB4bWxuczpyZGY9Imh0dHA6Ly93d3cudzMub3JnLzE5OTkvMDIvMjItcmRmLXN5bnRheC1ucyMiIHhtbG5zOnNvZGlwb2RpPSJodHRwOi8vc29kaXBvZGkuc291cmNlZm9yZ2UubmV0L0RURC9zb2RpcG9kaS0wLmR0ZCIgeG1sbnM6c3ZnPSJodHRwOi8vd3d3LnczLm9yZy8yMDAwL3N2ZyIgeG1sbnM9Imh0dHA6Ly93d3cudzMub3JnLzIwMDAvc3ZnIiB4bWxuczp4bGluaz0iaHR0cDovL3d3dy53My5vcmcvMTk5OS94bGluayIgdmVyc2lvbj0iMS4xIiBpZD0ic3ZnODA0NzkiIGlua3NjYXBlOnZlcnNpb249IjAuOTIuMyAoMjQwNTU0NiwgMjAxOC0wMy0xMSkiIHNvZGlwb2RpOmRvY25hbWU9ImdpdC5zdmciIHg9IjBweCIgeT0iMHB4IiB2aWV3Qm94PSIwIDAgMzAuMzcgMzAuMzciIHN0eWxlPSJlbmFibGUtYmFja2dyb3VuZDpuZXcgMCAwIDMwLjM3IDMwLjM3OyIgeG1sOnNwYWNlPSJwcmVzZXJ2ZSI+JiN4YTs8c29kaXBvZGk6bmFtZWR2aWV3IGJvcmRlcmNvbG9yPSIjNjY2NjY2IiBib3JkZXJvcGFjaXR5PSIxIiBmaXQtbWFyZ2luLWJvdHRvbT0iMCIgZml0LW1hcmdpbi1sZWZ0PSIwIiBmaXQtbWFyZ2luLXJpZ2h0PSIwIiBmaXQtbWFyZ2luLXRvcD0iMCIgZ3JpZHRvbGVyYW5jZT0iMTAiIGd1aWRldG9sZXJhbmNlPSIxMCIgaWQ9Im5hbWVkdmlldzgwNDgxIiBpbmtzY2FwZTpjdXJyZW50LWxheWVyPSJzdmc4MDQ3OSIgaW5rc2NhcGU6Y3g9IjI0LjU0MDUyIiBpbmtzY2FwZTpjeT0iLTcuOTc4NjcxNyIgaW5rc2NhcGU6cGFnZW9wYWNpdHk9IjAiIGlua3NjYXBlOnBhZ2VzaGFkb3c9IjIiIGlua3NjYXBlOndpbmRvdy1oZWlnaHQ9IjEwMTciIGlua3NjYXBlOndpbmRvdy1tYXhpbWl6ZWQ9IjEiIGlua3NjYXBlOndpbmRvdy13aWR0aD0iMTkyMCIgaW5rc2NhcGU6d2luZG93LXg9Ii04IiBpbmtzY2FwZTp3aW5kb3cteT0iLTgiIGlua3NjYXBlOnpvb209IjYuOTUyMzU1MSIgb2JqZWN0dG9sZXJhbmNlPSIxMCIgcGFnZWNvbG9yPSIjZmZmZmZmIiBzaG93Z3JpZD0iZmFsc2UiPiYjeGE7CTwvc29kaXBvZGk6bmFtZWR2aWV3PiYjeGE7PGcgaWQ9Imc4MDQ3NyIgdHJhbnNmb3JtPSJ0cmFuc2xhdGUoLTIwLjgxNTYsLTAuNzQyMikiPiYjeGE7CTx0aXRsZSBpZD0idGl0bGU4MDQ2NyI+UGFnZS0xPC90aXRsZT4mI3hhOwk8ZyBpZD0iZ3JvdXA0MjQ4LTEiIHRyYW5zZm9ybT0idHJhbnNsYXRlKDIwLjYzMDYsLTM0Ljg0MjgpIj4mI3hhOwkJPHRpdGxlIGlkPSJ0aXRsZTgwNDY5Ij5HaXQ8L3RpdGxlPiYjeGE7CQk8ZyBpZD0ic2hhcGU0MjQ5LTIiPiYjeGE7CQkJPHRpdGxlIGlkPSJ0aXRsZTgwNDcxIj5TaGVldC40MjQ5PC90aXRsZT4mI3hhOwkJCTxwYXRoIGlkPSJwYXRoODA0NzMiIGlua3NjYXBlOmNvbm5lY3Rvci1jdXJ2YXR1cmU9IjAiIHN0eWxlPSJmaWxsOiNGNTREMjc7IiBkPSJNMzAsNDkuNDRsLTEzLjMtMTMuMyAgICAgYy0wLjc0LTAuNzQtMS45Mi0wLjc0LTIuNjYsMGwtMi44NSwyLjg1bDMuNDMsMy40M2MwLjI2LTAuMSwwLjUzLTAuMTYsMC44NC0wLjE2YzEuMjcsMCwyLjMsMS4wMywyLjMsMi4zMiAgICAgYzAsMC4yOS0wLjA1LDAuNTgtMC4xNSwwLjg0bDMuMzYsMy4zNmMwLjI1LTAuMTEsMC41NS0wLjE3LDAuODMtMC4xN2MxLjI4LDAsMi4zMSwxLjA1LDIuMzEsMi4zMmMwLDEuMjktMS4wMywyLjMxLTIuMzEsMi4zMSAgICAgYy0xLjI3LDAtMi4zMS0xLjAyLTIuMzEtMi4zMWMwLTAuMjksMC4wNi0wLjU4LDAuMTYtMC44NGwtMy4xNy0zLjE3djguMjZjMC43NywwLjM5LDEuMjcsMS4xNywxLjI3LDIuMDYgICAgIGMwLDEuMjktMS4wMiwyLjMyLTIuMjksMi4zMmMtMS4yOSwwLTIuMzItMS4wMy0yLjMyLTIuMzJjMC0wLjk4LDAuNjEtMS44MiwxLjQ5LTIuMTV2LTguMzZjLTAuODgtMC4zMy0xLjQ5LTEuMTctMS40OS0yLjE1ICAgICBjMC0wLjMsMC4wNi0wLjU4LDAuMTYtMC44NWwtMy40My0zLjQybC05LjEzLDkuMTNDMCw1MC4xOCwwLDUxLjM2LDAuNzQsNTIuMDlsMTMuMywxMy4zMWMwLjczLDAuNzQsMS45MiwwLjc0LDIuNjYsMEwzMCw1Mi4wOSAgICAgQzMwLjc0LDUxLjM2LDMwLjc0LDUwLjE4LDMwLDQ5LjQ0eiIvPiYjeGE7CQk8L2c+JiN4YTsJPC9nPiYjeGE7PC9nPiYjeGE7PC9zdmc+;" parent="1" vertex="1">
          <mxGeometry x="5870" y="796" width="30" height="30" as="geometry" />
        </mxCell>
        <mxCell id="3I1n53TY_OWZ9Fxeo7li-162" value="" style="shape=image;verticalLabelPosition=bottom;labelBackgroundColor=default;verticalAlign=top;aspect=fixed;imageAspect=0;image=https://butecotecnologico.com.br/kubernetes-explicado/k8s-logo.png;" parent="1" vertex="1">
          <mxGeometry x="5361.24" y="625" width="41" height="41" as="geometry" />
        </mxCell>
        <mxCell id="3I1n53TY_OWZ9Fxeo7li-163" value="" style="shape=image;verticalLabelPosition=bottom;labelBackgroundColor=default;verticalAlign=top;aspect=fixed;imageAspect=0;image=https://butecotecnologico.com.br/kubernetes-explicado/k8s-logo.png;" parent="1" vertex="1">
          <mxGeometry x="5864.5" y="850" width="41" height="41" as="geometry" />
        </mxCell>
        <mxCell id="3I1n53TY_OWZ9Fxeo7li-181" style="edgeStyle=orthogonalEdgeStyle;rounded=0;orthogonalLoop=1;jettySize=auto;html=1;exitX=0;exitY=0.25;exitDx=0;exitDy=0;entryX=1;entryY=0;entryDx=0;entryDy=0;" parent="1" source="3I1n53TY_OWZ9Fxeo7li-164" target="3I1n53TY_OWZ9Fxeo7li-78" edge="1">
          <mxGeometry relative="1" as="geometry" />
        </mxCell>
        <mxCell id="3I1n53TY_OWZ9Fxeo7li-164" value="" style="rounded=1;whiteSpace=wrap;html=1;fillColor=#dae8fc;strokeColor=#6c8ebf;" parent="1" vertex="1">
          <mxGeometry x="5720" y="165" width="280" height="140" as="geometry" />
        </mxCell>
        <mxCell id="3I1n53TY_OWZ9Fxeo7li-172" style="edgeStyle=orthogonalEdgeStyle;rounded=0;orthogonalLoop=1;jettySize=auto;html=1;exitX=1;exitY=0.5;exitDx=0;exitDy=0;" parent="1" source="3I1n53TY_OWZ9Fxeo7li-169" edge="1">
          <mxGeometry relative="1" as="geometry">
            <mxPoint x="5360" y="620" as="targetPoint" />
          </mxGeometry>
        </mxCell>
        <mxCell id="3I1n53TY_OWZ9Fxeo7li-169" value="" style="shape=image;html=1;verticalAlign=top;verticalLabelPosition=bottom;labelBackgroundColor=#ffffff;imageAspect=0;aspect=fixed;image=https://cdn0.iconfinder.com/data/icons/evericons-24px-vol-1/24/thumbs-up-128.png" parent="1" vertex="1">
          <mxGeometry x="5130" y="500" width="48" height="48" as="geometry" />
        </mxCell>
        <mxCell id="3I1n53TY_OWZ9Fxeo7li-170" value="AprovaÃ§Ã£o" style="text;html=1;align=center;verticalAlign=middle;resizable=0;points=[];autosize=1;strokeColor=none;fillColor=none;" parent="1" vertex="1">
          <mxGeometry x="5114" y="470" width="80" height="30" as="geometry" />
        </mxCell>
        <mxCell id="3I1n53TY_OWZ9Fxeo7li-177" style="edgeStyle=orthogonalEdgeStyle;rounded=0;orthogonalLoop=1;jettySize=auto;html=1;exitX=1;exitY=0.5;exitDx=0;exitDy=0;entryX=1;entryY=0;entryDx=0;entryDy=0;" parent="1" source="3I1n53TY_OWZ9Fxeo7li-174" target="3I1n53TY_OWZ9Fxeo7li-78" edge="1">
          <mxGeometry relative="1" as="geometry">
            <Array as="points">
              <mxPoint x="4610" y="524" />
              <mxPoint x="4610" y="260" />
              <mxPoint x="3870" y="260" />
            </Array>
          </mxGeometry>
        </mxCell>
        <mxCell id="3I1n53TY_OWZ9Fxeo7li-174" value="" style="shape=image;html=1;verticalAlign=top;verticalLabelPosition=bottom;labelBackgroundColor=#ffffff;imageAspect=0;aspect=fixed;image=https://cdn0.iconfinder.com/data/icons/evericons-24px-vol-1/24/thumbs-up-128.png;rotation=-180;" parent="1" vertex="1">
          <mxGeometry x="4734" y="500" width="48" height="48" as="geometry" />
        </mxCell>
        <mxCell id="3I1n53TY_OWZ9Fxeo7li-176" value="ReprovaÃ§Ã£o" style="text;html=1;align=center;verticalAlign=middle;resizable=0;points=[];autosize=1;strokeColor=none;fillColor=none;" parent="1" vertex="1">
          <mxGeometry x="4713" y="460" width="90" height="30" as="geometry" />
        </mxCell>
        <mxCell id="3I1n53TY_OWZ9Fxeo7li-178" value="" style="verticalLabelPosition=bottom;html=1;verticalAlign=top;align=center;strokeColor=#82b366;fillColor=#d5e8d4;shape=mxgraph.azure.health_monitoring;" parent="1" vertex="1">
          <mxGeometry x="5835" y="213.75" width="50" height="42.5" as="geometry" />
        </mxCell>
        <mxCell id="3I1n53TY_OWZ9Fxeo7li-179" value="SaÃºde do Produto" style="text;html=1;align=center;verticalAlign=middle;resizable=0;points=[];autosize=1;strokeColor=none;fillColor=none;" parent="1" vertex="1">
          <mxGeometry x="5785.5" y="130" width="120" height="30" as="geometry" />
        </mxCell>
        <mxCell id="3I1n53TY_OWZ9Fxeo7li-182" value="" style="shape=image;html=1;verticalAlign=top;verticalLabelPosition=bottom;labelBackgroundColor=#ffffff;imageAspect=0;aspect=fixed;image=https://cdn0.iconfinder.com/data/icons/evericons-24px-vol-1/24/thumbs-up-128.png;rotation=-180;" parent="1" vertex="1">
          <mxGeometry x="4860" y="140" width="48" height="48" as="geometry" />
        </mxCell>
        <mxCell id="3I1n53TY_OWZ9Fxeo7li-183" value="&lt;ul&gt;&lt;li style=&quot;text-align: justify;&quot;&gt;&lt;span style=&quot;background-color: initial;&quot;&gt;MÃ©tricas Baixas&lt;/span&gt;&lt;/li&gt;&lt;li style=&quot;text-align: justify;&quot;&gt;&lt;span style=&quot;background-color: initial;&quot;&gt;Erros&lt;/span&gt;&lt;/li&gt;&lt;li style=&quot;text-align: justify;&quot;&gt;&lt;span style=&quot;background-color: initial;&quot;&gt;Tipping Points&amp;nbsp;&lt;/span&gt;&lt;br&gt;&lt;/li&gt;&lt;/ul&gt;" style="text;html=1;align=center;verticalAlign=middle;resizable=0;points=[];autosize=1;strokeColor=none;fillColor=none;" parent="1" vertex="1">
          <mxGeometry x="4809" y="208.75" width="150" height="80" as="geometry" />
        </mxCell>
        <mxCell id="3I1n53TY_OWZ9Fxeo7li-184" value="" style="shape=image;verticalLabelPosition=bottom;labelBackgroundColor=default;verticalAlign=top;aspect=fixed;imageAspect=0;image=https://butecotecnologico.com.br/kubernetes-explicado/k8s-logo.png;" parent="1" vertex="1">
          <mxGeometry x="5730" y="260" width="41" height="41" as="geometry" />
        </mxCell>
        <mxCell id="3I1n53TY_OWZ9Fxeo7li-185" value="" style="sketch=0;aspect=fixed;html=1;points=[];align=center;image;fontSize=12;image=img/lib/mscae/Azure_Repos.svg;" parent="1" vertex="1">
          <mxGeometry x="5737" y="220" width="27" height="30" as="geometry" />
        </mxCell>
        <mxCell id="3I1n53TY_OWZ9Fxeo7li-186" value="" style="shape=image;verticalLabelPosition=bottom;labelBackgroundColor=default;verticalAlign=top;aspect=fixed;imageAspect=0;image=https://docs.greatexpectations.io/img/gx-logo.svg;" parent="1" vertex="1">
          <mxGeometry x="5730" y="180" width="75.19" height="20" as="geometry" />
        </mxCell>
        <mxCell id="3I1n53TY_OWZ9Fxeo7li-187" value="MLE" style="shape=umlActor;verticalLabelPosition=bottom;verticalAlign=top;html=1;outlineConnect=0;" parent="1" vertex="1">
          <mxGeometry x="6035.5" y="270" width="30" height="60" as="geometry" />
        </mxCell>
        <mxCell id="3I1n53TY_OWZ9Fxeo7li-188" value="Legenda" style="text;html=1;align=center;verticalAlign=middle;resizable=0;points=[];autosize=1;strokeColor=none;fillColor=none;" parent="1" vertex="1">
          <mxGeometry x="15" y="875" width="70" height="30" as="geometry" />
        </mxCell>
        <mxCell id="3I1n53TY_OWZ9Fxeo7li-189" value="DSC" style="shape=umlActor;verticalLabelPosition=bottom;verticalAlign=top;html=1;outlineConnect=0;" parent="1" vertex="1">
          <mxGeometry x="90" y="661" width="30" height="60" as="geometry" />
        </mxCell>
        <mxCell id="3I1n53TY_OWZ9Fxeo7li-190" value="Cientista de Dados&amp;nbsp;" style="text;html=1;align=center;verticalAlign=middle;resizable=0;points=[];autosize=1;strokeColor=none;fillColor=none;" parent="1" vertex="1">
          <mxGeometry x="110" y="935" width="130" height="30" as="geometry" />
        </mxCell>
        <mxCell id="3I1n53TY_OWZ9Fxeo7li-191" value="MLE" style="shape=umlActor;verticalLabelPosition=bottom;verticalAlign=top;html=1;outlineConnect=0;" parent="1" vertex="1">
          <mxGeometry x="35" y="1040" width="30" height="60" as="geometry" />
        </mxCell>
        <mxCell id="3I1n53TY_OWZ9Fxeo7li-192" value="Engenheiro de Machine Learning&amp;nbsp;" style="text;html=1;align=center;verticalAlign=middle;resizable=0;points=[];autosize=1;strokeColor=none;fillColor=none;" parent="1" vertex="1">
          <mxGeometry x="75" y="1055" width="200" height="30" as="geometry" />
        </mxCell>
        <mxCell id="3I1n53TY_OWZ9Fxeo7li-193" value="" style="aspect=fixed;html=1;points=[];align=center;image;fontSize=12;image=img/lib/azure2/analytics/Azure_Databricks.svg;" parent="1" vertex="1">
          <mxGeometry x="24.029999999999973" y="1170" width="36.94" height="40" as="geometry" />
        </mxCell>
        <mxCell id="3I1n53TY_OWZ9Fxeo7li-194" value="Azure Databricks" style="text;html=1;align=center;verticalAlign=middle;resizable=0;points=[];autosize=1;strokeColor=none;fillColor=none;" parent="1" vertex="1">
          <mxGeometry x="120" y="1175" width="110" height="30" as="geometry" />
        </mxCell>
        <mxCell id="3I1n53TY_OWZ9Fxeo7li-195" value="" style="sketch=0;aspect=fixed;html=1;points=[];align=center;image;fontSize=12;image=img/lib/mscae/Azure_Repos.svg;" parent="1" vertex="1">
          <mxGeometry x="397" y="925" width="36" height="40" as="geometry" />
        </mxCell>
        <mxCell id="3I1n53TY_OWZ9Fxeo7li-196" value="Azure Repos" style="text;html=1;align=center;verticalAlign=middle;resizable=0;points=[];autosize=1;strokeColor=none;fillColor=none;" parent="1" vertex="1">
          <mxGeometry x="510" y="930" width="90" height="30" as="geometry" />
        </mxCell>
        <mxCell id="3I1n53TY_OWZ9Fxeo7li-197" value="" style="shape=image;verticalLabelPosition=bottom;labelBackgroundColor=default;verticalAlign=top;aspect=fixed;imageAspect=0;image=https://docs.greatexpectations.io/img/gx-logo.svg;" parent="1" vertex="1">
          <mxGeometry x="370" y="1055" width="112.79" height="30" as="geometry" />
        </mxCell>
        <mxCell id="3I1n53TY_OWZ9Fxeo7li-198" value="GE - DataQuality" style="text;html=1;align=center;verticalAlign=middle;resizable=0;points=[];autosize=1;strokeColor=none;fillColor=none;" parent="1" vertex="1">
          <mxGeometry x="500" y="1055" width="110" height="30" as="geometry" />
        </mxCell>
        <mxCell id="3I1n53TY_OWZ9Fxeo7li-199" value="" style="shape=image;verticalLabelPosition=bottom;labelBackgroundColor=default;verticalAlign=top;aspect=fixed;imageAspect=0;image=https://www.databricks.com/wp-content/uploads/2021/06/MLflow-logo-pos-TM-1.png;" parent="1" vertex="1">
          <mxGeometry x="362" y="1165" width="103.48" height="40" as="geometry" />
        </mxCell>
        <mxCell id="3I1n53TY_OWZ9Fxeo7li-200" value="MLF - Gerencia ML" style="text;html=1;align=center;verticalAlign=middle;resizable=0;points=[];autosize=1;strokeColor=none;fillColor=none;" parent="1" vertex="1">
          <mxGeometry x="490" y="1165" width="130" height="30" as="geometry" />
        </mxCell>
        <mxCell id="3I1n53TY_OWZ9Fxeo7li-201" value="" style="sketch=0;aspect=fixed;html=1;points=[];align=center;image;fontSize=12;image=img/lib/mscae/Machine_Learning_Service_Workspaces.svg;" parent="1" vertex="1">
          <mxGeometry x="28.699999999999818" y="1280" width="27.6" height="30" as="geometry" />
        </mxCell>
        <mxCell id="3I1n53TY_OWZ9Fxeo7li-202" value="Azure ML" style="text;html=1;align=center;verticalAlign=middle;resizable=0;points=[];autosize=1;strokeColor=none;fillColor=none;" parent="1" vertex="1">
          <mxGeometry x="140" y="1280" width="70" height="30" as="geometry" />
        </mxCell>
        <mxCell id="3I1n53TY_OWZ9Fxeo7li-203" value="" style="shape=image;verticalLabelPosition=bottom;labelBackgroundColor=default;verticalAlign=top;aspect=fixed;imageAspect=0;image=https://upload.wikimedia.org/wikipedia/commons/b/ba/Pytest_logo.svg;" parent="1" vertex="1">
          <mxGeometry x="389" y="1270" width="50" height="50" as="geometry" />
        </mxCell>
        <mxCell id="3I1n53TY_OWZ9Fxeo7li-204" value="PyTest&amp;nbsp;" style="text;html=1;align=center;verticalAlign=middle;resizable=0;points=[];autosize=1;strokeColor=none;fillColor=none;" parent="1" vertex="1">
          <mxGeometry x="525" y="1280" width="60" height="30" as="geometry" />
        </mxCell>
        <mxCell id="3I1n53TY_OWZ9Fxeo7li-205" value="" style="shape=image;verticalLabelPosition=bottom;labelBackgroundColor=#ffffff;verticalAlign=top;aspect=fixed;imageAspect=0;image=data:image/svg+xml,PHN2ZyB4bWxuczpjYz0iaHR0cDovL2NyZWF0aXZlY29tbW9ucy5vcmcvbnMjIiB4bWxuczpkYz0iaHR0cDovL3B1cmwub3JnL2RjL2VsZW1lbnRzLzEuMS8iIHhtbG5zOmlua3NjYXBlPSJodHRwOi8vd3d3Lmlua3NjYXBlLm9yZy9uYW1lc3BhY2VzL2lua3NjYXBlIiB4bWxuczpyZGY9Imh0dHA6Ly93d3cudzMub3JnLzE5OTkvMDIvMjItcmRmLXN5bnRheC1ucyMiIHhtbG5zOnNvZGlwb2RpPSJodHRwOi8vc29kaXBvZGkuc291cmNlZm9yZ2UubmV0L0RURC9zb2RpcG9kaS0wLmR0ZCIgeG1sbnM6c3ZnPSJodHRwOi8vd3d3LnczLm9yZy8yMDAwL3N2ZyIgeG1sbnM9Imh0dHA6Ly93d3cudzMub3JnLzIwMDAvc3ZnIiB4bWxuczp4bGluaz0iaHR0cDovL3d3dy53My5vcmcvMTk5OS94bGluayIgdmVyc2lvbj0iMS4xIiBpZD0ic3ZnODA0NzkiIGlua3NjYXBlOnZlcnNpb249IjAuOTIuMyAoMjQwNTU0NiwgMjAxOC0wMy0xMSkiIHNvZGlwb2RpOmRvY25hbWU9ImdpdC5zdmciIHg9IjBweCIgeT0iMHB4IiB2aWV3Qm94PSIwIDAgMzAuMzcgMzAuMzciIHN0eWxlPSJlbmFibGUtYmFja2dyb3VuZDpuZXcgMCAwIDMwLjM3IDMwLjM3OyIgeG1sOnNwYWNlPSJwcmVzZXJ2ZSI+JiN4YTs8c29kaXBvZGk6bmFtZWR2aWV3IGJvcmRlcmNvbG9yPSIjNjY2NjY2IiBib3JkZXJvcGFjaXR5PSIxIiBmaXQtbWFyZ2luLWJvdHRvbT0iMCIgZml0LW1hcmdpbi1sZWZ0PSIwIiBmaXQtbWFyZ2luLXJpZ2h0PSIwIiBmaXQtbWFyZ2luLXRvcD0iMCIgZ3JpZHRvbGVyYW5jZT0iMTAiIGd1aWRldG9sZXJhbmNlPSIxMCIgaWQ9Im5hbWVkdmlldzgwNDgxIiBpbmtzY2FwZTpjdXJyZW50LWxheWVyPSJzdmc4MDQ3OSIgaW5rc2NhcGU6Y3g9IjI0LjU0MDUyIiBpbmtzY2FwZTpjeT0iLTcuOTc4NjcxNyIgaW5rc2NhcGU6cGFnZW9wYWNpdHk9IjAiIGlua3NjYXBlOnBhZ2VzaGFkb3c9IjIiIGlua3NjYXBlOndpbmRvdy1oZWlnaHQ9IjEwMTciIGlua3NjYXBlOndpbmRvdy1tYXhpbWl6ZWQ9IjEiIGlua3NjYXBlOndpbmRvdy13aWR0aD0iMTkyMCIgaW5rc2NhcGU6d2luZG93LXg9Ii04IiBpbmtzY2FwZTp3aW5kb3cteT0iLTgiIGlua3NjYXBlOnpvb209IjYuOTUyMzU1MSIgb2JqZWN0dG9sZXJhbmNlPSIxMCIgcGFnZWNvbG9yPSIjZmZmZmZmIiBzaG93Z3JpZD0iZmFsc2UiPiYjeGE7CTwvc29kaXBvZGk6bmFtZWR2aWV3PiYjeGE7PGcgaWQ9Imc4MDQ3NyIgdHJhbnNmb3JtPSJ0cmFuc2xhdGUoLTIwLjgxNTYsLTAuNzQyMikiPiYjeGE7CTx0aXRsZSBpZD0idGl0bGU4MDQ2NyI+UGFnZS0xPC90aXRsZT4mI3hhOwk8ZyBpZD0iZ3JvdXA0MjQ4LTEiIHRyYW5zZm9ybT0idHJhbnNsYXRlKDIwLjYzMDYsLTM0Ljg0MjgpIj4mI3hhOwkJPHRpdGxlIGlkPSJ0aXRsZTgwNDY5Ij5HaXQ8L3RpdGxlPiYjeGE7CQk8ZyBpZD0ic2hhcGU0MjQ5LTIiPiYjeGE7CQkJPHRpdGxlIGlkPSJ0aXRsZTgwNDcxIj5TaGVldC40MjQ5PC90aXRsZT4mI3hhOwkJCTxwYXRoIGlkPSJwYXRoODA0NzMiIGlua3NjYXBlOmNvbm5lY3Rvci1jdXJ2YXR1cmU9IjAiIHN0eWxlPSJmaWxsOiNGNTREMjc7IiBkPSJNMzAsNDkuNDRsLTEzLjMtMTMuMyAgICAgYy0wLjc0LTAuNzQtMS45Mi0wLjc0LTIuNjYsMGwtMi44NSwyLjg1bDMuNDMsMy40M2MwLjI2LTAuMSwwLjUzLTAuMTYsMC44NC0wLjE2YzEuMjcsMCwyLjMsMS4wMywyLjMsMi4zMiAgICAgYzAsMC4yOS0wLjA1LDAuNTgtMC4xNSwwLjg0bDMuMzYsMy4zNmMwLjI1LTAuMTEsMC41NS0wLjE3LDAuODMtMC4xN2MxLjI4LDAsMi4zMSwxLjA1LDIuMzEsMi4zMmMwLDEuMjktMS4wMywyLjMxLTIuMzEsMi4zMSAgICAgYy0xLjI3LDAtMi4zMS0xLjAyLTIuMzEtMi4zMWMwLTAuMjksMC4wNi0wLjU4LDAuMTYtMC44NGwtMy4xNy0zLjE3djguMjZjMC43NywwLjM5LDEuMjcsMS4xNywxLjI3LDIuMDYgICAgIGMwLDEuMjktMS4wMiwyLjMyLTIuMjksMi4zMmMtMS4yOSwwLTIuMzItMS4wMy0yLjMyLTIuMzJjMC0wLjk4LDAuNjEtMS44MiwxLjQ5LTIuMTV2LTguMzZjLTAuODgtMC4zMy0xLjQ5LTEuMTctMS40OS0yLjE1ICAgICBjMC0wLjMsMC4wNi0wLjU4LDAuMTYtMC44NWwtMy40My0zLjQybC05LjEzLDkuMTNDMCw1MC4xOCwwLDUxLjM2LDAuNzQsNTIuMDlsMTMuMywxMy4zMWMwLjczLDAuNzQsMS45MiwwLjc0LDIuNjYsMEwzMCw1Mi4wOSAgICAgQzMwLjc0LDUxLjM2LDMwLjc0LDUwLjE4LDMwLDQ5LjQ0eiIvPiYjeGE7CQk8L2c+JiN4YTsJPC9nPiYjeGE7PC9nPiYjeGE7PC9zdmc+;" parent="1" vertex="1">
          <mxGeometry x="27.5" y="1380" width="30" height="30" as="geometry" />
        </mxCell>
        <mxCell id="3I1n53TY_OWZ9Fxeo7li-206" value="" style="shape=image;verticalLabelPosition=bottom;labelBackgroundColor=default;verticalAlign=top;aspect=fixed;imageAspect=0;image=https://butecotecnologico.com.br/kubernetes-explicado/k8s-logo.png;" parent="1" vertex="1">
          <mxGeometry x="392" y="1374.5" width="41" height="41" as="geometry" />
        </mxCell>
        <mxCell id="3I1n53TY_OWZ9Fxeo7li-207" value="Git" style="text;html=1;align=center;verticalAlign=middle;resizable=0;points=[];autosize=1;strokeColor=none;fillColor=none;" parent="1" vertex="1">
          <mxGeometry x="155" y="1380" width="40" height="30" as="geometry" />
        </mxCell>
        <mxCell id="3I1n53TY_OWZ9Fxeo7li-208" value="Kubernets" style="text;html=1;align=center;verticalAlign=middle;resizable=0;points=[];autosize=1;strokeColor=none;fillColor=none;" parent="1" vertex="1">
          <mxGeometry x="515" y="1380" width="80" height="30" as="geometry" />
        </mxCell>
        <mxCell id="3I1n53TY_OWZ9Fxeo7li-209" value="BA" style="shape=umlActor;verticalLabelPosition=bottom;verticalAlign=top;html=1;outlineConnect=0;fillColor=#fff2cc;strokeColor=#d6b656;" parent="1" vertex="1">
          <mxGeometry x="27.5" y="1500" width="30" height="60" as="geometry" />
        </mxCell>
        <mxCell id="3I1n53TY_OWZ9Fxeo7li-210" value="Analista de NegÃ³cios&amp;nbsp;" style="text;html=1;align=center;verticalAlign=middle;resizable=0;points=[];autosize=1;strokeColor=none;fillColor=none;" parent="1" vertex="1">
          <mxGeometry x="105" y="1500" width="140" height="30" as="geometry" />
        </mxCell>
        <mxCell id="3I1n53TY_OWZ9Fxeo7li-211" value="DE" style="shape=umlActor;verticalLabelPosition=bottom;verticalAlign=top;html=1;outlineConnect=0;fillColor=#e1d5e7;strokeColor=#9673a6;" parent="1" vertex="1">
          <mxGeometry x="403" y="1500" width="30" height="60" as="geometry" />
        </mxCell>
        <mxCell id="3I1n53TY_OWZ9Fxeo7li-212" value="Engenheiro de Dados" style="text;html=1;align=center;verticalAlign=middle;resizable=0;points=[];autosize=1;strokeColor=none;fillColor=none;" parent="1" vertex="1">
          <mxGeometry x="490" y="1500" width="140" height="30" as="geometry" />
        </mxCell>
        <mxCell id="3I1n53TY_OWZ9Fxeo7li-217" value="" style="shape=image;verticalLabelPosition=bottom;labelBackgroundColor=default;verticalAlign=top;aspect=fixed;imageAspect=0;image=data:image/png,iVBORw0KGgoAAAANSUhEUgAAAggAAAEqCAYAAABwcKjDAAAAAXNSR0IArs4c6QAAIABJREFUeF7snQecFdXZxv8zc9sWdpfeRUSUoih2wWhijBoL1iSmWYMoKhaI2LvYe2/RaIwauyZq/GLvBVBBBFS6AtJZttwyM9/vPTNzd3b33i3sAgucSdZd7p055Tlnzvuc97zFKCkpcdGXRkAjoBHQCGgENAIagRAChiYIej5oBDQCGgGNgEZAI1AXAU0Q9JzQCGgENAIaAY2ARqAeApog6EmhEdAIaAQ0AhoBjUB9grDDDju4t956q4ZGI6AR0AhoBDQCGgGNQBYBY/jw4e57772HYRgaFo2ARkAjoBHQCGgENAIKAU0Q9ETQCGgENAIaAY2ARqD+EYPWIOhZoRHQCGgENAIaAY1AXQS0BkHPCY2ARkAjoBHQCGgEtAZBzwGNgEZAI6AR0AhoBBpHQGsQGsdI36ER0AhoBDQCGoHNDgFNEDa7Idcd1ghoBDQCGgGNQOMIaILQOEb6Do2ARkAjoBHQCGx2CGiCsNkNue6wRqA2Aq7r6jgoelJoBDQC9RDQBEFPCo3AZo6AEAS5dLC0zXwi6O5rBOogoAmCnhIagc0RAeEErgMrluOuKYceW2BYJpgOOC44eD8SYNWS3yYgP/6lA69ujrNG93kzQ0AThM1swHV3NQIKARH+q9fw4Wkj+e6dNzl20jTcslIMN0N62Q+Uz5hLprySRPsSSgZvBSWdwI2DZeDaDg4ulhAKRRQM/7fGViOgEdiUENAEYVMaTd0XjUBTEXBEe7CaqSefwLx33uSgKTOABD88dD+L3/k30UVLqFy+imhRgoJttqTvmeeS2GNvKErgZjIYok1IOxBxIB4XdYSvbtCqhaYOgb5PI9DWEdAEoa2PkG6fRmBdICAEYeVKpo48iXlvv81Bk7/i61vuZ9mDD7C1sxyjOq0OFKLxKGlcftp6IL0vvITigVthxaJk1lQz6/OvKNhmK3r9/GcY6giihhxoe4Z1MWi6TI3A+kVAE4T1i7euTSPQNhAQgrBqBVNGjmTeW29z8KSJLL7mdlY++BBlZhUYDq5keHXBdA2SkRhLXZvSbfpSUNaOisVLWbyknMH/+AelB+5PXUNHTRDaxjDrVmgEWoKAJggtQU8/qxHYWBFwMrB6OZNHncr8N99ixKefseS6G1jxt79RKpoDx8VwvYMDxzTANDCiESozSYyIpWwZKxNFdH/qaQr321cThFabB55Hyfo16gisUfXxUKsN4yZSkCYIm8hA6m5oBJqFgOsRhEknn8q8N9/h8E8/Ycn117HiwYdpj6VMCyKOi2PID2RwiMaipFJp4hEL23FYGo3S/fnnKN7/gDZNEES7YQvRMQxFeCIS90H92xPE8st0UYTIOyVRtEj9dgwLBwNLvg++MsD2lCtZy4vs946jMDNMU5Qw3h1SsPxtmtiilfGvkE+IKkcuU1xOXWmtPOLimhaG61cmv1wX0y9DehF8Je2X8qRdhmqxrZ73Dn4sMSn1aYejvFfk3+KsYkpbpXbXPyLym6d6L7xQvpLmS92+LapyatGcolmv28Z6syYIG+vI6XZrBFqCgBCE8uVMGjmaeW++zeGff8KSa25i9YN/o0yEUFZk+YLTFxjhKlfE43R5/lmK9v9VmyUI6uhDyWcbV7QmZDBdCzcSJ60Ig0FEPDnVUUrQO/lDhLSLY1rYmLW/9wmCIh0+pxAyZbgOZiqFE4tgWBZGRiSqX7BULQTBChEEn2EoIe9/bKn2ppUQz7gORiSBk05jGRH1fMaxiZqesFeER55zvfZLVWlLvFKFIKTJYBMRWuNGceR5aau0UbAggqPG2faIkSIQ4ubqlee4vqeKqtNQ/EHIh5QSkbrkiEqIimiX9LXJIqAJwiY7tLpjGoEGEFAEYYVPEN7i8M8/VQSh/MEHKSPtaw683XXEMbPCMxBkIkSWxwvo+tyzFB24v6oosENQgii0U96Q4yDdJOPgViwlvWQeFCSIFLTHKiwmU1SkBKPqpZKSIuQN70d1KNTyQA4q1YP3nWBhm8FO28W009jVInBtrOICsC1P7RA8I7LadL2duBKyvjC2PGHv7eFdRDQrgqYYiIsjwlhIQiICVkxpGDztgYkphSuFg9dAR6pU7RZyk9VLZDviESapwyCSrsKuriBSUIgRTXhESDQPrgW2i5OsgHgCIlEs22ubarSZ8RsfEb1SODrGhhxqXfc6QEAThHUAqi5SI9DmEZAgSUqDIEcMIYLw0EO0NxwcO41lWpi+d4IIFlcEVehSBOHpf1F08K/bLEGgvIofX3iZOS8+yQ8/zMSwoE+XLel92NF0PewIjMJ2OLKrt0SkVuE6USwjqsStLTp42VcbHmGQHbcIa6XiN0y1gZZdddrNYBoOkWQVL543gR7bbc/uJ/xB3S8YeuTJU+1L/QHzcBXbMsjYGaxITN1j+Pd70t7FrE4z8YH7yUQi7H7SH/zAVVGQ+wzTIw+KkImuwMR1hDyIssFSRES64CpjEtFkyP02luERAfubGTw3YQKHXXI+sS22ZOXs2STal5Lo0pPlM+Yw85GH2fXisWQKS4g5EvNCCEIGwwgIQtSLjZHr0oqFNr8ENKWBmiA0BSV9j0ZgU0NAEYQVTB55CvPfeIsRn3/CsmtvZunDj1AcjZLMpJUK2bFtRFwWGgZWxnN9DK7l8Thdn3qSokMPblMEIexRUf7Z53z+x2PZcfRfiA4dDBGDqtff4b3n/sOBf/s7hf22wW0XwyGF6VaAE8WIFHsqdjmfNxxMsSewHVw5mpCjBMsgY9ikZP9sxcFJERFbgXSa5U+8Qqx3HwqG7YQREdsFB1JVuL6RghEthEy1h1c6A4li3KoMRiLqCXYrktVcSJiJ6Jpq3jnnHOx2Bex74TgokGBVMe8oQIJWyd+o8wuMlI1rK8MCjIjcEyFdnSQidQsJymQ8m4ZIFDIV8N7HPHHKaRzzr39g9unHg8f8kZ2OPIydjjuR5d/MYs555zH00XtwS9opmwricsDgeNohxZ2iol/SBGFTWxtC/dEEYRMeXN01jUBeBOoShImfsui6W5j3xFNE+25BZZ9OFHVpT9WqNZjT5tJu7jw6VVYp48VgD7ysIE6PJ/5J8aGHtA2C4GvUXTHu8/NLrH79LX68/EoGPv84RrsScBNklizlzUsvZuiee9D5T8cqwedWVrDos0+wV67B6tiBjgO2Ita1A06yimXfTKNj514snbeIiBkhYzmUDuhFrKSMinSG4ipYOGs2pb27UvHdbKIdutJuq75YVRWsWbiA1bO/x06vobBXHzpu2Q9KCiBtUzl/OUu/mYeZdijq24uygX3IJETge3YRmQxEK6p4Z+wYDNNgu9/9gTVrUliJInoM6YfRpQhEY5CBVVNmsmbOfIyCQjoM3IpEry4SxEKVVD13Pku//U6F1LY6dqTzdgOJtiuA99/nhZNHc/gz/2RVJsbHJ4+h1/A96XHyybB6JUsuvpj+N93G/J8W46bKKdu6F6Xb9gczAXbU02aEGWN4smkNwiax+GiCsEkMo+6ERqCZCCiCsJLJI0d5GoSvv+L7l18lYUXpufvOIAJGpV8wsWfM5cennmDJo4/RoTyDmbRZY2ZY0r2MHR97nNK9fuYThJojCMPTpa+/K3ApUMaUchziquPyVe+8y9STTmDYReMx9/4FdOwB0QgVC+eTKCrE6tQDFnmEYVXFCvr07cvCOd9T2rUDwy6/Elas5JUxY+i39UAmTZ/Bbvv8nO8//pCtjj2S/r/5DU4mgvX2+zx9w/Xsd9XFfHT1lRTtuAf7XHApVV99ytOXX8GWfbbEJcmCadPY+4/H0vuYY1jx3ge8fe9DlHTtQ1Esxtxvv+GXfzqGjn/8La6pTAtxbBerspKPzjqT1ZO+wezTn8JevflxxjTadythv1smQCLCgif+xeTn/0OPrbalfOVqqsvLOfDsU2HYTvDlNF678jqswnZ06NGN2d9Oo+fA/ux58QXwyec8e+pojvrno3z96ptM//uTFJS0p+tJx7H17jvx7Z+OJz1oZ6q7dGfVqkUkl83l4OuuoXDobphZr4c8TEAThPU399dhTZogrENwddEagTaLgCIIq7wjhjffZMTM6VDcThmkhQIi+uoCFypXwtSvmX/TfSz+bi7ttujGtqOPhb1/7qnJpbywanJDEATfpcA2Pct8U4z3fpjHN+f/lWlvfUB1LEGfXXdnxxGHUrznrtCrpzpDnzPhRpa99Dw7P/M4tC+Fmd8wcezZ7HDlBCKdu/LOKaNZbZgc+veHobiQeXfex5zyZew94Wpw4sw696/M+W46+/7zET466nBKdt+HwZdcw2fH/47EgAFsf9bZUFzA+xdcwAfPPsP4jybx7B+O4ahDDoVjfgeWycJ//5sp99zL/m+8Bh07q6257TpYlRV8OmYcidmLGXLrPdClE0z9jEeOPYbjn30COnXgqQN/ze+uvg6G7w3VGWZeMYFZX3zGge/+mym33M6Cz7/i17ffAUVxMpM/5a2LLuJXb74Jk7/i6dGjOfrxBzH6bM0LBx/NoEMPY5txY1gzfRpTRxzFbv98FnO7IZCs5N2D96H9737HoLHjfYcHz6Az56UJQpt99ZvTME0QmoOWvlcjsKkgECYIb7zBiClfQPtOIGfgkSAJk3RWzPRdyKRw0hll5y6fOZKoyUlixOJKy1Db5F/MFzaMBsExHGzDc1EUl0HTTqmkVCs+/pLZX05l9dx5RKZOo7JqDXtffB7x7bfjk7PHsnW79qzafXcVDMpavZKf3vgvxTsMYuDRv+H5MWdy2PVXYe6xp+r7oo8+57+XXMVxDzxEOmPzn7+cxP6nnEThESP44MAD6Tj8Zwz467k8t8du/OLSi2h/zDFgxrG/m8XszyZSVtqRD8edzdBRo6gsakcyWU7x4oVMf+E5DnruSeg/EIyIF2OhIsm754yjIJpg10suVwTFXTSPfxz+a/58xVV8O2sBX915H7uMHk11IqaMEhOTJ/PZa//mtx++DoXtyXw3i0Urf2L14h+IfjWN2a/8j/0//gS++IJnTz+Vo57+B3TsxMMjjma73xzFrmNOY9XX0/jhrHMY+MKLGGWdoLyCb44agbvvrxh0/vm+O6WBKQEScpEBTRA2iZVCE4RNYhh1JzQCzUVANAirmfyXUSx44w0OnfoFlHbw3NqUtXqdFd411Lm+5xLo/e0FAVIm+vWExIYgCF6LpI2Ocm0U979VX31JxDQo7tsPCopgTSXOooV8fccdZKZNYYe7b+arCy+m8/KVLN66P3YsTrSqCoMUsT12ZuAeP+eF08dx+B03wk5DVN8zS1fy+sjTOejgESwoLmLSI/cz4qH7oKyMDw4+hNJddmW7U0bx3C9/yZF33op98IFYViFUp6G6mgVvvsuH485i2B67MSsWJ2kaFJppqtwU+91wKxR3VgaGbsTFUDYI47CKCtnriqugoAB3/lwe/dXPOe6a65j4+RTmPfMsQ4b/jPligJiIUJqpJB2BXf96LmveeZdPH32cVfEium3bl37tivjw2Wc5/M2PYOoU/jX6Lxz97D8wu/XgoRFHsf0RR7Db6NGsmvEtK84/jz5P/BOjU2eoqGL2EUeS3vsXbHP+edgRmSaGCsOdvTRRaO5L2Obv1wShzQ+RbqBGoOUIePZ7voBXf+chCIkC77jAX+yz8QxUAV4kQnVlN47hYAHhduazXmt5X3KVIKcLwSGHCjYkfvtJlzcvvYLSBbPY6YH7IRbDtcUZMMm0Sy5h2asv87P/vsAHp53JLkN3J37KSEhEoaqSqu9nYm2xJbElFbx25nkceP11uLsOwbUMzLTN9Muuwn71VYxf7EtJr470GnUCODHe/vWhlO62K0PHn8u/hu7IITdeS+ERh4JZQNXUr6mcPJl05158etH5jPjbPdBvS8TKML1kMZUrl1Oy/S640XYqmJMTczHLq3h/7DicsgL2vvQKSBTA/Lk8tt9+/PnaG5g+dz7fPflPDnn8MejUSUV7qpo3m9SKFZRuPYB3fvtbdthmCGWXXw3xKBWf/B/vXHoeB73yvjpieGn8WRz6r0cwevXiwQMPY6cRR7LTaaNZNWkiK66+ShEEt1MnjMoq5h1+NKm9f0H/88Z7cZV8N01NENbNnG4LpWqC0BZGQbdBI7AuEfBzKrhe7N9AvmOsXs3kkSez4I3/cejUr6CsPcSFIHgagVrBjnyNgQQHVEF2ahmw59o6bhiCoFwFRdORcZT6u/yD9/nsjNPp9Mc/M3D/g3ATUZZN+YLP/nY3Q/fZjd6nj2L2g08w9fHn+dndt1O2ZQ+WfvwOn912O7tffwsdEu14+Yxz+PX1t2LtvKNSrUdsB+e9D3j+yMPZaruh9L/pMkp22A4yMf57yBGU7DmMPcefx4wzTmORmWbYxRdgV1bz0cWXEEk77HnDnbx+2in0GdSPweeeCaT58Pa7cGYvYK9H7od4Oy/6YczCXJ3kg3F/JVNayD6XXOYRmB9m88ABhzHypluo7taV147/M7sfdwzd//QbKpb8xJuXXUe/nn0YdOG5vHvMifTYsj9bX3EpqUU/8emd17Lqkzc5+MlXYHk5T4w5hd899xhm717cdcBh7LLrz9h93JmsWDSfBZdcznaPP4LTXghCkulH/R722ZtBfx1XM4vyRVLURwzr8o1eb2VrgrDeoNYVaQQ2AAIh637HlBj8Xpx/icBnrFjD1NNHMv21/3DkzG9xy4qwTAl8E8txxOC1vTGNck0P1y9BCLIneI30cxBIbKLqVcx9+gkeO/dyupV0x3BM3LjL0KP3Y+eRx2D03BK3oprpNz/Aa/98CctxsOMZ9h8/ikG/PZzUgqU8cMZ4fj/hRjpsv72XUkFiFGXSTDhwBNt378Mht12N0b4AknDDQUcxZP8DOWD8GNJz5/Pv8WNZOHUK8UwVnQYO5tDb7sDs1pnUd9/zzJnnsHTuT6TTGXr278dh119NYuA2uFYCU9oZkyMGl1cuuJRMaTEjzh8rvIGq2d9xxRF/5qJ7bqd4+K6s/Ogz/j1+DJUrF7Ew7bDHL37NAVddq44jKl55lTvP+iuxsi6sspOcNuoE3nrpBRbGijl53F+5cdwZ/PW5x0j06c3Uvz3BMxPuZI8T/sAOhx/KJxOuY8Rj92IkiqDa4d9/Po32e+7KXmeM9GI7+8dNOWe1Jggb4GVv/So1QWh9THWJGoE2gYAfcRfDjwngxe4XqSkC1MBYspLPzxjJkomfcsBnn+OUFihiYBkFKipfja5hbbrTRiSEk4bkGlheDd8t8GIK9egMvdtDIuNFUUw7mNUWzFkKS5dDn27Qox12VIwchQxEIFYIpkQOFJKVIeM4RMRAL+VAgakMOw3HhkwUN+1CTKIapjHXlMO333gCtU8/aN8Rx3Iw7AzGygqYOU+FNWbrvrglCZyCAhWASLJluqbkdpAEC2JP4YAEdLLkbxtzxRooTijCIIkSjMUL4Pvp0L4z9BuAHS3EFDsGuwpz3g/w43IY3F8dZ7C60vNWEY1RdTlOpyIMsTtJORhLKqEwAe3EZiKJnTAxYwmVrclYakPcgmJJ+ODZqXhpr+pfbWT012bi6mdCCGiCoKeDRmATRSAw2lMH8q7kU5Bsgn7mwnQGZ/4cJp8xhm07dKL45htwywpwIhFMSwLstFQD0DZEhIqH4MVJBglLrFQAXmhlYQvi8SA2FxHJeCgwSWhpCacci1NdVUk0HsOSm/2Q0yoHg5NWLogq4rIfclnFXpBESEYUVwwkfUNOMeo0VQRDcUyIqEiGniGlbw+SkbLSGEI+TGVeiaHGShIkSfTDNEY0CqkMRixCypVolibKx8Ew1b8l0qXXR+95ieesIiqqENHeLDBTDnaBJH2wVdnSbkU6JOSysJGIPCMJrQwsK6YyQoihqSSKiiiC4EDSVvdJNErhBXLUlMuFIfenm+hLtol3SxOETXyAdfc2bwS8nHyybfasBtKuS9R2MJcsYukF41j5yhu4ZiFlp51K55HHYnTuGvJiaImQb8mzLR2zsOFkYIARKERq8jYrQe2fmXg2mF66pOAzWwIVhc/Ysx4bsr33rSLle5WNUYIz2R5p8OIgq/MYX3lT4xSiygh5hWYzOXreFyrjpPIikTwPnkupiPlA6HpZFKWxwe8AZ6kv7J7q97eW9ab/mfIClVTSvo4oME3x2yJpF5QthySN9ouX2SOPqbTSAbxCEnIMsyYILZ2/bed5TRDazljolmgEWoZAduGuWcGzBMG1MFwLM5OCGdNYeN0NzHnrf2zz60OoWLychTO+Z5s//In2J5+A26UMJF1xvYyMudIb5mvyhiYIIv59ASi/AkmtiEAgoA0l4PykikokiiBUtpxKaHqC2g124tku+ZoIdQwvKhm17fdTPHq+Io4kRFI7eheJzRCR+oPc0BI3QpEHj1yIEPZ4ioPpprwUzEohIHkZ/DTMfrMDjUC2MPWckCA/raQaM88VVV2OaDZ8Qa60R0Y2i6Qkm5S6Yxnve2mDnBwooe93S4xSA7uTgBwEXZV+C5moe2mC0LLXuC09rQlCWxoN3RaNwNoiUGtXKoItcGwUs8SMOl4wU+D+tJjF55/L8nffo8Phv6HLmadhGDZzx51P1UdTKT10BN2vv1gF5DFE7axU6b5BWq3z5sYIQGPfr21Hm/6ctzH2cMgKrYA1+L8zpkHav0tkXVwU5yrNsvesyF2xU1A2eVlyEdJKBBqGLEGQXbehRHxMUjVLZkzDJiJHHFKuNMSykEMNj32ACGH5UQRB4i+4cgwgW/WYl785K6H9zIxK8xFmP55diddV0SLIkYjfY0coCqR8QR6VYkWqS6iIiFdv3Ia095H6W/Enn2PIsyqltVhGePGnai5NEJo+GTfSOzVB2EgHTjdbI5BFIGzCr2S5/4FSVdukjRQRyfS3YBkrx1/G9x+8QeejDqLPlbdBYQzDrcSZOYXvzruGFZ9MoePvj6bfBRfidC5VxxMqX5/aKUt0nFyCv6mfrf8xC3hTPYLgN0WlRK4t87LKgIAQyI7alLvq+v0rDUNYYnoMwrMw8FTxSo8hWSHrNaRmn12jwZCnhSSE2Z5I52CbXhOfol6razUjpEHweUMQ8DB7POCTAO8ooaa08PFBAEvQmvCzXpjHnCYI63+QdY3rDAFNENYZtLpgjcB6QiBYwcNEQckUTzg5RhXG998y69JrWf3W5/T43WF0Hns6Rvc+uJLKmAxuphJz9o/MueU+Fr3wb2J7DGena6+Gft1BwhXLGXtUMg36G+laRKHtEoTWG4Fghx7qa1bqh2tpTalZS00QEuP+2GarXc9hrVsPVF1SG0dAE4Q2PkC6eRqBpiHgq5ltsZIPNrue9TrVq5h5xmksfuX/GPLHEym96DyqSxJE4oVqlysirdIAcbAz5y5izmUTWPb6/xHbeTe2u+l6jJ7tPJu7WE18hNr2CZsDQaiXbqLG7qDWALUmQag78rUTYtV821KPk6bNMH3X5oeAJgib35jrHm+SCIh1mfjpyfm2oYzHxCLemfYVyy+/ltmffk7/44+n05ln4xYX4EbEjc7CEgcHsbkTDzgLzIyDtWwpM664lPIXX6fjDrvT95rxsG0/nGgCQyVmqhNlMSeeG94GYZMc5myn6h6MbNq91b3bMAhogrBhcNe1agRajICYn3n7Vd8sXxEEOcE2ce1qjAWzmXfheUx7839sN/oMep59HkZBISnxx8cgKsl2xChNBeVxVQIeOZaI2BlY9hOLH3yERfc8QHTr3gy6dgJrBg8hUSjRFiO5TRHq7aRb3EVdQF4EwkYHmozpibJuENAEYd3gqkvVCKw7BAKPOlNM4Dwrdc/bzfNWQCL5zZvNjIvOZdH77zJo1PF0HnsebmFnbBxlYS8kIi7R8ZSc8czkXEucIg2MjEvGSRMrX0X5Pffy9b1/I77jYLa78mKig7eDiGR8jKg0z1mS4surwG0wkiPQkrTWa7qkYg6pxbV8W3dzRZesEWgBApogtAA8/ahGYIMg4GuXVXAe+fHzK2SqK5Wbnj17Fj9ceAWLPvucLUYdR9fTz8FoV6aSCNQKB6Cs8n22oZiCqXz+g2CDEg6YlStY/MzrfHfLVfTu1Y7O48+jYI+9cSNx3IICRTbEjiFwAxS3wRRQmIcgeJ5yNhEJDxwE9tEEYYNMI12pRqAxBDRBaAwh/b1GoA0hoIS3n1nRleMERRLEt10iB0t8/6UsGv0Xln78Jb2O/A2lF1+IITH3JUSu0jKEVNNZI/msI5sK7ytmCV4sQHHST2GvWs3Sl1/h26sm0KGkkG1vvw5zxyHYxR0kwgIR1yASkBZT8j3I8/UN56SWjNJdJBUJcdy4ch+UdAgSfdA7KtGXRkAj0FYQ0AShrYyEbodGoAkIeHLY9v3sLZXnRwnYlE1q5vd8d+nFrJn0Af1//wfan3MebkkJRJVxgX/VEIQacRxoEbxbvAj9QhAkJ4BDRsL6lFdT8fRLzLnjNlbGHYZeczGFew7HjRapMM6GVcfVzjdmzJIS8RJU+QmE4FSppFEpM6H6Ia2TujRBaMIE0LdoBNYjApogrEewdVUagdZAQCIj+rHtVHFmOkVq3jxmjDuflRMnMuCUP9PpL3/B7tBNBQ82vQQB3hUK7FPzZ6BB8F0lZaevFAAWEQmjJ89KDoCKKqpf/R/Trr+ayjVL6XfxeLof9nsvPXRBRGU0VNaL6rQipEHIiKWCH2o47WB8+w1TP3mfwccejxsrUAynlnOgtr9rjWmiy9AItBgBTRBaDKEuQCOwjhAIIvqq5ACet4IIdVv928USv8R0msz8Ofxw+ul8N/NrhpxyIp3O/asXCMFNqNTBNVaMjRAE19cdSPmSyU80A1gqXr+kjFYpB1ZVwIcf8fa4M+mSKmeL2x6meOc9oTQBCS90r7RTNALBcYarsga6OMtWUPnUM/xwzTWkO5cx6KH7sLbfGTch2QOzOYpqkhkJa9Au/utoculiNQJ/icYcAAAgAElEQVSNI6AJQuMY6Ts0AhsEgSC8vqjjQdL8CkEIwh07kErC118z7a/nUzV3Lv1OPZGyU07AKWinRDRyr5fXuCYmbk4NgnwfCseo6hNJLy6TlpdCQFIgS+IfsS+oSuJ8/iXfXXI5KxcsYuvRp9Dh2KNxOxaSNmMYKZdITAL92xipali5lGX/9xpLXn6FHz/+kiFbbMHCWTPpOGokPcadj1NS5BlGBpkCw2GJdZDADTL3dKUaAbVqDB8+3H3vvfdyZG7TAGkENAIbEoGaGP3yl2T5czGchJduz06SWTSH2aedScUHk+h71umUjB6F0am9nwTIywngHS2YTXy/Q3l/Q8H2hagYYuzgQjLiYqZtokmTzOSZfD/2DCoWzaHT6SfR+5QToV17cKPKYJJkNcb0r5l09WVUT/xIZf3Z6YIriQ0bzuxxY0kuXMSA997HaF+GExF7h5o0En6+4Rp+syEHQtetEdhMEdAEYTMdeN3tto1A7QQ+XhIfEfhGWuIU2FTP/palZ57F0hnf0/+4EygcO0bZARjxwCAxfKrfwvC/wg187wcxSVBHDWIGUZ3B+HY67447G3f6TAadOprOx/8JigtIfv8tix99gu+efI7iTp1ov99e9P/rmVDWHieSIPXeR8w+8UR6jh1DyfEnQKkQC99+wc9yqMiNqqxtj5VunUZgU0VAE4RNdWR1vzZqBMJ5l5SNoN8bK2ljT/6amVdcTsXXXzPwpJMpPmkkbocCtXGXhIs1RwpZy8SaDINrgYqX+dgLchQIa0eMFh2HiJsi881Mplx6HZXvf8j2Iw6ksnM7Vr/7HvOWLGOrX/6Kbr/9HUVDBuOWluBaEVwJ0DR3MbNOG8mC2dP5+TPPwIDtwIqI72NtA8cWcpu16K5+RCOgEQhWEX3EoOeCRmD9IeAZ6HshkmsEeZ76Q2fxoj8w3RTuD0uYeuIoln06kWHjzyZ2wl+gQwfP11GCIaiACIEkb0WCENrIS1tEjqvIiKlK4pXVMHshK486itSiH1laVkymew+GXH0l7LErdlkHXDeCpUI6+02scFj08D3Mm3ApW55yKl0uuBQ3nYF4BENCQetAi+tvUuqaNAJ5ENAaBD01NALrCYEarYDj2RMITRB7AvEeEEv/cHbfIMhh0Da7msopX7D83EtZPG8+/caeTukfj8Jt1w7TKAQn6u3uVfal1iUIPqdRv1RzXfGgkGAJ4lKRpPzLyay4/nrs/71HtH9/Er//LR2P+Q1O1y7YhkHUiIrrhedhKYJffjIOzFvAt0ceSmXHjmx734PE+/T2iE7E8iNEegGUtCPDepqguhqNQB0ENEHQU0IjsJ4Q8AiCZ11gSpBi8R9MZmDGLKbf+zcG9OkLHdvDtn2ha3tIxL2fuEHqxyVMH3UuS6dPZdhF5xI//g84RXGMaNTLv6DOF5Q1YejgvrYGIaANa9XdUK4FcXn0nCFcMm6ayq++5uPzr2bYfj8ntt8viG3Rwz9OMHEd6aulEkJleYv3JG4qSeauh3nr7tsZOn4MnU84HjtagGFIroakpI3CNSTaor40AhqBDYGAJggbAnVd52aJQI0GQbQHQhBcjJVrmHHVtSz9x7OUFBawwkhRaTpUpVLEC+KUlhbSrltHSsszOJPn0mPYjjinnITRqRNu+zLMjiXEO3fwkifJ7j67TVdRE3JoE1oGvXJHVNzAxVF5IMBMpjCqLYi4EDdBcjhEomD5ol3UDvKIUpi4yl3Si9VoY6zM8PGIwylzytn25X/hdOiMIcGdqFYBmBwjoQlCy4ZMP60RWGsENEFYa+j0gxqB5iGgCIKKCCT/F5dFyHz8MdNPGYXbsSv9Rp7I8kwFFYt+wlpVTcGqVbBwNixfgbtyDat//ImURE2UKAcdO5Hq3p3tLh9P8c/3wnQKlI+g49sgePSg9QlCTY+93IxpJ03EtTAzGRxLQilLrASTiBCE4MoSBEcRGEWMVFtdlTly+Z0PMfPaGxl49bmU/fH3OPEiiR2t4jiYRqx5IOu7NQIagVZDQBOEVoNSF6QRaBwBFazQD0tkVlSx4tYbmXfv3Wx/zwOYew2HAhGscrbvJV/CTXsuho4kajZh5Ur4aTmrp07H6NGJsv32JhMvJJK21Pm946dV9Iz/cxCEVgtj7CduFk2Cf3Qi9ckph1xmONSyIyGYhRx4uRzllxAFCecsGR2tyd8wedRZLKv6iV+9/hLp7r38oFAmpqkjJTU+q/QdGoF1g4AmCOsGV12qRiA3AmKLKHI7ZWPM+p6PjjuGjp07sc3fn4D2HZT1vnyvBHxw7i9eA0qd72JVJzHF2j8aU7r+TMTENiPEMiaGKbtyr9ra3oGhf7U2QVCnDUISPM8MU3VOgjCGghcolwQvGiSuRxJcCeVsRJU1RmRNFdOumkD104+x9fixFJ84EogrHKzgmELPJ42ARmC9I6AJwnqHXFe4eSMg5wquCjK06upL+fyZJ9nhmgl0OvRI3Hgim4ZJGfsHoYeBpGkjZnvFGRfXtlX2RMO0yIhwtixEcaC4QTZvQzi+0LojCNn00+rsROr3iUEuguD6BEEZU0qOiIjye3TSKexZM/nowF/SfpddGXTX/Rjtu+JGTCzxatCXRkAjsEEQ0ARhg8CuK90sEZDYAZKfIJ3GnvE9Xx50AGVDBtL3/nswevcF0897kCN4oOf7IJkRRLMQys4Y1ggoAR1OZLA+hGvozCRQXcjvcCADNdhBbMiASPj+jn5CKsorqbz8Yj781xPs9Y9Hie0+DDsWI1YT+WmznDK60xqBDYmAJggbEn1d92aHgJ2xsSqqmH/LrSy46w62v+h8ikeNgoRkXqwt0ANRH4CU092vrRCEuiNZjyDU0TCE7lepoWzITJ/O18cfS2lJMX2efxYKCjGj8c1ujugOawTaCgKaILSVkdDt2PQR8GWkPeVrZh5/LCssGPbSy7hdumPkUKVv1AShrnNiOAhUnZHOSFSEZDVxLBZffhVLHnmE/rfdQuLgg6CwYNOfF7qHGoE2ioAmCG10YHSzNkEEHBuqkyx94AHmXHU1Q++7E3Pf/aGkFMwan4Og52tHEDY+3NJklO1FImXivvsOE8ecTmTrQQy98zbc3t2bmIly4+u3brFGoK0joAlCWx8h3b6NHAGlQPd+0mmYNZP3jjyaLfsNpNfdt0HXbjiRqLLtq3uEsLkQBMeV+JIulm1ilK9k5rljyfzvA7a6/lriRx9eQxBazQNjI59SuvkagfWEgCYI6wloXc3mhkAg3v3Qx8ITqpJUXHYx3z3zLN3HX0SXE4/HjVleNEIFT34bhCC+QPi2BrT2GxfYkhlSpXo2IFUFX3/JV4ccTfsRR9D7lhtxCmO4poRflm6F/Dg3rl7q1moENjoENEHY6IZMN3ijQECCG4no96ICQcYmOfUb5vzxRKJFBfR97CGM/tuowEYmKeX3X1+HEOppjt1zSDexUUCSt5FepCUvPpQFZsUqFp17IV+/8g77PfYo6WHbQ8QmGuSc0CmgN+7x1q3faBDQBGGjGSrd0I0KAZ8fSOhjtfuvrGLhLTcx+6772Pn88cRP+jNOYZmKW+ARBAkp3EDUwDwEIYzJRis3vdzROIZkqACreg0Vn33EtFFjade9DwNfegLaFeK6BqaEbVYRmTaq2aAbqxHYKBHQBGGjHDbd6LaOQKBAEHlmOQ7unDnMP+4P/BSx2OWpJ7E7d8I145iuEAQbsjkH8sQuCBGEIAxCkCDRw8KLZFjf1LHNI+VHeDBIS44Jia2YqcYoX8qcM89n8evvs8NjD5HYex+cWASVakIThLY+qLp9mwgCmiBsIgOpu9F2EFDKAz+dgqRGjlRUU/HYw0y97CIGXnstJb8/hkwsrvIMmCoFo4RBDLQHDQc3CkhBELy4pteOn55pfQRHak2sxTzRO2HwrDVcTDcDdhL7+Vf5cMy5dDtiBNtefgl07ACupQlCa8Kvy9IINICAJgh6emgEWhkBEXgi7EToWbaD9e23vLTvz+g/aBAD7n0Ao9/WuJIS2XUxJNeAuDAYgc587QiCoWoLZ3BsjU4FhpZN0+eHNRpNe0LaKATBy+Xg/e3135KMjyvW8MGfjqN07hy2+dstxHbbFZBMj2KoEOAUssTYZKw2W2PsdBkagZYjoAlCyzHUJWzOCIR9EX0BJbZ0GcPFdGysNWnW3HETk+++lS3Hjaf3yNFQVFSDmKR3VAShhhjUDY4YhleEqVKzy7G9aeBnUsZSZxqG5wzgZ4sMy0sT0TA4uG4E0WqIMLaFm/gi2btXsjF62aIk26JrZDz7CVfyJnjn/ilpqgtRJZeDOMme2l/a4udqCp0CNKbR8KiB6hfi7ui1yJKsUxWVOF9+wZd/Oo4evzmArpdcjB0vxYxaKl20Z4jgZ7cKp6dqrMrNeb7qvmsEmoGAJgjNAEvfqhGoh0CgHw9JYyWk7SRG5RrK3/+c784fx+pVS9jrnXeI9OwLETFIrHOFhFpt24K6NzqYop4Q5wgv15ESsJ4LoCdcc5EEyfIgAth2o5iOi+E6ZCKeSl8Ig63qN4lIgY6Ba6bByKh0zNheuGPxMEiKTYULcWmDr7VQX3qPhQiCCPymmU16eSq9++W36oliGjbuihXMG30m8yZ/ws/uuxdn6C4YJXFfzyB9FfISaE60C6R+QzUCrYmAJgitiaYuazNDwPGkorjxmwYZkaUS8MdNES1fQvXkL5j1l7NIrlrD4LNOIzb2DIiJijzaIE4NEwQwJW6ALXdllLQW639T7aaVK4C3nXczSgvgGBHRC+AYXrwFaaHK/OiImt6733UMbNUkOf+X70T2VyuCgCUCOI5t2ireoUlUaRks5XmQBCtC2ogoquD1yiMoLbcj9PUgFWtY8vwLzD1/LAUlJWx79wNEdtsD4oXgOsokIe1rTKT+ppKSzWyi6u5qBNYKAU0Q1go2/ZBGwBOoqCA/kDZFCBtYyUoi6dWs/r9XmTP+Ajr/uJKqHXdhqycfh+5dPXJgNnxCHyYIgWIhfOxgyhGBRGVMV0GyEiSQUCSBkXJg9WooKYHqCqiohmgx2JVQWgyRCFSvgHQMnAS41WAXghOBEiE6lRCNgpWAZT9CIgbtSj0jSlWXlFcIkThUVoCEjlZHDfJMBMqKcCNiRChiuulWCLnnkqdVMJw0LPiBb/90DNbEiaQHD6H/RTdh/mIfKBBiJkcl4gdiEM3Wqs8Y9PupEWgNBDRBaA0UdRmbLwKu6NpdqrGIOC5WVZL0J2/z/dln0X3OfKptl/gll9D+lFFQ1M7zVmgGQQjEbNjUAduGdJKVT7/A//77H0ZcfQnxrt1Z8eJrvHjLbRx59604H7zPl0++yLKkQUVmFT2GbMue54zBmTGFp268my3i7XGqVmGYZcytSnPgaX9i8mvPs98RR7GwuD3T7ryZHv37s8MFFxJpF2XarXfww9sf0/mQQxg6bHf+ft54uhhxRYrK0xkKuvXm4EfvIiLkRHQJYkjYwksZL0qsqXQS5947mXvFpcQdk/kFW7DLDdcQPeqXyljRicSwDQurFWhJC5usH9cIbFIIaIKwSQ2n7sy6RKDGzCCwnJfaRIPgkHYjRNdkKP/fu8wZO4ZeVWvIrFpBZrvt6X7PLbhDd/A8FQwxsGu6BiEXQXAcG7Oqmqp7/87HLz/Pzx68k1jPXqy5+2E+vPkO9n78AaKvv87EJ5+mz5+PJ96uhC+e+hfbDOhPpzNPYv7HHxGdMoP0f96i41FHMX+rXmzdpxefTriKYQccyE9du/H95RfRfsut6H311RT37czss/5K5WczKP797+n3q31466zT6TxwEPEdtmeVbVDQqQcDTz4es7DYC/gkDW/JRj4w+BSEnQzWqhV897vfUPDZZ1DQkZUdOtD3/LMpPOzXUFgCZlwZeoY1LeIbIZd3/KIvjYBGoLkIaILQXMT0/ZslAjV++nLs7zsxiueBGPGlbChPU/nqG8y64QZWly9j6IBt+PHTjygccxrdx56DWyxpi5XjY6PBjHIETawl+JTKv6KS6rvuZeLLr7DbAw8Q27Irzr2P8PEtd7D74/dhvfI6U19+le3uvht69mPZTTfz44dvsv3/vaTkd/rFl1hwzfX0vfU2+OUvWfPlJCaefDL7jDiUJT22YNJlV7LtHnsQP/CXlO4+mHlX3UDFpOm0O2IE2+y3L5+MPpVBv/kz7Q7Y1zu6aN8ZttkCJ17o2TeIAqGlBMFP0eAYDlZFNZUv/YcfRp9Gv4MOYsHMqVRWLqfLySfR4U8nQoeuuOqoQSwzPM+IiB+bUhOEzfKV1Z1uBQQ0QWgFEHURmz4Cnkmg56XvOdd5voZG2oGKFPYHE5l06qkUWy4Drp/AwoceYsH06ez20TvQpRtIvANlTidiq4U7WpF+lVVU3XErn778X/Z86BFivTqQfuAxPrr1doY/dg/W6//jy8efYos/HktR96354O8P0Gfwlmx1192q3SuffpIF113OoDvuUymnV3/2EZNGnsjPDz2MuV168OG1t7PXMccQN5IU7TSA2Z9OZvGHk+iwzzCGHrA/b/7hBFLRAlYnYiwxYJfDj2C3qy7ETRRhiotia2gQbEcZPArfMKodzFnz+XHMGObOmMqe11zCN3fexLJFPzLg3EvoeMyx0L5UuZfaEl8CAzHPtJT7aAvx3vSnt+6hRiAnApog6ImhEWgSAqKwdnxnQYkX4Ln7matXsuKV55l9wVVQWsa2l1+MWZHi3QsvZPjZYyg+9g/QrgTEeE/lXBCCID8tvCpSVN11MxNfeJHd7n+IWM8eZP72T96//U72efROjNdfYdrDj2Ht/Uvssm7YPTvS94gDKd52J0inWPX04/xwzRUMvP1OjH33U7kPJp88ir0OP4IF3Xvx6bW38auTR5H8/COKu3ZiefduTHr1NfoM35vt9/kFr594Iv1+/zvaD/sZTlEpiW5dKN5xEG7Mc+EMhXVYu44qowvfXDM4klmxgp8ef5QfbriaLU86kZL99mP6ZZdQPmcBvU88mZ5njMYp9I4azIwcc0TA0gRh7QZAP6URAE0Q9CzQCDQJAVFbi6tfBMc1iEmYABsqXvs3U8adSpVhMOzeh4gPGsKkEUdilBSz3b13YfXsCrEoZkSc8DK+AV8Td7T5IiaJzEslqXr8IT67+gb2uPcRYv36sOzG25n64nP87MW/Yz73Kl+//BqD77gd+g6CggIosjwvhcwayp98jPkTbmLbW27GOmA/Kid+xpRRY9h9v1+zoHdv3rzuZv58ww18de+dFFZW0m/0SF576B62/Pm+DNpzOB+MPIXt/nIKpb89AqwYJEqgZxlOQaE4UqoThib2Mjf6qu/+GYPobaTPThJn1iymHX4kVs9ubH3TNVgZh++uuIoVH02k8+//wlbnj4bOZZA2PLsEpbnxn2/SOOubNAIagQABTRD0XNAI5EXAi07oXd4hgxCEiEQVWlZJxRv/x8TLLqCwwGWnO27C3HZ7pj31EvMef5JfXHIR8f33xbHTEJfgRH4RsqtVkRObAHseguBIfIPqCpwFs5l01gXY3y0g07WM6iVL6LrrTux463Wsuf/vfPTf19nj5hsoHrgTriFKdxubKiJuih+ffZa5dzzMztdeS2zYLpR/MZF3zzqfgw45klk9e/LaLbdy2k038vr9d2Es/JFfXX0lL157JX2H782QYbvx4qjTiBtFZKI2GcemOlrGUY/cjTV4MEkjSsw3Q2hCL/MTBOVC6tMMS44bXKjOYNx1N/+75y6GXHERXQ4+FL6fxcxLrmb1lDn0+O1h9Dj9BOjRXRmECpkzlevlWrdEP6gR2GwR0ARhsx163fEGeUGWFAQcwdMgyIG4UWGz9LkXmHXtVdgxGHz9lZQMG0rVqiom3/93tjvwIEp23IlMQaFK5+y6NlF1mC5lSfjClhEECcZk2zYxx6bq29n8NOlLksuXUNC9C733/TmUdCAzYwoLf5hD1933xC3rquInRYXeqNgFNsmfVrL6iyl0GDoUs0sXMqK+/3wiPXpvSUUswfzvvmXgkEEsXDgPd9UqegwYzOxJk+nQuy+l3cpY8OUXWFVCdlK4mQxupIDuew7F6NiBlBkhYrgqM2P9K1d0xRyhobIRKlU8aBW9SXiZYRuY8+by8YnHU2LDoH89DfEY/Pgj3024lVVvfUT3/X5JjwtPg949SToSU6kgGwpa2qPCR8ulSYNeBDQCDSKgCYKeIBqBMAJBwAElsyRPgq0kiljSOySJVBvY707mvZNPIh0z2O/eOzH23A0SERbOnks0VkSnnr2V9BGLesOQXbBEKPSTJKgNcUAQ8sVM9HfNWflaW1nvfexlLVAxETISd9nx4itIwCKJQSDJoIScWCa2kBLJDYGj0kt70lISRtjqfldcL+Vz2bFLn4XAqHCIKp6yV7bayYuw9iM2iieFaogXB0JdlolrWb62Iki7pERynTlW9995CIKqO6jXM1iUqozkaubfew/fX3UNw2+5m+hhh0DcwF22ginnXIL13kSMoYMYdNf1uF17YkRiJDMSH1qMFiGiBib0o98AjYBGICcCmiDoiaERqEsQArmoEhAJSRABb2OsXsXKfz3P+1dcQ2mv3uxy2QUUDN8Vioo94ewaZDI2lrj9+Zb0SsaFN6xKMAWf1Ap/FLrL39oqiRje5oaTPHvtyn6vigwL3nAMRj+7k5KuAfloqGy5LxDaPrHJW7bcG/SjEY1Bvf6EgZf+hP6dsz8BQ4DMF5/y8WlnglXKXg/cAVv39MjNDwuZM+FWlr7yFh2H70zfcWNhwPZQaFGFQ8SQMNFG1oiyxcaU+u3RCGzCCGiCsAkPru5acxGQXbHsykXWm6T9BESSudCsSFP+/L+ZeuG5WEVxhtz3IAW77gBxsZaXM25v151KpojFJblRTabDehptJQhFsIbpQ1g4NmV7GxKoQQrFhnTmgcBXjQkkcT4de7js4P4G9PGq7HwWlfJVU/qTj1zUIQ2GlykzUlHJitfe5LNxF7P9hWfR/bgjPE+RVBXu6iTLbnuYbx98kHYDBrDdrTfD4K1wohKM2dPsCJlqPCJFc+ePvl8jsGkhoAnCpjWeujctRUCp2m0VulfyK1DpkqiqovLDD5gxegyry8rY56l/Qp+eEBVfR5E1nhGcyqJcS0jX3aV7QtDbtTaakinUk1wq+boZGwIBnk99H74/fE+u+8OajXAfcvUnMBZoDPjG6sz3fJ32BccacmSQSlPx9SQmv/Af9jjjHKwuZWBZnvND+Qq+v+Jalj7+DD132JFud9xIrGc3L6hTXAqRcsXdVBsiNDZy+vvNFwFNEDbfsdc9z4mASJeMctVzXYvIigpWvvwiX151CYkunRly1TUU7Lqrl8jIE/e4ETN7Pp7dB2d39bUrUeSglkxqaOccujF8Wz7NQ7jgemqLBupplbIb0CA0qrHIo0nJ1R8FZ8YzNBQ7CqeaJTPmUdajD5H2cZVVU2XDTlcRq65kzf3/YO4dD+B27cI2l51PYthOuCXFOFiYKtOlJgh6IdAI5ENAEYR33nsPQx/G6VmiEcBQxn82rpjMV9tUP/s8H19yIUUxh52eepzIgEF+qmERUGLIZ+Iow7xAgxACMY9MXqtXrZ4Qb2Sw6hGEBu5fl2W31pwKtdExhCCIaLcwJeejb3dpiC2E4cWrdFwHoXmFy1diP/MKky64CGeLTgy+4waKd9sLogXKmFLpJ5qDVWv1p045+fQ7rVGdLrs+ivn0b62Ndy6fnZbUkU+315Iyg2dzWkQJQXhbE4TWwFeXsSkgIB4HmQzG6tUse+El5lx2Ne4Wvdj+thuJDd4WEoUqg6FKRSxmBsror3aSoIZg0PvV1pgknkSXpNJB2izffFF9Hiz+clfUsTHWrCL50lN8cdMddEm0p+MlF1EyfBjJRCGxaATXNyj1iFt4hHxbjDpET3hhU69aNql1HgocW8IcpW4LgkeyrplNrHhdlq0wDuxoQ+3JBUtz292cshvCNh9MudqdC/PNqexgruTczwhBePfd9+qr2prxEqjByKdhbE45zS2juffnmjXrsox8b/u6rLM5eDd33Fqj3c2tM9+b3py2NEX7HdRjZzCWLWXFo//km3vvw+nUkZ1vuJGCnYbiFiZyTvVma9+aO0ZNFAqb/W25zDpEQjkpjMoVpN54jy8uvIKEW80WZ59Hu8N/i1GWIG0ZSgMUV1qJsNdGDtVK+NSnoXEMbFAbme+qBj9ERpYMBH80pYx8gx50Y0OUHXbUaaj/edoe2LTm03xknYDWomw1vD42wejW8v0JD3lD60autucou5YGoaXjWafdrVq2b0tct8vG8F13c9964l91TuLCQ9OQMVVDhkcBgmE+n+8cNHjTQl0OznDVbAi5adVytwrVL/7SWWvq4JkG3p5a56K53vSmYJCr/4EPeRA6T3HiOk7XddsdKHfCz+Rre/BsPuXV2rbb9zmvh2EeI7W849NYu+X7XEF4wwquRuIDqCpyjX2AdfB8c8bHb3fGxnjjbb4YP57+3btQdPttuH228AwRxUo+5xRuhgZBYgxkBUAz359aK2MjdKCWS2EuvAOs/HKybo1NoBm1ym7CPGxO2U2ovtYtQaRFmb5hu4/g80gG3CowoxhrqjA//5SfxpzOyrJu9JlwC5FdB+EWiYsqGOpsIuhPA8rh8HKRa+lojpBpSAfdnHLyCKy8JhatUbZPbupVrcuuPxotxSTAuqXzrSkiMXSPsUtZmft4Iu4HScm1WDRx+xV6UWu1odbikI8g+E/kXNR8oamAkecbWmB9wdCY21XeMsLIhIVUI9vVnAumT2qyPuINtdsXjo22O/RG5vUpD/uTN9buusI68LMP+7bX3TIF/w6ETt3xaWgGBpqmPAShVnyAfCteMFfqCtdcGAZ60Fwkp+74eOVatkFBtYmZriJjJkkVtiMpZMR0MesIaM9rwbuc8D8aEHKq1bWMEMJtzNHfNvkAACAASURBVPFgo5g0JFHXR9l5pESLtnkN9anudzXzU8V5yl7yuYuhjBYdIqZJHJMCO0N0TYUyUqyOFVARM0hKICxcYo7pR1lseKsXPmII09qg6lqzLVxUnaarZ0O7QhWbyp9TTS2jIaSknUH78pZdd7ffROibUrZaXZq7C/cxyW4J82Cy1mX7HDDAPjxNW4p5eDxDUUQUohtT2RLSXLSi6mePdu3c/6QzGOG3q9YuMtcrUK/LDbgLhZ/PVVaOXVQt4RcIq7q7yrC2IVRGo1qEPDviei/GWrRbysgSpaa0O9SWRtutXolQK/PtCpW4Ct1XF7c8ZYQJnmpLTn2tV27e8ck3V1qj3Q1pMnwhUQvD8IDW0TZ4nfBX47B2ypvXhh0F18I2XJJmEttw1MsSl3gIIRVCmBM0kR/UyXKYi8DUnYhBO/02N3EBrwmg1MgWda0ISFPaLVA2hWQ3uUM5bqxNusWWwLtqxtuUNjgOZiSGa5vYtiTtdrJJtzOWGJkaGKaJJXkbsrVIWbnfsUAQZEekzq6ultBpgCAEb2rwOtXa/oSe820vmw2Umtn+8Ld22Vlh6JOQLASt0O5axCkclbwOb2toBcwHVt2yA0mWDUviD+pGU3Ydgrc2c6UuJp6+W94JRRCK3ZfTVbUIgvea+YFeQpM/l3ajZiDyfdtcCtmYDiU89K1RZ2uUkZ1mdeZlIzv4erN4XWKV75VpDt7N7Wdr1ZmrnKaOm7eCKd2ILDaOiHg5jgq2aqFQwUE1IigcjySkrCoyflXiPh/eEbWcIIT6lcctsibqYrPlQ80DG2vZzexykB265jETU7JkqQCSFk7GVPPAiEq2SUflkMiYKCKoFlYxV5DfETkyMjBtCXLhDX7NIVJt4qwSSPmXksWhV7iWUPbvqTsUweKc77w9KLu5O/EwiWntshWx8d+JDVn22gjDpra7JWWHt0m56Plale0vveui7LqaLE/8e9o3Y7d2xe4zdqV3xBCsmcGGzFczKOWCrIZ5GUJTBFtD9KIpzzdztfBf64afakq9bbHdPoFrFJKmCtFGC2rGDQ3TyAYj7tVaavNV2ZQxq01kTEdRAj9WgQQ1srDVjtEh4qbV4l+rVBXF2Hu13VDI4cZ61gyQ9K3rGoFgQGtJbM8IMRhtGc8age19mhItUYFBGpOoE8NQmjVD5bDwaINdz15LleGT0HC3cnk71PUuCOoPz7/Wnme67PqTbWPFJLzyt/Y8qSlbksF5WlNjl5IS9+++Gs4LB+dxZdtxcG1h3t5CaRoWZtjAqhbmwTm0z29q2SM0ZlQX5kThv8MVNMHIqjaPD3P6BpaikHpZJdXJpwpvSv0NqOTrtaCZRng5n/exUgLMM7Lyrqao8xszZMynlm7K+DSknAueFwnsKbJqVuhwnWuLd7j/ofKMFLLku0RIpw1SaYeM6dLeTVEm+gTZKIZNA2Te6wA661qEt5Hyax8qyCwRC4VUwiRlC7H0oi1G8ryyHvUMLiO7sw4+yae8aY6rZBsBSjdjs0HAJWPbmIaJseeAAe5rY86sWQ5d0z8nDazxPZrd8L4tMPiqY5rRJGvnOgQhl6V2XgPIHAKrSXUGI53PkDCf4Ko7Q0KrRi5L7Xztzp5/h8prVrul30GynjqKzLwkJ9z2EG45290AQWhwfPI9l10u/bP/gJgpsex92SSr+0bmSh4MDaMajGoMEqJfxrRt4qtWk/zPiyS/nEhVVUpF6M3aDio7z3XBzzebFWYj6mjNOMvsqso4mB1L6TriEJwhg0kXFoEbwZA02UqLKvfLMVXwXO0NUFP1W029byMCUjd1E0LAcUSDAMbwYcPd995+O3vSlreP+WZ0eB0NLPaztLnOIpurjHrrcN2bGluoG7m/oTcxW7R/ANmcdodkWw1mzVFctWK7s77bTcC70XbnvCHMZOpMkSbWWbfYbPKg4PkmlNPcuRJAbGbw4uvFIJOB6jWsvvt+frzzdsqWLPFeBP84TXXOCacq3oTeet2VBhEQT5SMA6mCGGv6bcvAay7H2msvUkYUNxHBMMSGIUh5XTditkeO607RvJRZMwQ9GzcCBOrlYsg5bxuYzOqFCAla7yQvh4q4SYK6lRFr7CUME4SsC2UOQtIUctSaTW9yu5U0q+NE04AsD75qjHO1pC9NbnugfWneXAl2+bWtBhoZM8NV0fJsya20ZDmV99zF9Jsm0DWVIi6Let3Yx5ogtGQGbLTPypyKRk3SSTEoKGB2JMGQWyYQ/+MIKOxExogoDUIwxcOzzpuP9Sd/mP7m+rsxOr7Rgqkbvkkg4BEEiaToL5JqigdRuJR3sPdBmBvXUxrUlUmB1rgBiHLJKK+u3O6Mue/P9VJKANb6V8P8pP7OvzmcwLu3blty7yiCO3P1M5dau3FeVXu5anm7pYUNYdic8ck9AbzxaVq76y6g3gmHi6ui2siyLPbokSxNCpS/GQxEbxAXozI5NpPsf8t+YuktN/HDgw/Sec1KYsrspIagZImCqNc2iddbd6JJCASLnppPrkrSGSVGtRlncacSup92PO1Hn4Hbrj22Y2GJR4TETjBrNE1NsSpScRnqkAhvnuXTM+QqNd+9uQlK88r23v3cq2eulaU57W6tsvP1szXa3RoYbirj48/MugQhmK/eqyL/y3pFhqhCIwwg+7VXQq7LcziqfTl5UuB69KT+kp3v/lxlB72pW6cueyMan2xTxUigyqeTQg6iOP58kn/JIiy+CdVAQhZ88WSsTLHgjFGsefFpupVXq3wKtne2kJ0SNQShrqV6k8SMvmljRSAIsRysd0pOGEStOEk7zcriIpLHHM3211yLW9Qew43gWi52VOZamO7WX6Nqf9Ic4SZgtgZBaIrBb3jgmnN/c+7NRxA2RD+bK8Sb0891WXZzMWxOu+uWrQlCfcITek82Z/LhTZU2SOCySgdZOFP+AirtFFogUfBkUst3Yosu2i8Lx4lhz5nHvCsuZPmzT7FFMkOJmCFYUSRhI+In71+aIGysEr6F7c4SBLFDFDYZvAGmsuSuNgzK23cic/iB9D/3HCI9tgQrrsJvuxJ9W+ZRY0drLWyiflwjsCEQqHfE4EvNrP6gxmc4UIaFdvON6LPz7drbrADSBCGLQJsmCNLKkPeFnB7Yrk3EsFQ0PBXtRohCphoWLmfquLFE3vwPHSqrKEp7MQ6qjTi2RJ8xvUBJQapgKVoC7tTs/PTKvyEWpvVaZy2CUDPekkxaFExyDJUyTH4qSJDZdWeGXnUlDN4eEgUq3XcDAWLWazd0ZRqBVkPAfw0aJQh1K6ylktcEQcGzqR1ftFkCF8w3+S0Wh+J2Jj/JNYEOAMptnLT8VOIu/4GvzxlL5ItJ9EgliWU8zYjYLNjyYzo4llgqeF4sWQNIpVQIKEK+0+VWexV1QRsagRBBCDfFE/3ePLBdF8cwKY/GWNx/S3a77y6s7baDRDsvkZevdWi4K808Ysh6+tRtVa5amll2nuPc9W+DIH1pzlFK06w9ahBqTtkbAsOWHAMEvWwN2wlv1fcFWhY+TRC0fUPONW19axCCRmSPdiR8pxgLKo8CP+x3NkOMAwt/ILVoIeU/LmLVvPnYq1cTX7qc6A8/wQ/zqV6ygGT5Sgoy1UQqUyTUVtBS58emYxDBJWM4ZFQEHE0QNrSM3qD1N0YQlFbKIB3JkLJcqomS3mkIW4wbS+H+v4ZozOeTfuIAP1ZCfdvDPNFos0aStVEIvK5rhx7JdcbtC4icMUrynInnjH8SEhK1mhLOBxL6okkJ48L35zEkbE67VfyXHLMlZ8yZfO3O1898ZW8ADDf4+PhG9spI8b33ahsBKi8Gb7smv+saCGb/3QQNQr4XP7fFfn51bnPub8690r7m3N+cezeXslunn76clng0to2RqoLKKli1GL6dTubLr5n72ZeUL1yCW1FJNJnEqK7CSFVDZRIrkyTiukQcm6hjYyEFBaaLYCr3NIk4KWFzZRQdFfXOW1fyMfANKrZ05esLgXCCoVCdkrpJve/+96JxktwLQp5XRSOs6tKDXmPOo+ORR0NM5lAaYibECsBKePPKcnEsE4nEJXYxtsxJ18UyJK6CzMkMyWQ1EcMkEokoUpxyJbN4DFfZxxhSRM0UDQxrtZvN+podm2k9dQlCXV9wHxbZ0eWz9N9MkdPdbmUEwuufabsY1UmcJcuYetxIVk/5mAKnknjKoTgDRa5FXNwWawl1WcG9xVvmq+RP8NLbeiGoHdmh+EoI+UIt+nKP6kduCzO9/rbyIG8kxdVOpOMTBDVNaquqZe5UmnEWGsVUJWIkOpVR1K0jJT26kOjSnUiXXtCpPW6HUozSIqziAmIF7YhG45hRC+Ix76fA/21GwIqgskclRCNhYhuewaTlz+OsJt4Pf5/XO3IdYt1cKt1Q4PV12Mx6RTe33fl8EdZnm4O6mnPI2dx2N1Z2vUBJdQHQBGFDTInNq07fpNALVSW7//I1fHPhVdgP/IMyKohE0ojBmCkJRNSxQ1jL6E1xIQGu6Yer8RdzFf/A14JlrczrEYTcWGuCsHnNwaC3TSUIMutswyTpQNp2iEqGSFPSSdtkMt6qSSSCEzNwElGPDCRKMQpLcUoKSJYksNsVYLcrJhmJUdK9F6U9etO5S1/MXj2JDxmAG7FE9eUlDgskXHhiNlcatMKQNlfQaoLQctAbE+LhGpo7JRoru1GC0PLu6RI0Ao0jkE45WJYkBUvhvPpfphx3Br2WryDiVuGYGU++qxQZEgqp7uVpBBRJyAb58rwVsutpNtuerzrLbsfCpWla0PhIbaR3hM/Lc53v+t2qm4q3XpRNuU9y04hmSv0p+R19YmrK3HSxHIm94WmxhLSKUkCZMYiBrGGSVp85pE1PYWAYlorSaEuuEKeA6n692e3RB4n3H+hNetE4tJGrueZwbaTZeQ8RmytQN0R/mmuW2Zw2Nla2JgjNQVPf22oIBGI5EMmy4MqKa8+awcxRp9Lug0+IpZJYliy/fjw4/22uTxBkn+JFPlCLsn9qECYI2YXAFxRGVkhoglBrUDdVOFqVIPgONH6OMcnh4NmzSDZHV4XWEJKgOG0OCSRN8X1nvKMwRTrkP6KBsFgejVD2h9/S5+Y7oaAAYh5BaCA4eau9l7kKCk+JhszO1oZe1y1vbcrI1/l12e7skAXEspVHoCltX1vtTHPK1gShlQdWF9c0BIKdSGAjKLEHWLma1ffez/xrLqO4soJY3EAWXwlXIJck3pW/6y8i3idZw9qAINS501uI/RV7MyIIQUBgsdvILg7KWFPg8EiVdwXqFzmacVT+CtHByBgF2hn5bTiej4vYetRcNZIwqCfYjQdCUJmC+AkRFR9U0lOM9vxSQrYl8p1SrUs9XkNDdiOebYns15Ulif+8CkkgvVDZZ2vCIHt/ebt+9b0vkdU0CRpZ69jKs3Axfet6CbgFtjJZFANDCbCleu6XF4RWkvmZ/c7/Xpoun6v5rsirNzm96Bs1uHvvgyE2iupYYV48wRZ33Euv3/3GM6SNxxWpkKelvPV5NeVYYW134nXLXluhlwuPddluqS88+1uz3XXLzjfWa1tnY8cKUl82R2nWiyGPkeL6nIi6rk0cgXzbD9ltJZOkZ3zDjANGULh8IdGIRCoQjwbU8qwmbeBFVg8mnxGo8v2/QxlElBCpxSpac5/StsdMhE6auOxNsVwVJUrFgDBdi6jtkrFsper2ZLEIZQvLEVJgY2c8oSgJrdJmhlQEbAuitjxrYkfSaufseYkKpZBnReA7pEUz7hhEHRc7IhEJJWilgWtaWGSwLZNKJewyKhS2Id+5cSJmWg16uSP5ECyihqlyHojRXmUmRTQhDgFFZKrSWK6NK2mYLU8wJwosqipsYq6pyIvl852MUAnbVVERpSES00AyeIhfgS2OA9I2yfXpedaSMSzsiENMyJNjkJT8C1aGeAZiNiTFllAmpSv2BxBPGBgZA7NaXGdN0lKPIh4OcdshYZrKpTbtr8ye4PKOymrIWe2/KyIxVm2/I9v/7QEiA7ZRBoxSrkcQGtrH544qELwZOWd+UJz/ZV1NRVjQNpsINKPsfG9S3jrrlF1r05HDN6lZArWRslskxPOUHe7nWpOPVi5baxDa9vq+abXO9fZ1MofVyxBMZlnk58xl2uljiL7zLolUOZGoF+TQW7M8KaQ8vHIgkv1M7Spr9sk1cfJrFlSPQ2yeBCHmpJTLXNqIk5aokyQVGRDUkpZLSnILOBHi6SgRN6MEZdoUMlGJa4gdiEvEAMuO4AohiKSVoJRxFOEq0k6yWMhZu42jBGrENbGtiHINFPfSajdNLJLGtAxSKhi2ryFyTHBiuG5aWe+nTINCxyDuGr7QlfwaNklJkmREiWUiFIjQF7IhwteESiEFrknUNYmIqt+wySh1voFli2AVgiJtsIn5xCdpya7dwRAXWX/+CDWRKRKNpal2LaozJgVmmriwI+Gy0Qy2aZBxLTKuScw2/p+98wCzosja8Nt980RmhpxzBokqimvWxTWtYdecQUVRkgoiOUoQXROKAXcVA0HJSDCAKOZFJeecBoaJd27o7v851X1n7oyDgOFflbnPg+BM3+rq6qo6X53zne/gNez0xahLAJmBKVkyugApkeWSaqJuNMtQoCU2i+MBQmmwIEDjiN9HhZ7dqd67N1ZyRUzJcpCsBpv9UKrIU/Ect0uN/XiOH6+h/akT5q8FEE5kYzvefh/LY/BrAIQT6Xf8SbzE945ixH8VT8Gv3HY5QDjRN15+/S8YAVO5VmUDc5tyWpX/MSAcZOezkzgycgzpkTAeM4gWlXOfvQ0KsStWCa+INBYnrlL0z6INvtQqiTtx2RvxyQUQxA8gJttrik6ETo7Lz6GAn1x/hIoFFhWCJtl+jT3JGrqpUz3H1pvM9iaS0qAx1WsnsXP7Zo7s2EWl/AK8yRUIJSYQchvkRAyMcJiEUJi0wiBBt4fDvgTciUn41YlbwzQMfAVRTPESVErEc2Q3noKQDQKd2SSAQzM9BL0ugkl+QkkBkrKzSc0OKrGKoNvFAZdGYoMG1K5fj8M7DnBg9SaqhgoxdDjs9+BpUJt6DeuzZ+NmDu/YQ4XoESyvB6tqTfQ9B1R2jJaYQF7Vivjzg7iy8jiQlKQgpccylBfCG9VIKTRIDoXJsQrIS0kkkpZG0qFsksMCZkwingKyfD6yfRVo3eo0wkdy2PTVV1RJCGAl6ETcEYxQEC0YJs+tU7FGDZJyo4T37iMQC1sosFzsNfiRN0GqjXh0vgvA35YuxWp+GpbLhyaArAggxJugcoBQDhDi4lbOFvdLx6QcIPwCc1f+1RMfAUNc14j7WUcLm1CYT3jdGjZ260bFNWvVZq9bBh6He6Bius5kVyeJmHH/SYBw9H6V3oiLriyhCncURbUTf9z//TeU3bCNh8Sy5XS/059Ai3lz8Netwe4nn+fQq//Bf87pNH7ycczMI2y99R72Bi3aDRqGp2Vzcg9sI6ludfI/W8mOISNw1apCy9depDA/SDg3TLLPz6E1a9g5eDDuCkk0fHIcvlotCGVl4zfDcDiTTaPHU6dKNby97+P7G2+i6tatmJLFJ+5+W0+IsK6zK7kizV54EX/n9mweNpDQG/8mELLITKlA7YcfJe2Sv5G9ZwtpVapy8NNvOPToECy/i0Y9uuO67CpyDu4mo1IFDn3+HdsefQRP/bq0fmcma/92Gf5166BOHeotWczWieOIfLiUxrPeI5h5BPeRHMyMdHyHc/mmT29SfviKQt2iWr8HyXjgPoIzlrCmz6NUN01yXGHS7r2JSn36kvvDLhLTUwgfyOLLh4ZQoWIirceMZNXEJwnNn0W1G6+l1qP92HXPg0QXLSHZIUJISEXxIuI2ciXP4dh5gQ+S6ZDj1jjSoiUdp72LVrUupq6ji/qnutD2/tifsgFCidN38SU/WT7iZ3kQ4tsua9aXCl+cyMJwRiruK/GDVuwsOboxtDtX7EGIOyAcZ7/LavsoupAlAkBlei1+jVP+L+h3/Nj/ZP9kaE8aDkLpQ+WJzNAyr1Vsol/cysnWgA0QTDzico1YkHmYTfc/gLFoFhmhAofkJe5oE79kNWCngsmnHCCc+GwR17kYX+WJUaFxN5sSEmn5/lwCNasQXvIRHw0cROUbrqDF7bfjjrpYf9vdVLm1G2lndmLV0IFkb12Pv/0ptH2oH4femc+6Tz7hnMnPsHH6W2x7cwZpdRrS5pH+FL77Ll++P58Ok55C27CR+S9MppoGidEC9N07aHr+xfh7PcwX191A7Q3rcYtuhcgFKM8GhHQPhzqdQYOXXyYYzMe3fTMrb7uFDMMi/eobqdbnYdY9O4HDX3xEWss2NOvVn6zHBnGoTjUaPPIQu0dOYNvyJWhV0jnzyec58NBDbAvmcerM9/j+oi4krV6NUb8eDT/+kI3jJ5C3cCFt35/Lt6PHw6efEa5XlVMGDCH64XK2DRnAZrOQy+fPIj89A48R4Lt//JOkbZvJa9mSdi8+yboPl5I5dTaepATOGDOWI7MX8dmzk2jfbzBpZ3Rm2s1XcdW/xoIRZdNdd1MpP0+FaNRcPgZAUERGTTgNbvYlJpDR+37q9OyFmZSiwmjFFv7/AyDEzGPJO5eYjfEGS2GX4u8ULV7lPSyb2FoMckqjGDtQaHtNYntuqZoBP3lalvZsGqn9Lflv3L6tAJv8+fFeLiRdBdqU4mU8BLN7Ww4QTnw/+n1+o/ScixGf1cQyHZKVzYwuevNleaGLQIZKqFOucnHJFnmsj+m5LkYpsSiiTLKiw/Axv/8Twxv3jPG6KrGpL6lXPyLwn3BA8QRfbxko1x43O2Dgzi8k+43XWd/rYaqFs/A7z29T40wV15YmSgKEH/chnoNQlhR2/NJWXSorxPAn9SCUBghu08PmQCLNFszCys9TWSLTe9zHWX3u5SA6HTqcwbd33Ueb2fM58OFSdvboRnW3xeqAj87vziFvWyafv/AqVzz/PJufHEnOv1+n0JtCzRGjqVW7NvMHP8pZT0/Ad3gvW2a8SxUDzKz9bPt8Ba3/fjWeHo/w1fXXU2/9WnRTePm21Lluush361g9e1K970PMGjKcK+6/m6XXXUNg43ZaTXkTT506bLzqcgIHd5Dr8WNVqYHPCpPYoyt1b72ND2s3pXGkkIPCE2hcn/Qjh8msV4dOs+fy3cWXkfL9OiINatPo46VsmPAEh+fOp+PSBXzy2EjcX3xFYouatHxoAEfems7GZ54hp+MpXDz5JWY+PpGrBg1h59DHODJ9KuHLr6X9qJE83bE9f8nOJ0FmaWoimjeA51CIrGatFbnwh3mzaX1ZFxZcdw0tN26kgoQnHANpA4SSIQbbgxCzdjZbx9Dc5Hl85NWtSePXXsDXvgOW5nNGrTiP0glY2G3GAYjj9SDElmrMEIptFB6mvTdJ6waaHssEEbeeiabbZEyhexad8iUdSVxVyvNXLHWuzLtjjEVW2oYKpY21fa9icCGtOm0LW1lIqWp4VM8UcdUulGc/s+1PsdAsW0bd/si1Eq6U70unPPaPJQPHTsVx8EHx/m86KarSoAIB4sYUlK3SbaThGFiRtkvChNJAotyDcII2439yeRwgKHLhidCJentRRVDSZeII0LRr+thVXEt9VPHA2ORSJ2EdtykFgJx5ckwDXwwQpBihTGIhRhV97ZjfP36AII8SS6USapM7aq9b+aPH8qUUOvkN30hZbjAn1U2Y6YX//YLv77ydimu3UsEwHIMR22pMVYJZLbgig148WEUb6XF1v3RHynjoPylAUOmAQh6UypW6nNbdbPf7aTZnFjl7DhLy+Zk9bjR3Dx7AJ199TucLzuer+3rTYcESdi5axM577qKhx8UGv5eOM6aRdziLLydN4dInnmTzs0+Q88orhDwBqg0dRZ0OHZjT6x46PzOBZL+PzDXrSTQ1jC1bWf3iZFpccCGp9/Xk2xtupOGmdViG0AcFr+lE8HAw0UXdp54lK6Uiy58Yx98eH0ruJ8tZP3I0bae+jZaYzpbLriG14BCGz0WWPFtAp+rogVS74jI+an4mtXOCeLwu8n1RAoURDrRrRcfZ8/n2r1eR/P1azEb1afzhfNZMmEDmgoX85cvlcLAQCkFpeR/M5L1LLqdqXiFNxo/BVbM+Cx/qz4UvP4e2chmbhg2FS66iQ//BvNbpTM4M5+GPFCrxI3mYpHCUHRWSqPjow9S57T4OvPwqWeNHkJKXZRM5iy1X2TPXKTpkh9lsvYSQ7idL9+O+qgsNn5qAVbEyQkYo2ndKMfZ/Du6Xrsk+qEy0KSJPUjo9xoWUeuohEXfAUrXQ3WjKaIr9FcqknVchhFO7xzHDr/QmHQNuEY2GVJ6r1yVS0rLJljSwiiyqwi72nizzwohYaB6vnfNhhDCjYTSv1LmQ69y2/oTwNdAQ0+9xAIINXBQ11umTIFUNInKV5J5GUYxRiXMpJCANSdaKiWkaWG6PAmuq2GtEUlwEMUXVs6PJD2V39f7pvcgnRYhBqZ45NsGlVoKNiU1NnN12zFsmd0RRs4Td7bLTskotYZkSMlcEQUqqlmBbYX3b2v7HY2wdQyV52qpcsYEmzOSYvfq5xrqE/bNrEqgYpp25rVjPsn/ZdQpsMBxjOqvUr9/qU5YHQQEEEz2Yw9b+vcl77d+kht0kSl9l8Tt9UU/gJMgXN1MOEE74VSlNAEn7k5QQGT8XmxL8tJk1iwMbDhBMDXBgzbc0b3sGGz5fzmmXXMh/ezzIKc9PJnhgHzt79iSwcy8bq1XhjFnvkLNmDd9PeZ2Ln3uF7c9M4sCkp4hUq0rL514lZftulrwwjo7PjMKz8is+nfgMVYTF7/VQkBWk4aVXk9KnL9/ceh0NNq9Di4ghcKssgjyPxsEmTWg77R3CaWmE9x8kUCUd8g6x9LR2nPrMCwRqtWDjTd2ofHA3odq1qXzHnRQumsbe8zvStGs3vmh9+Q1pWgAAIABJREFUDon7szicGOD0R3uRO2c2WzWL9u+8zbeXXknK2g0YdevS+OPFrHtiIjnz53PqnPf4cvhEQiu+JPHcVrS9vysbxzzBka/X0X7OXMzUCoT278dXMQXX7v0sv+4WfC2ac9qwsbx9xRXU3PE9YU8CnR/oTXDnFvJmvIHh9qCfeSHVn36WjY8OxPXO26S6BfDaHpOf/CiAYJ+CxXSFdTFFHnQrkZ1enXbjRqHdcbPkVtoGUC2Y4lO0Or8cz1ZUqhNqH4xEICcfjDCSTyrhDLU9RMW4RtHyc+w8UGGXJqeg4iWSrWHZp3IB9DZAkI8NEmIBBSEda3mZtvcukIzp8Supaqcyir3XykYdFSNsogULVJVMS/dgebwKZrisELphQEEhJCYq0mbMcxCSw1bMtxADOmpbltFwkI4YgdjhyGV7JmWLsSGEhTs7CyscxkxPBs1j/7F0XLLpy7PLheq5S7ukj/VS/7i/PzkAguOIkskkudhqIoaCmHt24bJkxjgw0euBtGrgS8HyCBa1408xYpx4nuSPpFVJCpXbDDsuODfoMqGO09gK0ggGKTiwE3/lqmgJCWrd6a6yJVXLlHuNn3NF81U6aGLk52GI0FBGZXsRq2UqiyNMaN9+vH4/WoU0DLckexU75Y95nxOd52UABDEGlhEmMmsmn9x5C40iIjDrwwhHVEnmsgHCjxsqO5RwtA6ezB4EGyBIAqKKa3s9bPR7aTfjXfav3UXe7s207HY7G6YvpmDHOlr/8++suede0s86j+rdurLptVfI+3YtaeedR53r/8n2YUPZuXUbnV+ews4FC9i7eAGV255C3evv4Mj9D7Itez+NJozCvX0Hq2fMVtkAWpKH7B820PjUv5A8YBDfPv04aQf24Co0COw6QHD9GoJuA/9NN1Hr7jvYPmMaVjCKv1kzql3Qme0PdicfF81HjGf77CXsmb+YGhd1ofbFF7D+5iuJtG1Os+FDyV+wiNVzPqZq21Opd93f2dntLrLzc2n66osULPuA9UuX0KhTJ1Kuu4mNDz0KW3fQZN67rL23B55Fi3Cf25G6T45l3UuvoeWbNHlsANunvUN0/0EKEhJpdd0NfNF/IOH1Gzlt/JPo0SAfvTSB6o1PodkNXdk1dgzW3P9ghjQqnn0hiU+NY+eYCXinzcEXKSRqFaKpE8pPfGyiiOLgKOKmSzydOu6ol6DLy77mjWj578n4mjfH1L1FwkuxtMfYeo4Pu5V5t7jDSMxRoAeDfD3xSb57/mlOvfFWWgwfqaTNbaQSIbj8U+bc+wBUqcw/lswFn8fZPWJuegtxzwtQUB4+QS+yYcq9IiG2zp/JD7MXcdkzk7H8btu7b2+ydt1MJ+ZfcCCLV+6/jxsHDyStfj3MhIAy4AJSvN99z4SHH6bri8+SUqex0kmRjyk1KxywJI3a+3YxcSAmkqUSrQV0qXvFuVCNKHP69KaqVUinMSMwDuSxb+8RqrdrA3k5vHj/fZx38+00PO9c8Dh9lf1ahSPiBtNBZ8W+4hPdNH9f158UAMFePHb8QHwFSg1tz14+vu0OdCNISHK8NZOAP5EKzU6h2e134W3ciLBhqBKsrpjhtj1mNhvcFUUz8sj97ltcCekkNWopFv7Yb1e6IoIs27axYOwQzuvZG3/jpmrC6lLRzZls8cb6uA23ioFYZH7yKfs+/4qW93QnHM4lc8tGqrRoiStkMKf7AzTs2I5mXe/ESkos0d/jvs+xn9K+oqwQQyQEG9fywz//ScrmjUqSVghqnlgRJef5S3oQnE1G/fVz3CwnM0CQ12CTPhXVKjmBrVGN5o+PI2vLdnb+8A2ndu/OjqmzMax86lx6HjuGj2T77myadLuTqldeAikZkJXHhndmkPvWNLx1atFq1CBwh7GiFkYoytZ338W35EPyfX7qDXgMf706YLltJSEtyPfPPE1l3UeVe3s68S5RJNIxFs7nhykv4fHpNB8zivwd29jy3HO4IxZZNWpyxtBh7Ht/Edunv0HFv15Ig3t6QeVGRHbsZMvLz5Dz7gzcaRkkXNqFJrdcC5XqYx3I58CUF8mb/qaKk/uuvYzqd96CVqUiZOew7d9vkvf2fBJ1L/WeG8fWCWNwffEFetNGVH+kP5k/rCUYjlCnST2WDx5Mcl6ISHIGp/R5EC03mzVPTcLdoR0tHnoAGtSErHz2vDGT3NemUiGcSXY4SnqHtmT068ne515B+/BrEiKyx0QwRJDhJz7CaYp5EDxSCMpl/5F5L9oL+xOSSet6D7Ue6ouVmq5KSRviklfndeXTLOlBKGsNquN+cSeKhJHy81kzbjwFb7xGduXKnD/tPcioguXRlJDZ9p59OThjHmaNGnRcPg8rMQmX0o02wKMjSlDi1dBcGpYAITOMnlcAPjeEC9i16H02vbWAc56fAgnymIVYfj+WKXuy0x+XRmj7Ed7r9QBdhvYjpWkjrIQE23NrGHi/+prXe/bgmuefwN+wFZbuU/uuprntYm1aFKMgF3fArwq7Kdex10c0ElEcCk0OTKbM2zAu0bXwBVQ4RTMsFnfvTnO/To3hgzDeW8K0N2Zw3fQ3IJLH293u4bTrbqbOhedDkgAjCbX41cHQjJrobpt3oT4iuR375/Hulb/T604KgBBzuKs5aHlwWSbRg/uYdfGFXDhsBCkNG4FhwpZNzBo2jOoVK9Nh2jTMxEQMw8TrcYgtjnFXIQpdnF4FvHPexTQ483w6Dhmi4nE/9XEifGopaxs38/a9N/L3CU/hbdlKTXJTuRdtL8TPBgiRiIqt7vvwY1qOGMXhr1bxXv8B3DF3unrGqX+7lMbnnEmHR/pDRgUHwRdP7BjF6VfJ0Ci9OUmM78gRVg/sR+TlydTFjRGJ2JyPYmjkMLwdid2YA9U5DRwXQIi7b7xSnWqiFFOzWEPB4T7I6SeWFliUduY0WKZ+QvzNYm/f2SnKojo4l8Qdbn4MeYojUfZcOA58c7R5p6IKSlbZJm4FxeCYiYTFLew2yLdC+Fxe3KEoeWYIr6aR4dbw+/3sCxVyUMJSuo5H85Cqe6kQ1cjRvGS7LUw9nygJJAZ8JEQySc4TI6hT4POQ40nAZVj4jTBGuABP1MLnT+SInoClhe1TJm4ChTn4w8JAgByvD5/LgyuYrzIcQn4X2RGLJFcCCe4Qh60IO/BQEHVRNeChUiifQERJLZEXjRL2BMixTDwunXQg1YoQCofI9WocFnlofxI+HbzhHFINiVm7yRPnXzhMqqgxqlBhIoVhg4gZwp+oYYZtLkDE7+dIWKLtHpKNCGain91WPoYf/EGDxKibZL8bLb8Qn1snL2JyxAWpmkZ62EXAdBHRokQEDR/HRx1pdFtESk0jscPy7iyNfa502ixYiKd9W0yfTlgPqxO4SwSeSgOE47hXkTHLy2PD2PFU3L+Nr1au4JSBw6ly+dWKY6AdymTq2WfQpVptdmTn02bxfPD7MQ5nkz19BkfWb6DmXzrj+utFuCqkEtWi6JE8wu9/SP6Kj0hqVI9DejJb5n1M55dfAXc+0axMIh99xKEf1lOpcVNcf70Yd2IKkUMGi3v14KyhvUlu1gQCiXYeQtTA9dU3zO5+F5dMGE108XLy8wpJ/utFeDufZ9esiBQQ3b+D3HnzCG/ZQfrZF+I6vzMEXOgSNjmQSf7CeWR+/SUpVeuQcvnfcTdrjha1+LRHTxrk51Jx0ADCk17gqw+WcfqwYbg7Nuf9e+6m1SV/J8PvJ3PV52S0boH32pvBm4Dutvkgapmq4lvlAOE4pt3v5xKbOW8TS3TLp1xZ0ayDvNv5TC5+7U1STmljE0/CIUJffM7S3r1p+sDd1L/pTrAChH5Yzc5vv6EgmEeF9DRqnPEXXBUrcGjVN2y/uxeJDZtSo29Pktq3J7JrJ/s+W0Fmfg5Jcppq3gz3KS0UihWkatsnHX39JpbcfTPnDxvJ/n0H2L9nN1Vr1KLKWedCehpYQdi9l30rv+LQoSOkV6hAtTM6Qa1qdrDtcB4Hl6/kwMGdSs62ap36pJzaAVJSODh/DnsXLqT1oFFs+vcM9jzzHM2HP0xaiyYsfrAPDVq0JP2C89mzfTv+SpWoc9H5eKtXVq7MYkN9nOGSo71mh4wYs3ACtFxRk+CSxWy8ryuVMvfjCzshEQcgONCoKGQYI4HEVRAo24NQyoDGNtWophGWCpGWqbwUCh861XPsHBQh7SnulXovhlTm0y01nnK5nNzk97HTjZOZVvTEpSORtjF2eM6Kxf1jhOAEe1SbovJnn/xKfRwQEyNYux25aZm30r/S/TgWKhWSomxZKmVUgR6vOllpRNVP3S6bByB9d4m0sWXg8+rKUIaBgNdNxDIJR0ylQGjofiw5MRkFaK4AphDXzEJlSJUCsSIAiwEWEq8yu0rBMKJqDYiAspzm7HLJpmELYqlyC8KWUXrakiVkKoecS/cQiQqYiGK6NQoM54QcNYuyXqQUuLh6fS4/hUZInXhVqFxklE1DqTZaUReGtCOpg5Ih47GfVaShFbfIBK8SShJam4uwGueoOrlKl0Qa2orYzxSWeLxLKjPamh7ih5PvF+oQ8LjQxasSNdVYy8FaND9kHkVF5jp2hijlg47N8WL1T3GwiKvekRpXGha2Vy7P8pDVsT3tX3kV6jcgKuRBCZ9qMZd/Se5xWT63+Lkb+7eem8/qseMI7NmEO8lHMDmNJgNHYJou9s2czcInJ/C309qz58MPafvZCvLXrub9fg+TWqseFWrX4tCOrbgMk3P/9ZR6p188+yxrFn9E09M6YGYfwr9qHcEq9TjzX0+TnbmF90cPpGrFirgq18LYuos9OXlcNmIUXl86H/Z9kE6D+5DUshkEUmyEFDHQPvuC+XfeSkLTJnibtsBXGOK7D5bS5ZlnqNqmLaH1a1gybDCJNaqSmF6JfQI+GtTi9IH9ZTLxwf0PUJh1mPR27QjlBtm7dj2XPTaQxDbtWd6jJ23cLnJvuZF9Y0aRt20nrksu4fTe9/PhXfdQ03BzsFZVvFUrsn3lZ6S17cAFj/QjmpKKx+OETAT4xlWc/YW76P/ciJ40HoQYQHDJcVUohgf2MeuMs7jgzemkdGhDRLcXeyDzAAu63UVuJId/vDYDgh6mdelCi5o1qdSqOVs/X8b+jCpcNmky26e+SdaI8SRUrkr6zdeTcv3VfPLYYCpu20619q3J2bqF1Vs2c/Erk/C1bI3p9TopezrejZtYfvvN6AmJZKRVJKN6TVYtnEuTu7tT64EemJtW80HffmTkFlK7TQfWfPwxZoN6nD7kMXx1q/Dd5LfY8eIUOpzfHl/Y4OOlH9GoV09a3HwjB5YsYO/7Czhl8ERW3vMg1geLqHnFxdT457Ws/NezmDv2U7F+XSqe0pLN33xFduNGXDRuNEZCotpAbebvz3HlF89nCc3FCvPIidwUWdzdu/n+tttI/nQZiUJacrK0xOApQxk7Kp3oslCel+KTmWj7yyfi0skXtT4LAiLx7zySynZShtKO8/qEMBojhLlQCoBSSyDokd+pg7b6iPe3hHa+c7JTmVnSf6cLsqlL+3aWTPE4yl1ixCgxGIUu2xwIICkx2g6TPSYSJX2QGgD2M5kq6+qExCDVw9qdi8vg+vEoF1kNZzxj4+UYJvm1ekeO5rXKD48Fd1WMOK7JIj6JHQ92migRdirO6LMBmfo4eeexOLINWRW1Xs2n+NsV9cdpXFzI6p8lB9O+vxPwVv0t2rXtQlTKI1jEf417X4qx79xeXeSAv1hcvbjLNl9J0gBj2QDOidIeqrgOxZxLsTTHIiKuk3MfK1ClnsN+IbEhl/+TfoY1yA5o+O/tTv3HhmF5AuD2KUBa2sNWDPhLvu6y/BgSDlj1+HgK92+j8V/PYdukyZzy1rvompeZ9zxARnplGidoZC18j+bLPubzkYMx1q7mtP+8gSs1mejaNSy7vwfte9yPv2JNlvUdxOnPPUVCkybowUK2jxnJvq17OH3sRFa/9SqeYCaNu3eDCpVh5wG+GjiUahdcROXOZ/PhgIfoNOgRksS7mpCgvE2IsNqKlczr1pX2Q4dT+eILVbh4dre7SahVhQv6P8rCu+6mSZ061On9IHpqEqENm/jo/l5c3LsPRoe2LOp1H+f1uBffGWdjHjrIf8eMpUn79iT+8zqW9ezDKYEAqcOGwMwZLJ02nfNffx38Hj66+R7qNmpJ3cd6gcdN/ief8+Ho4Vw6+QWM+g3R3VLJM0bULIYF5QDhx9vM7+4ntgdBnZ+EgWCXiNl3gNlnnsn5b08nqUMblecrJxhP8DDfDBrItmXfcNXUt9nw9edsX7qYC3v3h2qVMFYt4+U+g+n27lxIcrH6HzfjadqSxsOGkXd4JzP69uOaIWNJrFkdCrKY8reLaXn3fXS4/Q4ifq+6j6TsuDeuZ3HXu0jvdDrt+z0K4TC7Z8xgw6crOXfURNa9NIW9m9dz7pjHlRtLCDrv3HQDp//jWqpdeQ0fPvk0Z3RoQ9KZp6jwxP7nX+S79eu5cPx4Dq5cwb7F82g1YjyRr7/ji759OPO999SRav7VV5ORks5p4ydAjYrs+2I5M/uPoPuCJViVU1XYWHbQoo35Z79Nq4i/IwR6MyubzLFjODB5Ehm5OUopUW1+sb0z/ij9s7gG9o6sWMnORi4nOPECyEcVIJJTs6oSaLvdQx7D9hgYts2IZaGJ8RZt/4icgp3fqY1W7f6lBkTdVgyDjXJUfUFFMrOzReKJUjGvhDJs4rZWYUuRnbZ5GKXwhC1LLVwvx6ap7zuhTiWmV9SV4wFzToDr+DzcP3rrJSohOka8JEAQG158Lo0Za/sdO4a7yLqXpKfYqiLFn9j1Nmh0ns2UegbFlRvLmpbx94z/ffz9pY9l9a2s9orBT8nfxj9nifvEAEp8P2OAp9QNinQQSgGEoy232DBYlk7EsHB5LDIb16PBiy/h7XC2IvG5nFoNP3fJKoAwYSI5uzdz+r3d+Oy+nnR6/llV2Gvu/Q9x2dgJ7Jw7i9CMt6g3bwZLHu5Dl0svwbzhJjRfElrmXj4bMpAEn4e0Jm1Y/eQz/PXbT4n4knBHDPbPeIcts+dwxojRbH7oEbyVqxJo1BDLjEBBAZmffUF6i1ak33oLi/s/xF+GDCCpRSushIDy6tgA4TPm93uIC595Ck/bjlAY5ONHB5B5OIer+/dh/g3X06nj2VCnJlFdvEcu1j4zmXbX30zCkEcIbvyeIzt3wY49uNdtZOvHS2nV/S4CN97E0p59aGJCzSefhKn/Yfpbb3LNvNlqEc+84Q7aXX8Lda++3JaHX7eRBfffR5cXXiDaqJHiqdnVOpU6TtErKAcIP3c2/r9+zxb6iGXGKg/Cvv3M6nwmFwhAaN/GKS+j48rNZOXggWxb8V+um/E2JHixVq0ha+1Gsg5nkrdpHas//ZYbli6BVD/LLr+CxLZtaf/445CfBRs2k71qLZn7DxI8sJ//zp1HswcepP3d3TACgvKjdvbDxk3M634vlwwfhtb2NDDd7Jr/Lj9Mm81fRz/Ftj6PYKb78DdtQsj0opth9ixbRJ32LanedwDs2Qtrv2PH1g0U5oU49NnXuOrU5dSRw8hcuUwBhJZDR5K3eh0Lu/fgmqWfgRnh3Su6UK9dO9oMGQ2pyeR99xnTHujD7VNnQK3qIK7jEpb7574oyVYIgeZFC0HO4sVseOAeauzfjUult5W6zXEAhNimKt+MpUAW904MiE0i9XrcRCKSLmWfmJXbW7n9YrRpp2iUy0SiHF5xQauCOnZrqvS0xHQl51kBB9vg20lbzkVCRDJsd6JsQnbAwgYEhdEwiS4X0WjUUc6T31nqOkmstfMJnJO1hBpkw48HCE6KubixxS1d5I2WEEjUvpPrhFwIcaMUZ6RP6M3GeYSKTvmlGog3qGVxaEob3DhNoBIQIXYKVqfvOIBgvxwnqa+Ui94e+7KBUgmA4DDcY13/KWLuUQHCUcawLCBUol8OMI0ftuJU3jLrmBddWqQwbkhYRCdElEyPRvKVV1HrhZchEMAUrtTPmBf27EQRCv87bjyHd23nvIEDWDHqcdJSEklv1Yb1U97g7Bkz2DpuAtbMmdScOZWPHu7DRbfeSvjyLuDy4c3J5etBj+HzuElq0oKtr77GOZ8swXT70UNR9kx7h/VzZnHuiOFs6NGLSP26uISgLa62SB6BgIdqTRvjatiC93v14twB/Ulq2RorKcn2akoc5/Mvmda7B1f8+2W8DVuqbLT5/R8hPyufa7t15b0776DluV3QG9UnZObjCrjw50RIa9SMcK0qrBg+hMTkdNI7dCI54CNv4TwaX3IxCbfcyNIHe9EQjTpPPgVT32DGtDe5eu4ciER4846unHbDrdS/8ELwumHjRubdcx9/m/wy0Qb1ygHCCW0mv7uLywAI+/cy68yzFEBIFoBgGeTn5JFYUMB7d91ORs2anDViILuXf8SSgY9TKzmZerVrUqdhc+a++Q6XL14MaSksv/JvpLTvwCkjRxHctZXZPR+A3btp3bI1dVt14P1JL1O/b19ad70Ny+dWKZKuqIG2fjPz7u/O3yaMgmbtwfCya/57rJ7+HheNGMeWO+5E84QIVK1GMCLxzyBaqkalczqS+Ncr+Hz4KPYunEe95k1p1PYMPHuy+NqMcsYTYzm04kP2L5pP89GjyV31A4vv68lViz9T5RGnX3Yh9c88nXYDRkBiEnmrvuSdB+7ljrenQdXaduDWto+/8CMuYaUwApm5bLv+eiKfLKS2z0NufujHzR8nQIgZDzPmz4/rpSnVAmWz8XpwqZixgScseSt2jFZixqq0scelyu/6wzoJ3gDZ0SCGR8oKC19BIxo18FsuktwBcsNBcEs6k4HXCDsxdouoVP8TMlrUAr/wWnR0IeWJ6E84pJjcmu7CMCOETRO/26dKE1tGBH+ij7AVwS8BaYnFS3w+pLboItQk/c8vLMSQeLrS5NBIdHnxFEbxSsliKYv8M97R0YzesV52idP7UU7FR2ujLCOs7HvMfX80z0D8feLsp/Ql1p+jeQ3i+3JMw32sh/8JIHQiXxWAGx8CKDNT5ygNxuy+aPVIAaxCRVrUOBJIod6oMXhuvwUzwf+zAELMeyYA4VvJbtm9m/NGj2bbe9P5cvxYTj3nArzNWlCt6+1sGT8ea9q71J81k2WP9KFzq5bojzykQhzatq180acvp1z9D7IDSXwycDBXffIB+L2QX8D+N95m3afLOPuJcawePJRKTWpT+f4HwUpQIkQ7Fr2Hv2o6FWo144M+/ej8aD8Sm7UCnzBfHICw4jOmP9qXy6dMxluvqdJNmN/vEULZBfx9wKO8deONdL71dmpeezX4LMg9yLez5tO2/Wl8tuITtj/9PP9cugytYlV1oNs04DFqnH4qgWuuZEnP3tT3uqn/xDhCr73GwpmzuWLmLEVEev2OOznjptvjAMIG5nbrzqWTX4YmjezDiKMzU+5BOJFV8bu41g4yKA+C4iBYRA/sZW6nszhv6jRS2sZIiib5iz/ko0GD6DRyIOkd2/HmdddTs2Fjzho+TPl6877+ig/7PcZlcxZAWgafXnkJKe1Op+WAoeS+OJ7lqz7nwpGj8VSuAgf2M+ncLpzbdxBNut6G4bdPmu6ohrZ2C4vvvYcLJw6HVm2UotfuObNZP/1tzhs3Ri2gxHbtqXvDzUowhFA2a774lKq16+A1DObedieXT3yShHbNlZrKhoHDyYzmc8a4xzm8YgUHFs6n6egxFPz3Bz7u/gBdln6gsizevvwS6pxzGqcPGAiBVAq+/i8zenTl5unvEK1uI2HblV6W9fkRLS92qPsx015ooWYId57B3udf5vDIx0gpzCfJK4JopViFMWMR88cdJcQQv8GWBRAK3F5o3opQUgJGJIpHTvh7DxHdvYsKRhhRb8xN9Kh0trARxbdlH2SHcLVsTCjVjyGaVSIsJKf0fYexdu7FqJhMoG4tQtu2kZKZiU+yXRzlNhVzbtaEvPQUFeL3hiwiO/bjPpxLUDdxN2+MW5HZdKLhCD6JHa9fTUD+Ua06KZEIedJmnTpEvckq9CVujGhBAV5dJ5KaREQSvTUpV2yRUBDBvXYrfiOIqRWUkd5w7MX2ZwEIx37S4iv+VABBPGRRCIl2iKaT74bcJq1o8soLuNpJqnUxwC/DyVLmsNmJlaDlFfD12Cc4vHsPF457HPZvZ9Flf8fvC9B8/ONUPK8TG8aPJ++dd2m3+AO2vPEyX056nlOHTSChShV2ffclR6a/zTmvvoUrovFh74dIrVyN2v+4kpzM3eRNepGsqtU5++mn2PnRIj6fOJGO9/cguVpNjmzczIdTp3Dp+BFUqFiHOX36cNGgASQ3b6lEkYoAwmcreaf/w/z9pRfxSPaZAIRH+lNwOIdrxoxgzRtTWD13IX95sBfepGS2LVrIpq+/59oXn2fNig/4esSTXDR0OKQnk/nZpxyeN5cqnU6n8UN9+Gj4COoGPNR9cgzmW9OZ/fTLtBk0ijqnt+KNu7vaAOGiCxQHQTwI7957H1dOfhGtUSMH2NuZQrrDIfo5AP5E5vX/x7UnBUlRBjKm2a0OnlqEaOYelnbozJnX346/Wi3cpsm2nTv4+pOlNOnUnpZiQHU3b1xzLQ1SMjh9aD+MSD4fjXuK4MqPufSVl+EvF/D5BReTXLkGzR8dQO6XH/Plu7M5e9BIXB6dTe+8wYqpb3HmXT1p2Oc+rJSkooII2vebmXPnnVz24hPQqrkyArtmzOL7N9+ky6SnWbdwPp++8Ap3DBgE9evB55/x0tTX6DJ0MBUqpLH4n7dx8UOPEujQnAMff8xnT0+iYYNGtPjXRA59+yUH5i2g2egJBH9Yz+cPPMg5T06EWnV486abqHd+J04f2AsCfvK/WM30B/tw61v/wapVEdMtZ1W38M/j3AhxlrvY6Vn0e1uNMm66OhrPFlloHyzny1u6UevIQcUB2zRsAAAgAElEQVTuFre5JjG80p9SbKoy0xlL45NSbexPSaX5089Co3qQm61ynCOFUXaMHE3go+UE0Mg9syM1Hx+hcpc39OmPa9MWmkwcB3VrQLIoqLnh8BFyPljG+olP0mLoQyRceiHBOXPZM3wcFQpDioFfiJvMRD+tp7wM1WtBuBD8SYT253FwwEh2bFlHu5eewl+jCoQkQ8bA8Poo+PdLfLdoIS0f6U+qZrDq7bdoNWAweoUMm3BQGMHYuBHyDuM6vQMkJNt6AtmH4fB+Nt7QncpGhKiWXwQQjmYAy9pAjsYTONZmUxpY/JqaGWXAxRKz7Fh9+8P8vqwHLSJB/tQoFDuLVFaDJI2IX0xzKQ5NgT8B3123Um3IIPCkKgMm56DSWTJHczgV/bwwwsaZc8gPFtLmmiuU0uuG518iFCqk+U3X4apfk+1z5pK18mvaPNYPgrnsnDmDZe8vJa8wSKUqlbjgphtI6XSO0qs/sn4Ln415lj27dlGnYU1anHU6meF8WokSZDCP/e9/wKJXp2IYGumV0jjj1n9Q8fR2RKJulv/n35x6zVUKeIhoneKOybaxaxfzXpnMRXd3xZNWSXn3Pn5tCvkF+VzS9U4l6LRuyht8/v5HmMEoTRvUp819dxFoUJtIdhZrX3idVcs/JVAlgzYXnEmKP8CCN6Zy4wtP88OSj6ifUZGUK7pg7tvPwhETCUbdXDnqURZP/Tetzz2f6k2bqmwIsrJYOOkFLrqrK3pGBqi6FDGWcoyJGu8mi/t3qX/+nufvSQEQiqK4KgYo/zGIZu9j+iVX4A27cJlefLKHu6H53y+m4Z03YmVUswWNvvyG1+/vhekuID/Jy2W33MumBTM5oJlcP/k1rFkLmPb88zQ492xa3XE7nwwdw+4vvodEH52vv4okI8Kijz/nkmcmktaggQ0QxN6u3crs4UPoMqg/rkb1VBrarsVL+GbuAq4YPQqsCP+d9BKrZ8/BDBaQoEHH7t2ofcN1UJDPmn+9xJppczmkh6nfugXn3t+TqXfdxyXPPIFlhTj48TKa93oM9h7k45EjWbd7F13uuZdlb75F3TPa0bnHLVgBFwe/Wc/cx5/hjnGjoWayyrXW8OI6qs54/DYTd0aJEfgU00/kJqOY2dv47u7uVFiwlBQ5zZu2lLWIWv8IXZ+g27qsRbU9PYO2M2aSs/a/zBg+lIrVanLJK69R+N0acnv0RDtSQLTHPVTt10eIAmwZMpi8aW+TmZ7BGjNKz08+5Zt332XDqDE0KYwQcrs57YsPiKZ4cefmseq0c6l8OFvpvuTjZnNqMufOns2qL75l1ROjSKhWg/OGP0GCO4H3b76OC956hcM7NrB8xBjJAqTjgME0ad6AeTffRPvBI6mqh1j86hTOGvskR5Yt5d1nn6NG1EVKWLQD8tntc1P7wQc45x+3Mvmcv9A8kk21PTlUED6NWInYPlQGCfBom87PBQi/5SZ20gCE32gQxW5urlyR1tNmkti+kzJWklZaBBDi7NVRo1KKvyPMWTtXV2QybHsnoTqpWyAqnJoC+XrEwgp4VPxflVMoDEKoEAIJ4E9UEsUqnVhoQNnC+HWElAJ2XrHldaMJc1k6mBexU3sC0lAES/hZickY0rbXp4Su1JYp/RMAHQ7b+6c8iHhW5f+lv16pByEptYLeTTRJ9ZD2XWAlqbriKmuJPClKI3mrUayArCEhLrswPabiSskDWZLvKpwjpVIlbUTBJ0IZTpKyE4a1n9EpWqXerbMm472vRezScoDwG03/X96sPXEcBrQyZEJYtDAP7cGlJYLlcyqJSrWVBMUINqWQh9s+R5t79xLK3kdAhIUq1kLLPqJiiWZymq0NnpcDUkDE58HKLiBv6x6SKmegpyep3G0KQuhpFUBYxtKNsIkWNYgWHMFKr0BY1N5ME5csssKQSuvB41Ja9cb+/eQfPkRypTS0SpXtxS9tBqMEdx1QG0FiFfm5C/KDihdhmhGsUAhXcppN7AkVYhYG0ZOSICcXK+DFSvIRFWUxST/Ml2vFuyE16G1mvZ3tcawgd4zV50x+uVwx2cUHmseRf7/OBok1HjhEoht8puSna4qH8VsAhG0ZGbR7+x20779k+WMDVc5Ks36DqXrqqWzpcQ+hrAgNxo5kAxGMrCBNXSZrHuuPFgyxx5fAJZ8uZ8u8WRwZO5ZAXpi0iy4hbfQwPl8wl1Mvu5ysvg+Ts2ghaeEwBbqbLSlJnDdzDttXfk3mxKFky0mr72OkX3geH/R/hM7DhhI5sI2dY59AsxJI7dad2tUqMqtXTzoOHkF1o5APXplC58cnYG75nnUfLCYhDL7Vm9FWfU9eWir5XW+m453dWdKhI83ysvCFwipsYY9hjBj54yyBcoDwy/eNP0oLsuKO6H6CbdrSasYbUKWqXbZIrHdcam4pJ13x4xWRc20mqoTODNGnEAEgZd/Ddn0Xt0v5FhF5ektX2hkuMdJmBMMSZVnZ4kTB0KVKVct33JJeLLZV2P2ie6FWZbFqbFQUPkWLRAlj2HPakn1C5OwV+Vd+ZtdsUH5MkWpXFSMdQTM5uUuBJeEVqTw0nagRxmvqGKaBy+NRf0el+JXUyJAd3bAl8i3dVFwiS/hKSpPDUKE9SfQWbQ+7Ko8dkrbvaQOmGElXpUsbhuLDiJZIsdsrbt881hb6O59kJ4UHwaanxxjothvIUvFeB3HG0J9cptaIhiF/PKqGGH5Ftos4qoNSQUymuC1dqxICpSKYLBgRyZCQsVMVUuaWnMhlQjl/2ZNNkLqgVvm+Euexq0G4LZngDhVfFdgRiVxbTMiG0XbjinJnCXHHyeFTE9dhcRmygOxEeU3l+9m5dtK+fE8+qoaasykIQU4JtNqi6EWnDhsgHOtTtLPEJMTsFKC8w7B/NysvuIzKBw/iN0O23kDUriwYcZVMa4vd5Ze6rQUgtJryGt7V3/D9kMEURt0kde1Os+uv5ev77mJXgc4Vs95jzH1306BKda7t35dZF59PoyNZ7NP9nPfF52x89y3yxz9OWPNQZ+Ik/A1b8FTXu3ngtdcIffctW3reS728PEK6i20pqZw9fS4Hv/iKXYN7K1BX++77Sb7lWub17cv5g4eQXLsmZsiAYESFnT7p1ZfQ1p20HjKcSlaQ96e8xtljx+NP9UEoDAUGeTPmsX/0GLLcLnwP3U2rm2/l/U5nckpuDj4RcXLS+ovSAcs9CMeaqH/q36ttS3Oz1+XFd183mjzSD5KSsOTQIgY3BiSPBvmdZawEr4q0FOygrDpsOyIRdraDpC/b+5as5VhCdJFGhWxTzkFb9kNRllZVZDVTHcYlpVdtY7quRKNkB5Zyd7oS/bBTjpSUfWkBMSc9uXgXk90qttFKP2OWWLQ57OeQfsoaUTtZzLirk4mJpsCIlNMWx4TstZpd0VmNkRxkxDNgp0XbWU1OE07qjcqwiUtrLYkDygHCH2rBKRvreKgEZyqjqxL+HYWeWLUvmf6Sb21DRLt8uI0nbcNqr0SiCmXaxlwVJXHqn8fstHOetr8fp5ZXVFnMjKo67xFNU0RbtQhjE1DU1wSNWzphp/iTVBq1P7KyQurOQmiTqS8TW/VZ3Ufc+E7ZUkcmWFVY0zWCcp3zDPLksSQAyxHrUcREBRIcoKHu/RNB06IZYGtMqHIrlo4lrsGD+1jfuxfuBQtJjIRVSqK0L+QqASYCiGwPwq8Lr7dnZNDmzbfRvv+WDx4ZgDs5lVOffgZ3kpdVfXuR8vcbaXzPvYS//xav3w316rPrxRc58NQTZCekcu6KT9ny7lsUPDWOcK06NHtmMoGkypjrN6A1bULwYCZbH7if9FVfE3XrbEtO46yZ89m4YhmZT4ygQHPR4vHxpHZoxdxud9HlyYkE8/L5bsK/lLb/uaOGk/jl13zwzAu0HDSUynoh77/6Gn95fDyh9+cyf8IT1DI9VMgtIMPlYrfbJPDgvbS86VYWdD6TVnmiH2ErHsY2MjWKf3CA8IfaTH6PnZWDha6Tb5kcrlmXRpNewt+5M0pqUg4iKg5g7w+xNadWXqnlHSudLHuDHYq1DagS5opb7/YXVY1QVY1T1Y+QM4yoT4r2gCV7gf0NdSxzvAnSiLRtl5vXMFyaEhOTeg6xYqPqUOVofZT0Yf54LxLPcOwe8retf2IDjZioWZFUtRqA2IHKrrpXukXHH2frGahqsjHR9WKFVPFuFKWcOgDh19/Jfj+T7KTwIMhEEMlYmZcBQb+O26pYWq94sQjqlQkqU1tO9HqRapoDBEQxwVktRUhZzUJHqS7GCI4poClSkVPZzFbSUd6IcAwgOJ4DW4hOwIcsGFH4k9O8fSOl5Fe0okNKG1+gtkK6zmSOiQRJsRQhLsnUdpvOQtUtgiqOpyk5XFvW1imB7ZQ8LWo+di/lMTs+gBBxAILcz4qEOTDlVQ4NGEDF3EM2rHFiiErcxwFEvwVA2JmWTpv/vIGVm8PeGTOwatel2v33cvA//2Hr85M4fcF8dq7bzPaZszDcEZreeCsV0yuy6oKzOaQFuHD5J2ybOZXsp58g4a/n02j8OJYPnYCWk4u3QjKn9nqYzY/0w/fudAXMdiamccas2eTs20HhgrlE69Yj/R83Ys6bx8J/jeevr0wiuHcf6/s8SsjQaTJuFNUDfhYOHUaboSOoGg2y/KVXOX3U45iL5ilSZGowQkABSIvdCRpJD/Si6Y238UHnv1C/MBufIToa9kZYdGYqBwi/nx31f9ETJ01UDFuW7qLwkqtoNXkyJEnKbwKmKiJn7wm2WXfkm0st75i0t5zw7SqM4n63DzD2uVv2DqcddaIQsCoGWcIMzqlDE2+rfMkWDpL9TAK6aj+KiZip/cfmFij1R+cwExMKi8mRlwQlPx5YW/vWvrUcUaSehzrESd/FaxF3BLFThR2A4BwC1c+cPamodXlm8ejGtmoHWJUlfRRPpD4ef+v/Ymr80nueNAAhJiDnKjollxGRc4yXvW7E1DqfmHuqLH5eKfjonMGL3kuxeyv+VUVtt5ajVxhz9zsOCnVhmRNO9SMWvz/6lIw9q3rCmPvQWeTxJ4eiDSH+OWObxgnM+IjaKHTcIZPIzr2sveHvJPz3K9JKpDb8tDbjz02/ix/VzOQkGjz/HFbDunbhrIiJ9v7HfPnUCzRt2pDkCUPZMek18qbOx22ZVL7tWtL+cQXZA4ax7ft1nDLjHfYvW8i2pydw6sCeWK2asuLW3lTJN8n36LR56wVY+Q3rh00gSfOSl5BA06lTMOtWteOyUtXuvXl8O/5pXH4PzaZMIrpzN/sHjiEvu4BaA3uS1ro1n/TuS+t+D5PiTmD985Np0v8hrBXLyJr0PEleL4V5+eo0dsTvwn/79VS55p+sufYGUnPySQ7Zgk1y+irtgDmeMfw9khR/6SZ2sn/f1m2SYlAmIbfJbt3NqY8/geeWm8GfiiGcJU1O9gIQRItFwpk/4b/70dHaCVWWGujYZbJT2tuFs/sVVWYt+omaqlqM5R/XTpEKqfOzY287xZ0rLQp67O/Gbhy3kZfesOP2c0cvrejJSm31xxWE/aPPzZMCIJR4SWp+xZVIO+ob/DGO/XE7zk+O11NeNLdjBLPj/eLve5rJmUHSRLXsHHYNGEbW65OpYRXYZEy1NciD//TyPR7j9tOjYJHvcpGVkkie5VTgLAzjC0ZJtNyKYJWXHsB9JEilHKlPB4cDFmZqgISgiREMoSUHOKKFSQ5HyHNFyfOYVMuF1EKdkEtjf5UA/qiO+2AOyXqAsK6RneDmsNcp8hQOkxAsID0kYkweCv1eBQSTgyZe3cMed5gkX4BgMIjpdpHm9pOfl4/H5yY1XIhbStIqhUV7yMIui0MunYDfo6RqvWFL1YmQsJGEaUrWHJAIUVken5KjVg4Qft9r6ef0zj7Li+EXsa8QUd3N9sQ0Os2fj6d1GyJeIRcaKmxg4CkCCMdvUMsGCDYLq3gPK2YBxIGPElMyzqQ7F/8aAKGMo94xhrEUQPipq1WYudiXGr9jlzxAHqWRP/gWf/IBhJ+zAsu/85MjII4+VyhE7rR32NCjDzUKDuHWTYfncHzb0PEYt2MBBNvRo+GKSMU+IVFZRH3iTHATDRkYbgmBWHiFKKWKKVm4vC5M8TSoWKmwSe1aDaJ3Lxe5oyKDLKEcTRVXEra1V3MRDYVw+7yEImFVY94rTGYx3KZF2LDwiPqiJnULJT5rqBNbSMIDLhcR08QjHA/lD7XZJOJ9EGXGcET+dupF2PVHVZ8UMUx5Th30oDlVHeNPY+UA4aRcqUUAQU3/iGLe5wbS4J/XUm/kIMyKaUWBhbByxNsehONbmbEDVWnwWUJ4XLV5bIAQ93qKAELJQObx9+lXetXHwtTlAOFMa/ny5UfVMf+VXkN5M3/WEZBTiWFhrdnI19ddR+2Na/FacoqJZW441J9jaMT/IoDgKJdJWWfNqYwoblSRolWESAnmOGWdJe4YI13Jr+wEqlgNXjskY3NQbLdpRFjbimQpwELUKmy1NJsh7Zz2gQRJ9VYCNlDosZOyxKBLCeAwIvdsV5S027avLXSAgFRqVGTSoo89ZoogpksJZFscR/7Ixi7PIxyF8hDDn3VRneBzCTnY+YrMUCENRt1ecqpVo8azY/GffxaG7kX3JGJoNkCw536pz7GMZfzljuEsq6clTvRHa/P3AhBOcKhPtsvLPQgn2xv/tZ9XdCBCBex/eAg5L75MipWPZkUV0cdO7fz/AAgOIUlORQ5AUJkhYlzFiDtkU6fCrl3ZUZ3A7URVKXykyJMOcVMRq2K7p3gblC22OSl2OqgTpXKyVOReQv6UBiQ7Jay7cUnMlwghZyMVQCBk0xhAUCRUcWNYNliQ9os31mKAIAQzuzS10pgpAgjyXOUhhl97Mv9B23OmpM0vst3+kjlQ6PVypG1rWr7+MtSoCa5kOwPqaOXCywHCH3QC/HbdLgcIv93Y/ulajkUQiwhJonmQH2T/kEHsnDyFBkGToBZEt6IIGVSPTwP6LT0IRTnKdj5rrDyypduqEoqcZVmq9LOcwsUToHTbVJghRtiywwjCXhaDLPoVAhI8EQuPYj3bngRpW0pAxyjScp0CHkq4Tao1igSdZJhE0LQwUstJ6irZRTLtrBP7BCdZ3AJMpC92Zk1pp4B9rQ0Q1HeKSlnbMeHYz2MT7Xi8MOUchD/dslQPFJs7AktFZEh+IHMrU6S6r7uaZk+NB1eqnWFQpvvgKElLRxuucg/Cn3MilXqqcoBwUrzmX/6QYmjF3S5/SwaAboQwDmayd+yTZL02hYr5+aqQkX2qdahLZbCWf3lPjqOF+Mp/cbFR1bd4vpWTyhSLnaoDlPM/ZWWCFIX/pRG5OJYK9SPClaRuyTW2NNXRi1/FbhhP9frx8xW7j4/j2csvOSlHIAYQYloGdia/Rq6psa92XVo9/wzJZ51rV1YUvYI4pdSjZ0zFDeVRyHaxJIATJwr+sV5T7Dn/3zkS/+NhKgcI/+MX8Ee5vWw3Su9ARFlEjz3zMKsfegRt7izSCwqUgM+PPv8rgPBHGdTyfpaPwK81AmWgSFmRUbeHw/5k3J3Pp/ELT6BVTlOy7JbUS3BYCOUA4dgvoRwgHMMFfOwhLL/izzgC8W5rpaMeDRPdc4Dv+vSHhQuoHcxRsqsiC10OEP6MM6D8mf6oIyD+q7BIDrsCZOqJNH7xCRIvuxASk7B0f5HSS7xCSZGjoDQfodyDcBzJ2n/UmXL0fpd7EP587/RXfaISACEaRdu7hx8eeBBt2VLSggV2yqDIj5Ylm1zuQfhV30V5Y+UjcEIjoFQP7YBfgcvHrurV6fTqC3BqOyxfMoZuFxiKBwhHze3/g+fzn9C4lV9cNALlAKF8MvzkCBiGga5LQSoL1m1m2dXXUX33NhKjR1T5VNk3lL66aLKW/pQDhPLZVT4C/7sRsIRga3Nlgi7IdSUQvPJKWv1rPFZaOobLWw4Q/ndv5w9x53KA8Id4Tb9BJ8sIqhUTjuJIc1JJ0ogSWbGCTUPH4P3kM1KMQnS3YefiK4BQVIy1ZEfLAcJv8OJOkiYVmVTmoZQHVwmmCpCqbI84wn0sk0OulNRPlcInXH0nm0Wlrjq6/DESqsoGEc2KuDRVGdUY0S92WFYlCaRwkEgHS5ppHME19l1pK0YMtIl6dhk3qUUgeSqmVF+VbBhD7hlLH7CzDGKpqqpIsawhybbRTdV3aUeyaCKOYqZ8X9Jc5VMye8UuKCT1V2KpucXpsM5zOu24dB/bE5NIvfkG6j/QE6pXwfB6VSXImA+whDp63FQrnVJb1iwsdzL8+dZmOUD4873T43uiMgCCXfREXI6iHmj/i2A+fLmSVff3IHnTVpIN066GKXn4cXcqDzEc37CXX3WcI6BSOu1UkajmdgqrG3jMqEpRVUbRMfDKaKIRdtvaEGJgRZJaVQ5VehjFhlV+LwY0VrBMdClKp5HK5bIWxDjb1Vg1BSi8pq7alk/se9JHMfR2Gzaw1kwPluXFbYUJu6NEXRaBKHiiLjTLhaGZqi6BfM9+BvvnIvQlK1BKIkuasKTlhtw2SJFS6f6IDX7CJZx1NiSR6+Tn0nefASK+FVvixQBGV5Vos70+jAsuotnoEVh1amF6E5CUYBH2LGHkjyJmdDRwUA4QjnNu/4EuKwcIf6CX9at29Si5c7GKbWq7CxdiLF3El3feSZXD2SQ7cr/H3Y9yD8JxD1X5haVGQAn+FJccFsMuRtptangNIcVqhMWAO5VLVRqu8hToyriKdoWc/JUYlgMa7NO3mFBRoHCEqZx1IFqXSnpbUlOdKoTiNVBG09Gf+Kl3FPNUCHBwGzr+qCgWaqqeRsgVxWMZthdBAQRp05YRi+pyPxtE2NUFdTwi5FWUFWSDCLHcIrQlvRcgUCIx1gEaquqik4Fr63/YpZTj6cNSGtzQNDJNC2/n86k38Wm0JvWxfG77Oid9t8gVU1yC6Sen6J89zfFkXZ/lAOFkffMlNgNnEGKgQTanYD7BJQtY9+hjpG3YiF8JCokb9AQygcsBwsk8u4772YuwahxotcGB1MSwm3FEJ5XglFtO0lIN1e0mZJlFstMezYVlGEoUS/64XC7MqF0Yze3SiUYMdJfMXzvBz/Yi2EF6XepmmAaWM2eV3odbwxTujQMUVB/EKyFAxa1jWiK8bXsYXNK+YaBJ+1Lvw5IAA5geMcgWYdNUP/PK+hHlTgEHUVPV8YhqpgQjVJVil8vui/yPeCeE/xONRtXv3Lqman0oaCOgx+VWGUSCeQzLUPLfhoQEVeVEW8lICjmWBgjye6kXku324W7bkdqjhuI5rSOmP2ALjakxKq4WGvNE/NQLLQcIxz3d/1AXlgOEP9Tr+vU6G69aoBa3bHzhCLrLhRYNsfvt19k+fBDV9h0kKWzHUY9KRjxat8oBwq/3wv7ELcVwQVHZc1UvwyLohlxcBN1+AknJFGZnkWSGSBVajKkRCvjJNCG5alUOHcikYtgiA4PCSIjsQBJ6NIQ/HLJramRkUJifTYbYb8NNoe7HlZJC1IwQyjlMkmmSqLk44JH6GW5F7jO8Oq6IgT9q4fF6KYgWEtJMdN1Dou7GCkWJGFHl3o+KUbUgye3FUxgmwYzgtaIiOUC2CXs9XnSXjwx/AqHcLBLFoxARQAKZ/kRMlx8vUSIUkup24yoIKQAhVT8FMGhRi3CCh5xohCRPog1Uogaa5iYSKQSPmygmXrdFSkGQDMPE47FBUXz4T4CD8nYoIodFgctNTrMW1B01hqTzz7eFxFShseKAQTlA+BMvvmM8WjlAOIneffxJTZUwdXgEitSlgroWBAvZPfU/7B76GCmZh0jDsusMFBHDyshWKAcIJ9Es+vUfNTYvZQ5K7r4KF7h09latSIs+fXBfeg2WsqR72TpqKOYHK8j1eah/352k3XwbZqGF7k3lyJR/s+PVF8nPzeWMBYthw2pWPtwHLRqhw1uvs++bL9g9biyJTdvTvN8QjCZN0VxhCr5eydcjR5J6KJfmLz+Hr2ljEM+D1wWHQ3zc4zFqt2xIvR63gVfqbeuwLZP5IydStVFT2j3YFSQhICUBjuTB/my+ebAXiau/wuPSyDj7XFJfmITS3TajsH8HG154hYNz51K/Uweq/esVcAcgmAXeIIfnvs+qMc9SqWEzWg4dwKze91Ov42m07t0VPB7QK6j+5W/YiF65MoHkZPD67BVqFpD3zMvs/tdzJHtMJWAWA162zRfPgIQ17J8bmouDppucqrVoOG4cGV3OtXUS5FKXXlzvQ8Uvjv7uyz0Iv/66+D20WA4Qfg9v4f+jD+IpdaSB1YZhyv+L+1X9A03AQV4u2yc9z95Jz1Nz/z68UVOVMLbPHDYR7ESKxKq2yz/lI3CMESgBEIT059bJD3hIHdCP1H/cwHeDn0A7mEnzq7qg16zEl7d0pWqXc6n7WF82Pz+V6NrtaM2a0rjn3ewYNoj/zpzD5cu+hKQAOwYNYMuCOZy1YCE7vljJtlEjOHfK62Tn5bHxhRfxZWTQ6N7bMfbt4f/YOwswq6qvjf9O3JiGoRtUGhEUMFBsxUL/dhe2oihYWPjZYKCCIJiIgS2IHdiCiElIdw/D1M0T37P2uXcYkBaUGc7hGZ2598Tea++z97vXXut9f+57G11eGYmViDH7tTchEiUj4rB60jRChx1Ox94X8/OwhwnGTRqdcyHZNWrz1dln06zN7sRa7UGb667hh5tuof6y1SQm/UJ41WKSukbWIYdS+/mRzHrxRZgxjXCL5jQ6/ngm9etDfkhnt0eHMXvsB0R+/JZInSz2Pf9ipg96lpVzlnLQE48y6vILabbXXnS9pQ8THnqIrNI4maZOyeJl6Hm1cGvVpf2VV7Bg0kTKvviInN+m4UydQaZIl0vGkdoI8eZ38SB4f3nvtevqJDCJ6AbLsjPZ/ebrqd3zMtysbOJBA0t3Ec7FkGOquA+FEyqIm1UEDamSiT0AACAASURBVH6QYtV71X2AUPXadJ0aVcw0KPcCpNO1XBvXiqPpAeU5WDDkSRbfezctJFPB+rs+gBpYtmYU8AFCFe9d26d6FQGCTEBljkugaV3qPDUYO6Ez+bRLaZywWZ2fidWhFct/mcyRD9+D26wBXx51Lq31EL9pCQ5+/zUyFs9n5I23cP6Xv2CtWEVSd/n6onM4/PW3mD9lOqXDn6b9yBeZN/A+Es8/ix3IpbhlIzIa1abkj5l0eu1VIosX8HPfm2gYzia0qohoSRLO6Unbnmcz7txTCa6MsPsjD9Hk8EOY1GIPGjlJVh54EHuNHMUX+3Sg7YqVBFLMomWGRsZB3ag54kVm3tCb8McfYDXbnUajX6bk9wmsevsNmj8xmMl33sXKd8dQ2rQhpzw5lDkffMa8H3/lsEcf5ZXLe9KsY1v2v743Iw4+nAaFhdTI0MmKJMlwMihq3IS9nx3B/LffxBo+lPykpCDrKkhTpn+REPMQwlovgKfFILsMbupbYV3UWRI0aHHDTeT06oVVPU9lhkgSZNAWz4V3vYpv2EiQ8/bpEf5ddhYL+ABhZ2mJHVSODe0fKmVCCaySICiJAotEmPP44ySeeoLc4iIClq2in9fHAj5A2EGNtIvfdl0PApTaLtruDWk8bDCFk6cwp/8jNE7axDRYFgxQkizlsFHDWb5yGQv63UvDZIIFIYP6/3cPjWpV49U7buOsz37go9vvo/t5F/DNuHfpcvY5LJr6B+FxY6l/7yDm3XUr2ruvE7IyWGMkiIYhWKshe7z8HIHmDUkumE0gkcT4cw5TH3iC2HEnsXefG/j9zVfJCwZpfPhhrPnhW+ZccSX1HIuVBwlAeHmTAGHq1deQNf5Tiuvls8eYMcRWF7Jq8JM0H/Qg0QVLsReuxm3alAxNZ8yll5FdqwZHPfIYoy/tScNOrel6R18ojECxIPwoC27qR9kPvxNvUJsOzz7D/HffJqkAgqWkzoVbQcdKpYuu6/wr54/wBFC9uARJ3wyEKDB08s44lTq33UaobgMsw0QLBFP+QxEi25pVwi7euSt59X2AUMkbcEuKX56coAYC7y9NBg/ZVpi7hFkP30fp269Rr6yYgOwCS1qXJI+v537wAcKWWNs/Z2stUA4QHNlad4lKkGLdfBqMeBp3VQl/XtmXOvEo8QZ1qHPUUfww+jWOfOIBivOz+Pm0K2mLwXQ3wb5vvkxo6SJef3AAp3/xHeMv70X1oMket91ERr3GLPz6KxKjXmCPYS8y/8E7Sbz8IpqbR/b+B5C1W2OmjP+C9m+8RGThHH6/83byLY3s4gTR4jKi5/Zg3+v7MGXICOpYSQoWzmf1xB/JX15ANrDigK50fOllvuy8N+0KVqmMHznKTJ3g/gdQ+/lXmX71TeiffEByr4a0eOE5iif+RsGYj2jxxH1Mf/lVlo//gWpdu9LurHN49fTTqVG7Bsc8NohXe/akWYc27Hdjb8b16kPdFUVk2mWYixahlcUpqlOLfV4cyex33yP59DBqWImUB0G4DSw0LeVBqEAwpRYOqXlesh/SKZKGLeLjBssyghjdj6D1Q4PQGzfCNVIbjanMiq1tY//8ymkBHyBUznbbRKnXm9XTfzqaykSQlYNiZLPAXbCSGf1vJzl2NDVjRQQqLAwEIKybQb02gGyLTeZvMWyxqXblE9cCBFel80WFnysvTK17B5B7/ClMurAnZUvmc8gVl2C378hXxxxHy4vOpWG/PvxxTT/sv+YQaL47bUcMYtE99/DLO2M44auv+fnKy4lPn0qrQU+Sf8L/mPvii8y/qx+HfPYZy3/4ntlPDSWrRmPa3ngr8dUr+e7mPhz07tskli/h1/63kxFNUo0QRasLSZ7cjQN69uSzcy8lb94CqsXKyFBU4waiaLBk//3oOPJlxu/XmT0LVqNLRYBSDXIOPZTcIc8xecDjOH/8Qd7hnWh51ml827cf9Y1MdhvyEDPuuYeit8aysmE9jn3tVT77v3uIFhVzwmODePninuzRrhX7Xnc9Hx57Ai1WLifsxgjoGnFNY1ndOnQe+Sqz3x7reRCsJJYmpE46OsnyGISKEUEVmRHt1EpAzjct2ZrQSZgaqzKDFO65F50HDSXUuiVupoEjaZSGgSGYYytDknblPl5Z6+4DhMrachstt8SBr+U7SRG8KTo5W9KrNYdA0oVZy5jU51YCX7xNHd3CScYJmim62XJthXVdiekI8y02mQ8QtthUu/KJ5WmOjuffEiKgspBJtFk79rzt/0i2b0WirIAQGvPvuBf7k0+J1KvP7n1uIPvk43BWrESvVY/IB+8z65FHKC4r46AvPubXay5F++Ensg85jt2GPs2K999l8c03UO+Iw6hz7U04ObUwMzIomjGV3+++g7xIgpYvv05o96ZQtNhL7Yk5TB/wOLHsAB0uuZCvTj6F3VatITMSU5NlmqhpRecutHv+RX7s1pXmqws87RJEA0GjWreDyRox0stgcBLYBYUsffklFr7yKk26HED9Jx5k6d33UfrGOJbXrsGBr45izttvMOOX3+j+2CDeubgnzdq1oUOv3nx9wgk0KVuNrkUJCV10ApbVly2Gl1j+1lgizz1DnpVUZEgeO6ONXoHbQcqU9h6kQYKbKqvumGgSa6DJ9RAzdNZoDrG99qd1/wFkH9IRJ2TgCkBI8Utg+NsNVfnd9QFClWjdCmsDLykBSzwFssJR45REFonrUDwHZSRnzmL6jXcS+Oo7chPFmK6lrGCktBUUjYsiRPLiENJDgA8QqkRn2ekqsQ5ASNEnywo4ZoSIZ+cSyc5QwYbhWJzcwiIyExZxwyCSmUU8JwMnxWAULo2QWRZRf5fkVyOrtJBwJEYikElRfg2C8Sh5RWuImwaxnGrEgxlqujRjEUJlpYRcjZJqNYgKq6CbVFTIQlscKI1g6xqBgIlZXEyOZSkvnMoMVrF+DqXhMGXVqpG9YiW5Qpgkbnul5aARD2Wwuno14oas6F3MpE1WUTHhZBI7EKQsL4dgSYTcshgx08TKzcGSAOJEAj0zk2QkorwURjiMVlpKlp3A1Wz1fosnsDRgYOdWh0SS7NISghWdiKnsJa/R1+U2SHcEOd1bSMg2gtBKe+RTEugYNyBiZrOken1aPNyfBqeciGsGMNyEF9SgCWOkf1RVC/gAoUq0bDpxyYtKlm0E8QAGRexG6SZo2LaDZsfRS4tZ/sJIip4YTv6SZdgILZ03ooi8TIrArjwQKS1g4w2D6+ovbNZ0O5sHITUSlg+Im63AdjrBj/jepCHLzbOldlJL3/WFA1KPKAfE3s1kdawJgNiORzpITwk2lQsqCzuji8zZ6wbxpZ69/ruggoC97yQeKB3vowmLYuoQb5+qQ+q9+3twoMz+3jkenJe0xXQisqQkesHIkp7oFbMC3K8IIlLmlIvLP079Lp6EYjME+3WlxTuv4uRVw9IMgsTUiOERQPhHVbWADxCqRMuuBQjCpqb0FIQqFqGd9bKbXKGZLSzgj4cHEn/1bWoWlBFOJNG02LoAIWWPtEZ8VQII5Tz1m+Z82f49Iu3LTQGx7f+Ayn3HLcUFO0st0xO18hCoOX7tJP33MqYn5fU4QdYDCGtzhtYSI68FCBtLL17LUeIpX6YCkFMGlW63UYCwfkHVvsNa1CALjbQWxfyaNWg05Amq9zgGK5SlRpeALCwUQBDfhn9UVQv4AKFKtGzFLYbU72qbwcaxbYIxC3fOfOY89jiLRr1MfVM44T1ypKDrUdGqVUiF9KWdFiD8g9lESfOmFlLbd025gU6UWq2J6I4jA2l6IvFBQqV/49YChAr6z1tbq40ChLU3WitlvXUAoWJRNgoQNuDd80RaJUgxvSupUxJPUHz0EbR7/lncmvkkjZCIU+NtWCpShK0jT9taO/nn/6cW8AHCf2r+7fXwvwMExZooLsaSGNr0+cy7pz+Rz76gdtJBd2JYuvDAC99BOtJgBwCE1Mpqq8iVNmeScjep+HI3d/K63/+nAEENpna5t2brSr4lZ/8D5LQlt/fPKbdAVQUISmxa05S0tLxaEqC4UHfZa/gQck4/HwJBXCFgkn/q3Uu74rZCwM3vR5XKAj5AqFTN9ffCempya92L6X1EtftoO0Qn/s5f/e4l44cvqWHbmLamth4sLYFleBkP6V3LtAdBbSukvAmb22KQYMiSoEnCEL42b/AI2TYhxcZoEQuEiAZkBS2BkC5BxyEjCWHbi2mImRpRM6iC0KQeWQmbLCupoEVpMETYtjEcW90/JjnlEjSWdIgGg0oiV4KphDHOdG1MR34kcExIoCwyLBtL1PA0CTqDsJVUQdcSLFZmmOpzjz7WIWQ5hCVOAwnK8uR2BTxFjDCW2hZ2CNoumZalRKtKgyZJZT9ZcXn55hmWcN/bJCSgzXYJ254iX0KXsgeIma76XKhvRRY4M+mR2IgEcVKIbSRITJgEzaByDWuKL98hO+Hx5pcFTOJSAQXsvM+9Z4jlU23pk9js8De68gKE9Lu+YXAtcUtev5QEZ5OlYZeyfVqw9+i3sfObYGiynZCK/VDZCxVDmHe42f0H/AcW8AHCf2D07fFItf+Z9vLJFJ9yIljCkijbCtEYayZMYMGtfQlO/5NqCRfDEiggk7jHpagSFdIBXBVjvsoDndYt6YaIkkoCBtXOORVz705ELA3XdnEWLqbgi/HE/5pGnVPOQe/UibBRJAK3mJEEM18dS/UpC0kEoaRDC/Y88zxCrZqSWLKAGaPfo9rPkygtK6XxNb2J/TCReRN+wGnVgr0uOAfmzmXKK6NpdfWNJPKziSRLcDWDfCPBn6+9QkYwjzYn92DGe2+gT/qJlXqA/XvdxJ9vjiF/7izCrsXqjCA5JxxP/j5dscwQlh1l/vc/wg8TycvNpGHP85g+9l3q5OWTd8T/KA3IJkGcxZOnEvnkE6yC1ezRqxdOvQySrktIy8MsXcOSt9+mTq06ZB/QkcUvvULmrEUI8/2arCC1jzmaRPOW/Db6bQ488jAStXOZO+wZjDUlNDr6CEIduzDp6efY57yLcGrXJWqYmJpNUE9S+sIbLJ41H/PYI2nT/VD0mjksnTSBhc++Rq1lq8mxhE0/roCOiuj3j8prgYpy6tsY5JvexarIdeAZZG2Mgchlrz3WxjDJpG/a0ptMFuZl0uHlURjdDsINZaSomt2U98D3GlTeTrblJfcBwpbbaqc504tqTsc2y46gp7kkA4DtWhglJSx74UUWPDaAOkWS6pVQ2gqS6rhuJHQFJLCNAKEwFKLpww9hdD2AJeM+RovGyT1gX7Lzcvj8xFNo0/9e6pxxBosf/j/ykgly9+5MvEY9pp11AUbz3Wg5+FG0WXOY8/knNN2rPebBRzK/300smvAd3caMpeCVt/npw0854IH7yA3B9Lv7s2rqdA789jfWLJyHM+ErQpqGYZfw1+cf4rTvQse77iby60/82fsaVjoGx705ju+uv5EGE74n27VYmhmgyR39yO3ajanjPqRm3TrU7t6dZW+8TvKnn2n06BNMurs/dRvUp+75l7DsnTdxipbT+MxTKXlrHN+PGMXR77xNbNks1vz2G8FkANNIsPDDD6h7+JFUO6UHi6/tQ8bEX9XKflmmSdvbbyHafh8+v6Ufx/e7HQ48gFX972bym2/Q8eoryTr+JD4861y6PzMCPSuH1V98RaioiCzDITbuI+ZqJnuPGsX8118lsmwJTc88E2NZAfN69aJ2wUrlQRFhHeG68I9KbIH/ECCIJ07IkuT/K0KZGKedTpNHH0TLzMANh8sDIcq3Fyqxmf2ib5kFfICwZXbaqc7y1v8SRSyu5RAivCKuai0Zh1iEkhEjmNX/bho5UfQkWOI5UCvL9QOK1k0VK197bqEHQSKdC8Ihmgx8DKtNa77qcyOFCxbT4tpL6Xz5RYzf9xBa3nQTtc88g4/ad6BmNEJJu/Yc+eJIxnfdjwMu7UngpJP48OAD2SMWZ4ER4vBPP0ebOYM3b+3LqZ+9z9fDRtFt/0Nw6tdm/Gkn0bSggOJwBh0+/owJn3/GyueGk2NJjnwxURLknHYG+9z+fziuxsQ77+KXjz7iynEf8M31fWg6cQKheJTFWQGa9u9HtWZNea73DWTm5HP08y/hJiKseOghWj/xLD88+jCN6tekxnEn8e3ll1A2bwbN776VtvmNePGKvpz/4Qf8/tqLTHpmBPWycklGCskIGOxz2WVUO/l/zOvdl5zvJ6ktgjm6S5f77iKyd2c+vOF6TrlnIE67fdDCOq8ccRjdTjuVGkcfx5jLLuGEQQ9TUFrCR31upHZxKbmaRs3S1VQ/8QQa3TeAp484glqROK07dGa3Dh1YMOolai5brFLsJOrd9yDsVK/q1hem4rJ/GwNat8yDUNHTlMp+cAQgSPihzuKGDag/+AmqHXoAZEnmghAo+V6DrW/Qyn2FDxAqZfvJCy1EJZL3HBauFHSrFHfRQgoffphlo0ZTw3YIJWKp7YRUJb09hQoh0Sq36e8W2AKAIJ4I27ZZbhi0HvwkxrE9KJkyAzsap1rH1qz+5nN+u/4mWt3zILXPP5fv77kXs6SU1kccRakLk6+5hh539iNSO5dJF5zDXo7GEtsk8+ZbadKlK89f3pOLPn0TJzsfPZTNH08PoXTAQzSPJFieGaLtxE9IZGWRnDGfzFAe2oL5fHBdL2qedgZdrryGL4e/SKfuPXjhhqvp9cqLfH7DDewx6Wcy41HmZRg0vOc2anU5gPHPv0J2fl06XnwtZd9/S+F7r7L7kw/x88AHqV+7IfkXXMaPjw8isWoVnXtdhznpFz4aOICTR49GD5qULVpIOGRilJXx8Q03sPcZZ1L99FOYfeXVVPvxZxUfsCwzwJ533U5J58681/t6zu1/H5OWFtN2771Z+OM3hMtKqHnI0bx3/nmc8NzThJs1Irl4IaGSEvTSUqbf0pvCQID2r7xOVl6Qgj+nM+/7XzG//Q7jp9+pIbEMeqlqWYlj8A/fAhu2QMUthg289urrAHEjk8jRh7PH84MhV8CBCXrYBwi7YLfyAUJlbHSVrywkKYqqTaUvu4vnMvO63gS++oJq0QgJS4IRdSWy4hg2hpJvXj+w6J8DhBWGQaunhmK3acXERwagrSym2cXnU/OATkw+40waXH09DU8+k9grI8lwk3Bsd+ZOnMT0m+/mmLv6E62Rw8/nnU5rO8nyYJisfnfSpM2evNLrOs5+7w2IljLjl99p1u1ofj79OOrOncUKoMvXnzDv9+kUvvy2mhjzStew4s/f0U85hU59+/L6eZdw5K13MnPKr3Q5+QQ+7nMDzX+cQG4iwawMjQb33kmjE8+BGUu93MfJU5j0wnDqt2hI/Scf5I8HH6JOrcbUvuwamD0bSsqwl65i5uDBzFu1kCPef4uVX3zFwvfGYeCQ58LSKVNpc8UV5J1+BnOuvpLcHycqqV0RvhGAUNqlE5/cdCMnC0CYPJ1lX3zJkff0R1+4iGTjdrx33hmc8PyTxAIuvz8xmOyFi6gpgYm/TKLYDLCiaQuaNW9Gsw7tyTrqSOzS1Szqexvmr1MJugIG12akVMZu7Zd5R1ugwmKgQjBrmj9BxpGEZjI/pxadXhuFeVAHhH/dQZQcg6wbt7Cjy+rff2ewgA8QdoZW2OoypOIPFJWbEB5YxD/9hJ/PO489osWEcbFEmck1VAS+7E0HLC8qf93UwG0HCFJk4aJfaZq0HDyUaIvd+emu27CWrqbO/3qwZ++rmXL26eSe35P6Rx3NO+32pDrQSqRrzz6Tz3ucRYczz6JGzwv4/PT/EV46n1j1PA5/6R0S47/ikycf5/ix77Fg5ItMGf89hz3yOCGjjJ8uPh+ruIT9P/6I6V//wPLBI8gEMq04a0qKCZ94Evtc34u3jjyaNkccQ6sBd6Ml4nx8wWW0nDiBnGSCWWGN+vf2p0GT1oy88GrqJxzqWDamlqT20d2o9fjDTHlgILVq1ifn9DP49IoryJwynfquQV7CZkm1DDq//xqzXnuHeW++Q428bOIlxSQsaH3u+VQ77yz+uPUWzF9/UzEIhbEEB/W5npJ9O/JF3xs58cY7mDVzCdMfHcjhd99OxqknE1lQwLtnn0WPZ5+gzC3h2363k79iNdlJl2rxJE32PQCn8wH89OIIlrpJGhx5GAdcfRlLb70d+7PxZNriUZLD9yBs9eu0K12Qxgi6lzHj8YJ4WTJyFOpBcnteQd3b++HmZ2GbkjUjWUABdH+LYVfqKd5o0rVrV/ebb77xNb4rUdN7MQh2SsfdVOl9WmEBM867AP3LL6kej6t9RF03SOq64ouXFD2JU9heAEHiD+RHghR3G/wUHHIoK3//ExF7y2vaGH3ODP68oReN+ven9sHd+GmfTlQr06l1zrnUuLEXP3Q/GiMvm7aPDSQUymHRX7/SsFlj3GotWdD7OpbPmMwBn46j7OmRTBv5KvnHHk6zAXez5o3X+eOxQXT7aAylwTCRmfMJOgahhMOa8V+zNBpn7149+fKYY8gixD7PPYLRpgMTzr+W+j9+RRYWCzNMGt92O9WbNuW7npfQwAoQSNhYmQFCB+9P3YGDmD3wMXLq1yO/x1FMu/JyglOmU80GwzZZll+ddu++SiSUQ+niJWSEXFwrzoIPxlOzem1qX3EmZbNnoRVFladn3uj3abdne5L7t+G7W+7ikOv7s/TP2ax44mG0dk1pPWQQVtzmiwsv49DBg9B3y2PNnNkYxXFChAh//SOzJ/5M6yFPsnrOHywvLqThHm0Jrypk9vV9yV62kJCbUAQ3axn5KlGH9ov671hAgQDxt3mZCLKGSOrCfSAKr5pKtS1t1JjdnnmGYOcuWMEwriZqkCIALV4EH3z+Ow218zzFBwg7T1tscUkEINgKIMi2QcDL2bejLHlpFEV976DR6jUIk4Cgf0si/AUJbpC6fts9CGpbQ1yShkHu/p1xa+VjuQ7JpEPBsmWUzV9AtdISctvsSa0mTZk/5j2CSZvQbq3J3a8zc78YQ6RgDcF6DdntoEPJ2K0+rFjG7+9/R9aaVVhGnJrdDkKbvYTItNlKIKbWQQcSqpbBtB+/plGXThAMoyVcMjQTI5jByilTsCIR6rVryl/jvyDHCFFauwYt2nViyVffkVdaiq0lWWHHydtzL2rk5THn22/J1QzsRBLbCKDVqUH9w7szf9IkapgQbtGEOZ9+Sr7Ec0hcqKtTFgpT77CDMHKrk4wkCWgOhmmyYtosVZbMVk1ZkygjYJgEHSj4ax6hjDBGw3xWTvyFFq07s3plCWWzfqYwADX37kSNzGz++Owr2h/UlWRuQHHsB82AShu1lxUw64/pOPnZ7NnjSPTGjYn98geLPvuSjOISQm5SEV/JKlDpafiHb4ENWSDlJZAeYsq7awoniJe5ELANVodCJC49hza33gq1GmKpCKak6lEmpg8QdsFe5QOEStjoHkAQCl+Z/HVsxyFgRdBmz2L6uVdQ59cpuE4UK+Aq96GQC3m0rQoqbFGQ4oamGTW+pL5I07bLZzEh/jF14qm87TAGZtxWYlESQGkHNBzbpZqo6Nk6JQGTUKaLHomh2wZl4RAJ11ZbAdX1EJptU2pZuCEdLe6S5wY9bYlgJqvsMrVtIusZV4iNXAgFgiTshBr0lDdFF5IhF1M3sRwHy7LIVHXXsQydhGhUSJClYxNUfAM6hq4rL1oi6RJVmvcucStBKODxM4tmnfpVhLA0HSugE7VswmYAU7IogkGikSiGbqh7RzRLeW7CSQgKUZJj44R0shMuYT1MmasR0GPEcYhp4gVy1Y+USbgswsEQ0UQczTRwbJNsw0C3YxSZELMccoEMG0KplWBc4sik2D5AqIRv9L9ZZE9jQRQfRVY7rmsEnSCWFmB+7Xz2HP08GV32I+6amEYQWxOY4MUz+R6Ef7Oddo5n+QBh52iHrSqFTMq22mYQZK/huJ6SnB4to/S+gSwf9BS5kRLcgKB/YS/03Ihy1hZlMWxVaTzQ4MiEq3nbDrojTIIyxwpjo7dSkTKLdK6schOGhm1KaqZI1nrS1G5KoU8lYqZIn2QyNmxP116+Djo2SUMjpptqy0TYBIVOWg4lbCPbpQ6EHNn5173YC5HNTTHEeWp2urKFnCiAQFjly7khHBfDEZDhkhSwoIt9xbMgqroykHrhXI7uxYAIUJGyin1VGVI5IXKPdDKBaZfHkqpzZGCW+srKLSQsimnJYBU05uJWYGNOh5jgBAg4Eirm2VPK4GUseHhNgIjUSQZwPxFtazvvrna+eB1T/VBXatGYbiZzDWhw6QXUfvAB3HAWjiZLD++d9pYWPjzY1XqKWg/6MQiVsNlTCQxKbyFVfBWAmLRgyTx+OPhwGi9ZqSRZdV1Wpp78s6uU19bPf95AmuNWmCSVSKEGE932tixkEhPvhu6YGMpFmaJ2dQQp6FhmAkcLo2kWBpbaBlEMrqkJU1bqUsqkTHqu0B4bOJqtJlQBEkk3A132RgWMqJTMlNSuxw+JQ5i4FiRp2mTaURzdUXutAkZkApVJWcroDXtCKutNrJZSxNPITAqokJIHMLQyHM0kqQfQkWc6avBM6N5U7IEc22OYcAQceSszaQ/5Eepa+Uy+V8+skGUqnwsttJtqI9VOqevlAgUEJdZUsdsJ8PHuL+s59Z3msWEqkJQayL3W9bcZtqIL73KnCsw1vFAEHBsitsncFvU58KvPoVoTCAQ8j6PuAe7yhAe/W+16fcUHCJWwzVNzejoKWb3LaqZ2IVpG4YhnWXXb7WQ5UZVmJ6t5z3uwPs3eRmIQ1jHJpgGEuoMMJDL5qskrBRA0HdfR1SpfyqDmLAEI4qLXRQ1GnPYCI2ylRSABDXKt2jZRv6dWxQoFeSOVULgIYHDcQCry2nOXpuddT91Bni8uUwNbeRDiaiSUgKz0iluZKrUuktHPE6zyQJRa5csWQ4owRtMEzIhHQsou2gkeQBBRhjBcJQAAIABJREFUG7lK/hYApPQwUoBFQEFaKlcBhNT8LdeoqqhzvRV/mr5awI4hWgyuq8BMGiCU0xqo7RMBHSl7yLUixqUaXoLOKraTP5JXwrf6Xyyyi+BbAdtxN0BhIEStfjdQ6/rrwKym6Nddw/OCpRxzvuzCv9g6O9OjfA/CztQa21CW9LSgpgQX7LiL/ddU5p55Eub8+WRZDkFHYhEqEiSlH7SFAGEzjG7lZagAXFRxlFhEhfVsyg2envw83RdPaio9yXlXrFMr7091rbhOtmzy29Bp6Xxv7wnpYArlB0iVwJvJN0dgVzEWI61dk7qBZ1ivOhv8PVWVv7d0hfl9Y1XcaLm2zCTb0Lv8S6qiBQTIylIhoQdZY4QoadaUDs+OwGrfnmBANBfATW0L+gChKvaALa+TDxC23FaV58zly5l2323wzKvUi3mxyMpV/beJZPsAhG02jJoU07vma93k23y/bblwZyjDtpTbv8a3wLZaQLxRsoWmGSwKB8m79lqa3doXKxDC1FMAQTwIKY0XNWx4DjP/2MUs4AOEKtbg4qLW3ARl33/JHz3OpXlhhKDs5xsSub/+doEPEP7GNO0PglXsjfCr8zcLSFyPFqBQdynYrSmdx7wHTRqCEUICYpUHYe3OnocLfICwS3YkHyBUkWYXYCCH6zjomg2JUhac3RNn7GdUt2zsCgBBrQzU6Vuyat+Sc7bRiBv01W/jvfzLfAv4FtiwBSpsd6V/jVuwIr8arQc+SPj0UyCcAW5Isa+qrCQV/av5MQi7eJ/yAUIV6QAKIKgfWwXLKQnHPybz8/En03hVGSaWCmpLbzOkAwrls027DncgQKgitver4VtgZ7VA+TpAUSp7iwIJjI2gs2bffWn79FACezQBIwhOyAtk1gUgeOkLXgyCCgDytxh21kbegeXyAcIONO6/eWvPgyDbC0mPQ1XC52OrmXvttfD6u+THLTVAxCWqXiL3VUS8xCasBQ2bXn5spDbl2xbrBRZWPL3cU1ARjGzi/H/TcP6zfAtUSQtIPk+aIC2t8imS4BKcCIWZ+dTrfzc1zzkbNzdPbT96awXJ1pHsmIoAQcCBSr/xj13MAj5AqFINLonNcS8t0A6CG2XV+++x9JrrqLt8jVIdlMFBAIKQ+4inYfMAYVMGquhd2BxASDEQlA8y68dDyHP8EahKdUe/Mv+dBVJbjkqzrUIosKTylgSCrGq/N/u9NAqrYWNFY+5qtuITMSV9QVhaU+QdklbsUST5AOG/a8z/7sk+QPjvbL8DniwAIZmKMBI+/wQsXsDEiy+h+o8TyU4mlRfBFJrfFEBQrIDbPC/7AGEHNKJ/S98C/9wCKVIwtesoW4spYqSkFmBpZjYtBj9Cdo+TccM5JAyhGRfOEPEiyIk2jrgYBRoor0KKgXWbx4l/Xh3/Dv+NBXyA8N/YfQc9NRWHoO6eGhGKVhF5912+u+oKdnNcMlyDgDgSU7zAoujwt4X7RsIS1okpVM/wAcIOasid67YpGmzfwbNzNcsmS5Ny0Jm2obwBtu4Jiq0ysjAO7MZurzwH2XmKXdUSSWflPUjHG3gU5vLP9yBUojbfAUX1AcIOMOp/fUuPJdAlmYwTsG305cv45bQeZP41k4yYTZbrSfq4bkpEYP0Cp1Yf63+cZv1b+7kPEP5JW++IKIz1N27W39FRkSqpDzcYd1ZeqIrMTSmuilS8yZaWe53zNrkD5X25Ibb/depTEbj6q9nNdz3FbipZCULJ7ZB0DRbUrM0ejz1BtR4n4oRFCdZjFVV9QWIR03aVTKg0Q1lKw8QHiJs3eVU7wwcIVaRFK071nnPAxXETuI5G0NWIPjOI6Tf3o27CIGx75EnpCOe/uRB8gLDFveLvkRSeWzZNxyhbuZ7nJZWGWmGCloAxXe3xpr5W7mAlQOE9P0U5Lb+KGJa6bcrtq75ORaVXnCtVu1f4IH3/NN+DUG4LaZYcpmhnrK/joHQ+1pZBnikU0XIfT4QqtSVVvjed8iSlKSVTAiFShHSGjKxC02f9fZLx9DOk2krYKiX85dV13cPr4yLyJUJbW9xEu+6JCg0KZ6J4BBxKMFh16KHsPeIZ9HpNFPO5smgaeJUjRrX/6AOEXbfnlNfcBwiVvBOkgUF6opI9R2+C8JQSY26SsO3gzv+NRWdcROi3uZi6pyngMRenUpjUDTanBbiB7Yj17af2MFNHSv65kpt4o8VXstupIDAZT4XAVuwp2hdK2UFzyUh6M50SsFL89zq24SiFSFmkyaSrdngdT4tRqTrIik9z1MCtRLgQ9UeJPjfRXV3Fj8ghqpimYymJa+/Z0p62t9+cmpHVrwoHeDOq3EfAhmHrhG3vWY7uiU2ln6XEs1Jk1JIMU2YahCyTrITUQbQzvLA3zRGZK9GEkLqKvoYsVvXyVaujS+aMi+ZIEJwnPS4qm6rPpbYtpLxiCNnyyk56QlcR0yuj1FM+VxLbaFi6pvLzRclT+rZ/bN4CSuHENYgZAQqysmgx8CHCZ56FFg4puypF07/Zcr33PD02+KBs8wavYmf4AKGSN2j63U4DhbTksBIQcqKYlsi1RSl4cTjFjwwhb8kaLD3piSjJ4CvCLN584AOErewL3i6tZzoZbMWOstJWAEFSxZBJzpNllInN8wJ4ypS24WJapifQpCVVRoms9WRAT6bUHWXCTnsDRM5Z5Ko8yaoUmY3mEHBcb+Wt7i+TrTzVWwCm1T6lTyglDhG6kjKr8BSDUFLKImWzVJCaKqNaUYoXxDtPhKNEuTI7oZNlQVLEsFLy0mvBpecBUFgktRpVHiopiwInXjyMACQleqVO9FCMWFCi5yXlNmQ7CiBETVHplDt4mS/KDa67StJawInIhnsAwZ+xNtdl0wCh1AxTtH9nOrz8Eon8fIyQcB54Hqk0iFx7Lx8gbM6uu8r3PkCoIi2dnqhkbpL1ZEAYFRNRtLJSpj5wP8XPP0+T0iShZJKkmVJZFCdCOovBBwjb1hNSM6JoRuqG5yZfOymKO19aQyY2lUSmFC/TglCm8vGKtyCJawhg83LRYwblk6BMmHK9CipXbWtgaRJ1rqvPPACikTRkBW950tcp1KjAopqUZbWve2lsSj3T23eWADYBGzLhO5o3OcsREm+G650nk7LcL9NCyW2LeHdCc7EMz/ugtisEUDipiUYVJ7UZkNrBSDs0BCAJSvBUSD2BLKWkmQIL6bRbAQNSXimPlCHkOIoqXMCBp2iZUi/1AcKm+2zKqyWaCyszMmg95l0CXffFNYIp8Tbv8nKfX7knwQcI2zYYVL2rfIBQhdpU3m9Lhn4niZGIo89exMyBj1L2+hvUTZYRdlxEyThpysTkyRwjq1fPP+57ELahLyhAFtBIJmS2NojpJllZOWhlNnZZCUHNIhqEeACys+oRMnRKly9XCpuGaWPrQTQjEycRI9NN4ro28YxcYvFSMoIuMcvENA1iyThGwCDXNImXxdA1gwwniOEkMcMmK+0kSbknLlmGt6KPJWSC1wmSrVbcBklsU7xHlmr7uAvJgEFU08iuWZPi4mLcSIJszSSatAmZAbJ1E8exiLkJwuEM4lKngImjm5QkbYKZmdjxKEE7gSEy2IapJiCpjyHgSICHGcRI2IQcW4GbaFAnmJdNLBInUJYgQ7ZLbPGqiMq2iekGMM0wjoBcK0nATRAPegAhK+lNaAps+MfmAYKjsyYcIuvkHtQd9CjUqKW2awTOeaHKGznW33bwzb1L9jYfIFShZlcrVcvFiMewf/iBWQ8OxJowiexIMWEtialWlzqWFiCpm2pfOOjG1Mpy+wGECgbdBQYVR8imAhrLbZfsHkdS/ZSTyM1qSGTxaua9/AoZv/5CoRGj2RknkXFEDzLCWRTNmsnyV0YRnDkVp9N+1DrtAqbfcDMNrWLyWjTEueQyFrz6MnWDYYyeV+EmLWw3hmk6BBesYdYLI2jc8yzMvCaUvjQKpv/Omk77Uvucs9AjRay68Raq2Q4r69ajbq+rMcK5LLh7AA2LoiR0CVWLqq2NZehkdT+E7LP+R05WDUojMeLjPmDFe2Oo3rk9NY4/lcWDh2MsWYjZaW/yzzmD2MsvE/lpEkW6SfD4k6l1zBEkv/qMxBtvk2VrrNqrHXUuvojk59+ydOyb4nag4b0DKHlnHJFvfyDZfi8anncGoXq1sZMWzuKVLB82DJYvpEaPI9C6nwBkoVmCqgoJ/j6RVc+8RND0wIZsL3hBoLtA5/qnY5PIv1suy+rVYrdhT5B9ZHecUKZ69wUwqm0nZcYNxB75AOGfWr9KXO8DhCrRjKlKiHvAdYj8+CvTLruK8NQ/qGnqxO0oZkDcy6Db4moOENe9/eegE1ehces5GzdhlfVSI9fPo9vF3L66AISQzlRDo9s3n7NoxVLmvPwF+/7vDEKtWjL1yO5k7dOaxk88wpIffmbRd9/Q6fSTMdas5vfLLoHux9P+voGM3qMD7YiR26kFDUcMY+JN/aijBWgyaDBrJk3GXbmCrLCOMWsF4z94k/0e609Wq/1Z+MggFjw2gFrX3kzLvr2x46VMat6a3ESSkoMPpvPYNxRh1sxzr8b84DMyXBtdi6lgxaLmbdnzqQeJ6XGmvzqGFmefTmZmFtOu60u8eQM69OrDNxdfQ+acGWT0OJZWD9xHWd++LB07lhWhXFoPGUb17t2ITP+T2d17UCNus/Swg+j8zGASa+L88b//UbpqMQdPmMzMhx5nweh3OWz06zgNajJ91Ivk1KlHo2N7UDRmLAse6k/tmy+jTo8TiU5ZjFaqETBKcb/5mCWj3iGcSHixMlpqi2EX62fbMkzJm1piQ9GhB9Ph7dchlI1jBEmYuiJFEm+TBCmuH8uRxgYbSjvdlnL411ReC/gAofK23d9LbiWY8eozrH5sKHWmriScKEbTZHfcUVTqSqDNlTQx8R54e8hKjWWTAKHiALI+b8IW8iBUJRuvVxcBCAnToKhFK1q8PIrvn3mO5AffE8rNJf+QfdE+fJfqfftRff9DmHD4EVQvW4HVuA7Zp51B5LnnsI46gr3uuY/PTzyd+pEYeXt3oN5d/8dP119HLStKw/v+j0/63Ez1BcvJcBwCa1ayun4+HYcNxipIwIzp/Hz/vez/5DME9toLI6Tx055tcN0wXR55mGWN86nXcU9WvPI6q267h3pJgYkWy7M0Mi+9hKanncz7p59B/cJSrIY1aXDhBSz8+DvMZs3o1PdmJvS/h+yZU9C77kuLG/sSuflG5r//Aatq1aXbuHFM/u4bOuzfib+uvgp+mULk8APp/OwTrJg9D+eDT/h9+PMc9eNPTPi/B6m2aCktBw9h0iUXwsQfiYUyqHXscYSScQq//IiGd11HTrM9+O6uAYTiUEN3iM2dQd2o0ABL/IX8N0SApKdY6h+btIBsd82rXpuur43G6bQ3bjisMkHEBRNIhYBu6AZrlwuby2ryG6CqW8AHCFWphS2L1aNfZUKfm9hrVSkBJ0FSUstkK0HSmVQ6XVq4xVNsS+fSe2bYkNt2awFCRYNWfTewZmtEHViZU50OLzyL07Yt8ZWlJAuW88frL8Kkiez9xBCCMZc/zzqXpqZDiZ1gle0Qcg3iZ59Lh8FPEp8xHSMewQiHoXo9ful9JflWMU2eeYpYaQxjVSl6SRT3xeFMmjKZ9kOeYtZn37Fnq+a8dWc/Dhw8nJhj0XiPFnzftgvx2o044r23GP/iMJq3b0adunWYdfX15M1bSdBJsiQ7SMuHBxHMyuSb3r1pEHGxKVMpmEVOgLwzzqDVvfcTL16DUVoAuXkYtWpRfNlVTPn4Ezpc3Rur+3G8efNNXPzCC0wbPIT4yBdJHnIQnZ8eyrj77+CY8y5gZO9buHDkKL6++24ObN0K+8BD+PG886ibiFL3tFOI1m9MYPki5o55heq9LqPZ+RcRnTEPw83EiCSYedUVBGfPwjQkPFInaAUwJG5GRXv6x6YsUGIGyenVhxq33oKblUHSlFRYSRF10SX9tPzidYHAWsuu/dyHCrtmX/MBQlVqd9tLaVxy7z0UDx9G9TVxlUaWNB1CQq+cWvBLspzyG6TT0TdpAx8gbNI8lghnBliWlcuaRo3J6tiR3Q85FLNjK7Jr5jL35jvIP/U0cnKz+e1/p1EnmWBNKITZvAXu/KXETzyVvR56kHHnnUJo9Qrq7d2Rtjfdzq+9r6GmE6H+kEH8OGQoWYtXUVcziXw3npU5WbR9cgjL3v+URt0O5I2nHmffXr0oKS1gz/0PZHy7brS+4ioaXHwZk4cOYbGznBNu7MWkK28g76PvyHeTLAybtBkwlGB+Lh9fcRmNI0nI1AnXr03B6jUEDz+c9rfdzhcDB1L22wTqHHoI+/S5hdLe1zPxxwkc+d5Y5i9ewsSnhnPaNddTsKKQWTf1Qt+3C52HDeOd44/m0MsvZ4Ft0P7I7nzX/1b2260JzlEn8tNlPallxanb9yYCXQ8itGgWk266jnoXXkjDrgfxy7DnyLYC1LRs5n72GfXjpTjJUnTHJmgZXkpmmrShKr2/27kuawIh6n7wCVldOuGGAmqxIFsKahxYJ4bDBwjb2fRV5nY+QKgyTZlKQpc89YWzmXrNteR++A2ZVoKIbpOpG+UAwVQ86xLh7uW9b/rwAcKm7OM6LlHdIGPfAzFPPpMJL76EtmQeOQe0p9MjAygY8RrxJk1odEhXpp5zJqVzZtDwhP/RsNdNfHL6adQ4+lj2ueM2PujYkibxGFl7d6bpsKH8dH1vGrgWdR4cwAeXXkL2rHmELIfqmsPqxg1pP/Rp7Hc+YmWzZmQ1aUhZwTLKtAjtjjyUD/c9gkNeGEm4VUciP09BZwU57Zuz6K2xrLrzYRraCZabGoFTe9Ki1xV8c83laNOm0+DIg2l2xWVMHToc8qrR5prefN/7BoITviH7uGNpPnAghTf2ZakOew4ZTPKvv6CgmGS1OmTu0YoJRx8ErZux71OD+fqAw8hr3pK2gx7HrFGLn264ity5c2j5/JvMvecWlo59j0R2XToMf5K8cIAfr76aZudfQK0Wrfiq900kC4vJ013y7Cg5sSjZ4t9KsVKq1E1xlfvHJi2wJhii7kujyDruGKyAt6kgHgQv3bWi/XyA4HelDVvABwhVqWektRWsUty/ZjH+0GPYvWQNhpMgqJkYjqQ2evQzAg088p3NDbQ+QNhUFxGAVarprMzMp8tbr+M2bwqrV0NuLkTjTDnyGKz8PPYaOwZMA+wY6Fkse2UcMx7oT83TT6LtrbcwvmMX6iZjZOzTkSZPP8Wft1xHXaDGM29BMg7RUsjIgLI1jLv4XA687wHM18cyK78uHS65lEX330msZSOanHkqE04/n66Dh7N6zFgmPfowORkZ1Ln4PHY79zQmHXg4jdcUYZo6q3JrsseTg9GPPARWrYZsm8iMaUy74ApqdTucJr368tP1N5I1eQK5PU6gwYD7WdznGuyjjqXhsacwodvxsHQx7p4t6TpsMO4LT/Pd/OkcOPQJfj3waJziIto+eB+hE0/iz1t64477kCa3PkjOGcfDmjKgFiQjuItmMfGOm2ly1vnUveBs9RnBTIiU4kQiTO9yAA1iUbSkbJd5jJR+FsPmB67iQIDglT1pcO99JIM5IGmoamHgkLFODIIPEDZvzV3zDB8gVJF2d5X+uxDtJCAaBTcE33/H91dcRp0li8lxbUVdK/Q0wlInmwyK2W6ddKaNxSCkjVTx5BQ109+yGCoadHPgo/IbX2I4oq5GxMzAat6UOj26Q+36aCsKWDJmLNVnzqTUtqB1K2oeexxu7Ro4f81lxZsfEigtQG/Tglr77cfi514iy3UIN21E+OgjKfx4DJnCCXDCmSozBVNHSyQU2Pvj3bfY/egjCf0+jRWuSZ3DjmD1qBcItm1OZrOmrPj6Bxoc0Z0VH7xPxvzZJGIWyT3bUvu4I1g5dAR5RaVkGhrFaJQ1b07+SSfi1q6DVrCAGa+9TP6SAqq3bkfGvl1Z+O77ZBeuxt2tCXnHHUvii0+wdm9ORk4tCp4bTa6boLRmHhndDyenaDWzZ82gyVGHsfL5UWQ5FsU18qh93vkUfzyO4IyZFGTXoc5Jx6A32QNteYwPXnmJ4/bfh9lffEJ+p85U79RBaYhgBNBEaKywiCXPj6KO8D0oLYgUS7Of5rjZl6fMNFneaW86jxmHk1UNVzNICkbVXMIpTk7vJhsDCN776y0Rqv67vFmD7oIn+AChijS6AgiK1S+pWO1IBiARY97woax+8H5qlRSQ5Qo4kCwG4c8XKtyU8I7YYAuIkjwQkj62QJehith2k1sMqS8l5EtEjTwhJI9eWbw1pivkxp7gka0rxomUxoJwUgh9sLQF6EkHXbQa5G9d2smztRALlY/NKnd9bRvIOR59s3iGZHXtCTrJc9MhaPJ8OdTzZf9ZyIdSIlAy2cr90+VSahJSZiHUSt3Lo2j2/pYfiQ1U9M8irqQ0fTxxKDtVZo810nuOnCbfWbqwPjrq3sIo6dVZ2Bq9SUfSbNN18Z6riA5Up5RQAymPqmW6/6nL/Alrc69XTDeYlpXLERN/wa3fEAI6lmKn3HQWw4bv64cpbs7eVfF7HyBUkVZNexCELV9k2kSgRUZXfel8fu1zI8GxH1ErlsBUWQ0yWOuKcKY8k8EHCP9pT5BYhvSct24A2X9aLP/hldgCSU1ngR5mn6efwT3rVAzFoJrSDNmC6KN1q+4DhErcFba56D5A2GbT7VwXrl3d24rnXnLGLcciLERIM2by56XXEfjtD2q6EWwnjugA6I6u1Pk8ZR9vLbfJ1bLvQdi5Gt0vjW+BTVhAKJWjZhj3zDNoMmI46F5oojhuPF9TxWP9v9e/sQ8QdsXO5gOEKtbqtri0xYUrLm8RbXJtzEiU6K9TmHJRT+ovnovuRDGcALrI9WoJHyBUsT7gV8e3gPIUyBaP7bLioG60G/suZOWqQEV1/G2HZnP5TD5A2BV7lQ8QqlCrq71uz4nojQEqLczbzxaO/pUjR7LiztupFpOccgEIAUxi3mpCxRymBgFPjtCzTJrfNpX5kL53FTKbXxXfAlXTAvIaWy5LWu9B6zfewmjVGtcIlNd1XYzgA4Sq2Qn+Wa18gPDP7LdTXV0RIHjBZR5AkEO3YlC4isLHBzH98cE0xMRMSPqjEgVW5woVs0gIq/RHdYNyrJGCHZtzQ+5U5vAL41tg17aAvM8WLKhRnXrDnqTWiSdjBcLeePC3DcX1M5TWN53vQdgVO5MPEKpYq29YdskTcSJWAmVR/rroKuJffkET3caJxbwo9FRUetAWp4FLMg0QKthnnRCEKmY3vzq+BaqcBWSBIB6EcAZ5D/SnyZVXkwxlqkwYT+p5Y5kgG/Im+AChyvWPLaiQDxC2wEiV/xQb7LinyWQblP38G3Ovv468yT+RCyQNl4Tkk7kQVjGLqfTH9cYPDyD46WWVvz/4NdhVLKBpBit0g5yLLqTBwAexsnIQqnUNiUXY2KTvA4RdpX9srp4+QNicharE9+JBEFXHoCSlg5Ug8c47TLrycuqWFZMR8PL3ZbdBPAgqB78CDkhz0vgAoUp0Br8Su5IFdGH6NHHa70OTD8eg5WWhCeGGFvQBwq7UD7axrj5A2EbDVa7LhN1GVgWGCjoUmmWtrJjCwYOY+fCD1LYttFKbDCHsSXHUCD9P+vABQuVq7cpX2g3FtmyhpyqFZRWnx6a85psySvrxW/jIdW5V7lVLX6zYozbxtPR5Hh1U+TumftmWAmy6YrYLlqmzOr8erb/+EqNpPRwngR7I88aDDR6+B6HyvUM7psQ+QNgxdt357urFIqrDkVwHAQUlBcy6pRfRN96jZrFNlissdy6O7uIDhJ2vCatuibyOue487bFRVpwyxTGeIl9UQDYdhCuQV1gaxQumFEorZPmnz1PklmvnZm8HXhGFeQG6aX6A9bFC+m8FnFOHSviRK0QyWX0uwNtTOEGz1uEYSOMH7xoPBHjFSN0wFQi8ltR4+7WycKPIusAxYVkomz1Hj8Y4tCsEg6CLB8EHCNvP2lXzTj5AqJrtuuFarTf6uVYU5v3F5FPOpc7v08kmiBADO0YCxambGlDLae/VwmJ7r3J2pQbw67ruNLt2sa0omTVvypJMGvnbtOV3j3pajoSuEzPlGp2wBQHHIWE6GI6rdEYsXSOhS0yNAF3vSSEbQpYXhCsAQkCCdG05Xyb3uNxPUT2nwHNq9e9Jo2tqR06oiUOW0Fl795HnCCW0QG2hicY10FxJHxQIk1A7+2knghKXUkHAGgnDo9UOKtrpdR0NOwIgCAaxXV3RWxdkmOhnn0HrhwZCTj5qBbDRV9n3IPhvqmcBHyDswj3BFVKleATn4y/47drrqbNoCWH5TLfQfICwC/eMf6PqqfV0BU+ATMbewtxVIEEmaemGMrHLBCtCQ3KOTNwy8YtGgwTXyjwnYEImf9GEEKChPAmpLbNA6ju1ivcW/p5wmbjf5d66aGJ4dZZzZfL2Dh1Ll60AD4DI+d6Er6gIlfaJ5wDQFLW5AA0JAJRnqA291AOV5oUOCdPTrZC6yXcq1bCCZ2+7K1QqgGAq2FIU1pjTshnHfPwl5NSGoA8Q/o1eXtmf4QOEyt6C/6D8MjbJYKxZFivefosll11G7UgMEws97XetqKzrexD+gbX9SzdmAd3xhJuU4JWs8kV5VLn9vWwaNSmbMtmtjZGRiTU9wctKOe0BqBiGoPg8KgAFtd2g1vne+WqVr4lnwvMkyJEZh1CKC0Qxkqrr01sJax1oEtCbDtORyT8polLiHZDdO7mnoWHYOh65saeg6Oq22oko37ZI1WHt3sp29s4pgOAJZEUCOr8ENE75+gdo08GTHvc9CP5LuRkL+ADB7yLeiLlqFbNuvxHt9THklpWgGcmNsLFu50FsV7B/BTZKZexd3YTr2CPF4Om46IYwe2rYVhLH0EmaDknX4wbN0gzspEV7JLmRAAAgAElEQVRCsYUKjThkhgOYrouVTKAb4krXcJSSpWxVaOi2Q2YwTCQWx8JBogPEsy6r96Aqg0ssqBOJ2+SETWzHxXVsT0FSQIc8xPC8CB429uIHLFvOc8kIBMB2sIMu0aTsi0CGQt06BgE0wyBqJ3Fch4BpKJE023EI4KgFvHIepLfxFHjZvh1D+T68UA4szWRxSKfdI4PIOOcSCAd8gLArjD3/sI4+QPiHBqzsl8vgodyhSQtm/sXM6/oQ/+ZLapPEWF/QZRf3IGwsNn2zw/o2A4T1n7jZJ1WO7lhuD295bzku0YBBolE+RC30gghawCCaHcLJCeEUR6lWGFe9cWlOgIzGuxHOyKJowWyyli6lhrgTwgFW18qnOOgF3oUKo+SsipKvhYiHdcryM1mpxRXwyLAgryhJIOFQlB8kx9LJKoyBbWPpUQzXVlsYWjjEMt0iUTuTRChbiZtlJjXsVUWEYja2ZqDVqQ4Fq8hzHUoTFlbt2mgJh9zSKLkEiLs2q4gTqZlFoGkzRVHkzphF9ZIigm5CeUxky8Fz2G3f9hWA4MmPy0uuExHUc+VVNL17AFpW5kb0GOQCPwahcrxIO76UPkDY8TbeqZ+guJNkJeM46HELffEifjj+GBotXECGJSBBwhZTE1V5StdOXaW/FW5DWWwb+qzihRuamnckQKh477XTxMaeqJazlasR1jFueiPAAwgx6WGN6lFv7CjcJPx03pXYCxfRtM9V1D37DIrGfcX8ux9Cq5ZNuycfQGvcGs0I4RStYHm/Wyid9CO7H3EI2n334AY1SFpoy0tYcc9TrPnhF+p3P4icflfjhGQWdhA3hD5hKr/f/SB7Dr4fffYSCh8YglVUgBOIoLtJFQQZCeoUd9ub3R+6Czecg5Yw0OI60W8nMHfAYPZo147grVcz8+obqDZrAWU5OTQe/TyabjDt2j7svmQla8pKSDSrR8Ohj6A1agZuEHfybyy47WaCS+YoT7+huEe2f3vKe2sJXhKPiK0TtxwKexxL2xdeRsvLBeFDKD8qcrD6AKHyvlzbt+Q+QNi+9qy0d1Ny0ZITlUyy+tXRzL/tTuquLiTLiaO5CbXCESAhQWD/5rE1k/LGzq2YqpZeH6mc+c1QxVQEEVtUa3XB5ihpnb/FoqW9ODJHqOj2lDaG3G3T88YWlerfbK6te1YKcJYCZXvsTqvxX2OvKeWra3uh/TmZjo/dT27HTiwf/zt/PHgH3e/sS1GbNhTe/xRWUqPhpRehN6zBbxeeT/u27QjeP5AVzz5DaPo0nCO7k3/YCXxz7oU0admYxvfdxrKXXsKet0AkDgktWsHUn36h2wvDYfEqZvS5iZx4MbYZV9BLghVjIYOVhx/OPoOHsnTYMJyZc7GbNqfxpefz2/X9qGm7NHj8Hn49/SJqTZ1HqOsB1BjxMImAydzHhxIZ/DDBUIjmw57GatKc6Q8PokYoRO1eV6C9/hqLnxlKnm6jW0pS7e/A9h9ym3tbC17kp2R6mLrOknbtaf7CSIKtmkNgY2mOG2rGzfXrrWt6/+zKYQEfIFSOdvpXSikgQX70wtUsHTyEBfcOoCU2ISuuJKSTuqtSvHb4sV7++/Z8nrfzvO5RMT++okLV+oKW6XXVxiygItI3BxCUOJZ3lDtkKqS8qfJJQFv6nI08zPv4X2iL7Wn8jdyrWIey5i1oMfYz1syaReb0P5j0wnN0u/V6ivQgRUUav454kpNGDue3YU8TG/4KQUlz7NKJdi88zfQB99O4LEboltuYdtVVGN9/C/t0ovnw4az+9FPWTPmdFv93F18OeITklJmK+yB/1mxKFy/gsPfegHlLmNL3FvJjJZi2pVpQAg0jGQIQutN5yDN8f29/lvzxK41ataJzv5uZeGUvaughmg96mJ9OvYCMufPI6XsNTU4+nu++/pou++7Lz4cfQyCeoO24sVg1azNp8JOs+vU3MjJyaFmyhuypfxCWlEnH2iC5kgLt/+CQq22VOCrww8HUNWbXrEvT556j5sEHQmitsuPax2wMCPgA4R80RaW91AcIlbbpdmDB7YSiY5513sXYH3xE/UhUDZqW7qiArR19VCSi8yZ00YlIJZSlSBnWKUV6IK1I+Si/rzfAaulrJXNDUyLX3kSdnmfLPQCOl91RYSL3otlVXH3qc+/+eoX7eClrf5+0y5+lKKzlIfKTIv1Jpd15H8v33ufrWjn1l6pTBetXDXxAacikdPcmtHzvMxZ/9ikNOnbgkzvu4MATjyEnM5tZ8SCzxo3jmPv7M+W++9Hfeo9g3GZZw7p0/fF7pg0bQsMZM8m69RbmXX01ed//yMpGjWg6eiSlC+ex7INPaHf/fdjxJFpxVOUWrnlmBH8NH8r+774Gi1bzS++bqR0pI8OOq74umQ1lIZ2VR3Sny5BnsYtXoct7EQywqriQiVddR4ua9Wg+6BEmnXoeoWiE3YcMQF+4lDHff8PJ9/0fi864hDWTf8FsswfNnxlKsEY1NAkK+P43pva7kbwFc9EcL2BR20HvlZeCqXJDVRrmgqwsGgwYSJ1zz4UMT9lx3cMHCDt6fKtM9/cBQmVqrX+prI7joiXjWAvn8duV15Iz/jvquUnZ0VT53P/WIXOhaZrEk0lvQpfIchnrZKKUMqYncMeLMlfzv6Zh216+uaSdeQBAZmFJO5OMcC+SPelN0SraPb1S84LEdDRXIt5dkt5lyDrLkGnD0LCkEAp4aFi2Q9DUVVS7ISQ4tqNEM9c/pA6Kyc9JXes4OK6GITn8EnkvYWGG5kW4S+FsrQJPlefVkYIEzAAJK4lpGCpa30uiX3v80xXnv9Wu6z+n2IBYi2a0eHcck0e+TJuTTmba6Ncx7Dgd992XmatjTHn9TU568gl+HfQo0VGjMG0bu31b9nvnPaY8PJCGi+aTc/cdTLuhL4EffsJu046Wgwaw9KvxlE6bRcv+t/PbAw8S+OVXAk6S4IplLCwo4MD33iU+dyUT+/SjQTyOkywkM2RjWhoxU2f5EeJBeJpfb76B4JwFUKchbR6/j8l3DiBr0TJaDr6PiaeeRTC7Oh3eGM2fH3/K/7N3HmBWFFkbfjvdNAEYYMgIiAqoKKira9bfnHPAgLvmjGFBEREVA4piRjCHdc2KOSsSZM1iQHKQzOR0Q6f/OdV3YEBWEQHnQvcujzDTt7vqVN2qr074vtJMNTsddhDa6+/w5eDBdCxuzqy8BAUdO6B334Z2Bx9Bq0UL+PbsM2hSmySvnuJcTd91jPoU8NTxdR1dd1lqQItTTqXFiLshLz8ECH/VpM+R94YAIUcGakM2U1G0pm0MTSfzxbf89/Q+tJ47naIGEtAr3O/reEFr0FHZ/jLibpcSNs9T+7JsxJpizgv06BQA8MF2fRz5fVwn42Tj/NmmCRhwgGa+huUK256HuLXFTV2gBwBheX9EDNf1qJVNKwaGqRNNe0TToAlAkHI8XYCKgee5aGZQAy9FILow7q7iYMliE9VOeUfADhgAH8931IYgQKTS9FWdf8yHhGdgOSLKC2lDiLEDQKJrAkYcImhEFVBaeVbkKkCoERKhrbrQZcyLfHjbvez8zwtIeDZv3nUHRx19LLOr0ky6+SZOfuxRql2Xt/7RF19z2XPItRTvujffn3c+3Vo1RR86mDFXXIU24xe69TmdbY/vw8ennEyn3lvTecggPhh8A1UTPlNFku2dDNVllez79HOUVdXx8nXX08nUaaqXYC6bT5MSG1M3WbL/Qew46kGeO6svqekzKOrchcOffoxJA68nPncB2428nbdPPY19DzqK6NGn4X/4Nk6mAn3n7ck0LWLcGeeyZ/9BlBkG44YMpbKihN5DrmbHzu358rjjaVPnEvEFuAaXto5DeOIJE5eUp5mqdFlsXdZ5M3pN+goKRI9BfYPq3/4bIbINeDLYkItd+K7ftEAIEMIJ8isLLN/j5JReazN/1N2U3HYDzatTRMVd6WXUqVrC6cpxWZ+Uvo5tKQChTvfJ33En/B49MLHRdIslcxdgTP6GWGkZesYnmRejcK99sNq0YfHHH5AqWUyXPfeENm1IW4EHQavL0LTGZcG771IbM2l54lGkp86g5pPxCjiYjqtc+2ndpBKdaO9tabnH3yhsXUzt7NksmfQ1zuTpGE3idDp0P5Z99xOZn6ZgFBZQsPuuuDVpFi5YRLu/70xGkr90YQPMYKbTLB37GZmKOor235+8aJyFr79OQVUVEd2hLD+PTI8edPhbT5o2b071klLmTPyKyPQ5isynxfFH4kZ1DF9ofTUS6Cx67Q3iZaVKf6DhlTMAYXmzg4mTlCnVuT0dH32QySMeZPNd9iFvp16Mu34Qe5xwLKWVdUy5926sLp3odeswIvE41NaArrH0pTeZOeohdjxkP6wh/SFtQ9LHTXkkn3+Db55+ii5H7Eu7K68QAgNIC5LzobScT8+5iD1vHwFbbg6WJB1Ugl9B1Q1DWPjBN+RpGtV77U6Pm28ISv+k5MB2SM5fyM+33EFhLMbmt13PGxdfwGHD7mHehMlMGzEciyTdDt6HVldeyvQb76S5kUezC85HEzQZj+D4dSy6azhlb75HB1FazIjSavZqABDWBfRWACEgk1YaLL4BC5s1pdcX30Cb9oK4gzomFdcS5Pu/QoghQFjHy1tOPC4ECDkxTBu2kXJiVctE9pSuVSxkwQ1DWfzQU7SSE7ZdpdyipgAE31BUtavLl/uzG5ZUTdTqGp2vGoR36qn8Mu4DCqIFNOnRi9pJ77D0huuJldSybPOu9HziKYwtuzFj8BBmP/Mwe59zFuVdtqTFgXuQrq2j9tMvKVxcxeSHHqTLMYdSNOQa+Hkq7x92OF1r0zTJ2FIqTmksjtOjN1vfM4LKqqX8Mv5TOu79dwoLC5l3Xn8W2jXs8txjzHn4SewHH4EWregw/HZiy5J89uLLdDnpeNJdN6Nj725MfXcMxZXV/PLg01SWpdjjw/chnmByn1MpnPQZcSNNyV57sMWdd+HPnskPn09i20MOwa9KMXPAQOZNm8pBkz6jdMlc9LKl6BmXQttlzrDbyJs5U1EN5yZAaFjmqJPWpGLAxNy6O978JQGJUXExpbN/pkXbliphsHbBAhzPJa99e7yOHfGMKNGFy7DnLSZWkySvWQFl3dri+h4R4VpeXE7mlyVETAu3WT5m29YqbCQbogDGSMqlbsoM8jt1JFMQxbHA8RzhRcKaOx9jaQVRdJItm6B33Yy6TBrLsPBr0+gLS6CsioKiZlRu1pKquXNo3XkLMgtLMUrKlL8qkzBg683xZy8kVlIFW3akqm0HtEQB+pzZOLNnkp9KEXeE9mn15FnrEiAEmS/B93RRIo8uox4m76hjICqiTY7EuFZwU69WjTIECBt2FW4cbwsBQuMYh0bWClvR3fp+VC2mul+HtuQXZlw4CPe1Dyg0xZOQUm22FdGLUOX+On765wGCRq1m0fmKf+EfcSSvHn0kbW2drn360OzSU5h54QX4n04ideSJbDt4IJlf5lBRnmbm5RfRprqaWcTZ68OXKV26iGkXX0ZRVYZfHIM9X3qZePMoftTnv/0uo824b2marFGMDwsTeXSXOvGWTZl82SX48xdR2aEluzxwB2Vf/8DYxx7m5H8/zayHn8Ae+Shei+Z0HDGMvIUVfHbNjaTMOO5h+7Hf4P68dNqJNJ85Da8O9r1sIBUH7UusdUvcSV8x68zzyPgOO4weSbJ5M1479Sza+w4py2PvW26l9Jn/8O3XX3PAZxN4fVB/9IkTaUIMrSZNS8+mKFMjUC3HAYJyqitBId8yVQmtnczQNJ4X0BW7SdBkHoqbPCja0H0dQzOD5FAHMnaGmBVV4C4pWgeeq0IwEkrSHQ9bvDhmRDEi2l4QrpFxFkpkw/OI5udRlqrFjRqkXZcmsQR60iaqmBFF60EjbWjYvkfUtLCTSfL0uALHtkCOSEQBF2FUjMfjpOtq0HUdzdRJajYxDIyMgxu1sD0DU4vgOJII6WFqProqHg6YklaT3rpe1oWlsRi1J5/CjsPvgnwhTHJDgLBeLJ37Dw0BQu6P4brvgZ8BAQhaVPG4a56D7tThTvyaLy64nBazZ9BUdj3PDZjgGrDANUyyWhcAoYYIXa66Go48jC8POJAmFeVoO+5C11efYfbVA1j2nxfoNvpxXM9m0mtjOPC6m/mi78m0nfIDSzSLXh++R01pOQvPPp+88mqSe+1D17vu5JeHh2PuuyetHY3JJ59LRzulCHIWJvLp/tXXLP7yM0rPOZPWrsmcggQ9X3uOisoyPrj9dk7993PMvvt+0qMfI52XoOtdw8lbtoiv+g/CIkbNAfuw6/BhvHfkkXSePZMFsSbs/epbfDv+I5p3aEfxZpsx4/Qzmb+ojAPff5fPn3+G2lEP0mrLLvg9tqLciGJ9/YUCNof8dxKZqT+hT52B6UegpII5d91JvluXwwAhAAb1lyR26rpF2skQ0Uy1hVtWhLSdwjQ0teHatqNyNAxNU4AgbQtfgaFyOFzJ5RBXuSZ5HK4CD4pyWaICwi2haarEz7HF0Z7VYhDHuuAOCW+YGpppKO+D5vqKYlnCOfKM5eLM8ndJSHWkcFCgmU/EiOAKNbNlUmdnVAjCjBpk0kElhO/6xCOGSj71fU09OzjE62iaPCObZCqxutWe2teFD+HXy0OlFWFOz57s+/Ir+K1aB9LugrACBLaaQmB5RuhBWPcLbeN/YggQGv8YbfgWyolIVB2NQAlORRDkZ+kaqidM5MfTz6J12TLyXVv9rr4sTxKs1jVAqJRa8/4D4LCDmHToQRQlk9i9e7P1E08z87rrmP/Oe+z1+Tf8+Mhovn7lFU596RWmDrmGmheeJR2DXd76gLrSDAvPuphEVSVW/0tofcmZvH3MIfQ4tS8dDjmWmQceRWL2dCKZWhYnEvSYMoUFH79H6bnn0FGPMCe/kB7PP0NFdSmfDr+DEx98mBlPPU35g6OJt2zDFsNuJbpgCp8NHEjUi5A6+EB2vfEWxp90Ch3mzcHYez/a3TyMKbcPY54OB13Rjx+uGcyUdz7l+A8/4vvnnyD1+EjantaHdv88B5q3YsqNg5n39hscOG4c3731Oukfp5JIerQur6Dk9ddooclml6MehFVmtFR3iGCTIYJNsuEr0KkK9IK51SDXQvJdbCMQdhL2wUAVMWD7VLLK2X2sYbWpFHvIfereBmQW6uy+Sv5M1lGxArxkhZ3UD7KVsytgQ7Cf1qs1SoWPlAHLI+uVKFVKQZZ8Q7062w5N9bd+0/XxVqlICRqwfgBC0jBY3LYtOz79NN7fdkEzTNUJ9bblZbirLjshQNjwC/Ff/8YQIPz1Y9DoWqDW42xagSy4Sv0OH10W7VQlv9w7ggXD7qBLTRJDWOCy8rZBxn6wkAS0BX+OM8HRNMrMKFv2H4B22CG8cfghNPU9up1zLkV9Tue7/v+i6+ZbkH/Z1dh1ZeDaGIkirMnfMOGfJ6Flatj59bdIltrMu3AA+Gm63T+CzC69oERodfNJRGPMH3oDlf/5Dy08m6WWyZYvP4cdjfL9uReizZ5DbY+t2fWxJ6mcMIGPbruNPuPGMv0/TzB3xAhirTaj9133kfhxEj9cezWi31d96OHsPORmxh97Ms6smWw5/BbanHA06bnz8C2feGE+M158g59G3Mch945gWbKC2ZddTG21y7zNt+Cfr73IdzcNpfyDj9jn7df5eMhgtElfUuCYJGyHSFU5TTw7xwHCirmhqL59lP6BUAOLrLOEANQ8Ws2+VL/RNiiqUVBJPle/x9WrNQbyzMFmG4QVBCgE0Crgtgg4L9SJv8EzlD6CYg5dhdpCNvj6g3/2M/XvqP/vctVIydPJyjrLAb0hDYZqkmQMqlEUiehfn9wbwoO1ggrLTbzy99DWNcry8mg74k6antYXT7cU4BLYtSroXLE4hQCh0S3UG6BBIUDYAEbOtVeo5SQLEOq17QP6Xw8tmYRli5gxYDCVL79KRyvgTFAMAvWLoaYhm3tDsqG1sYGLTrWVYPN+l+OdcRoz33uL/LhOi+23xXl3AuNHj2L3+0eQdA2m3HsvZtqm6R77slWfk/mp7ynU/PwDO7z2IqmSKmZddhXWZsV0u/9uxt11L/GZC6hxPPa+bwQVX05g3qAbKaqoIWlGKe/Vi78NH0bp/OlUzp5G815/o0nztvx83pksmjKVfe6+m+S2WzL/04nE8prSYdddWXhZP5LjxpESd/ixh7P9dbcw8YgTiOk624y6A2feLL594Al0t5atDj+MvL33Y/wJR7PF7nvQYcA1VH77PRUlpbTdoSdWUR4z7xvJtFff4OBPx1E+ew7+L7+o+LXwJFS+8AzahLFYq5Au/NmQztqM0dp/ZsWmVX+ol41XAdIs5fTvPbvhplm/4defu1eUrcrzghwZFQrLSkMrSNCA1TKgwGogD50FCGpjX6Uhy6WiswBBeTlW2cHln9KPehCz0jPUP7JVA1nyLWnYCv7MFUCn/tVrAxCCsloVLFEtlXJfw9JJ6z5LrSgFNw6hw8WX4WmSqBh4D0SgbfXvCgHC783HjfH3IUDYGEd1vfUpS/STcfAXLmX8IYfSZv4s8jK1RIV0qH5RVSyBUm3+vxabNWughDdq/RhtDjkEfb89gnItv5YZ4z7Cfu9z2rZuRYtTj6dy8mRmv/kh+VoUvW0rOh97PDXffse88Z/S458nktE0pv/nGTrvvB0F223P908+S9PSFClNY4ujDsTuWMzMJ14gf2ktmm+w0NXRe23N1uefTGyLDqRnzeO7kY/QdOp3aEmfpfEEW150Li33OwS/tJSpj43G+WAcrR0ox8XdtTfdDjqC/94+gqLiVmxx6lGMffYZWs+ppMC1SW7ekc37nMz0+28jXZGhaK8DafuPs6FJnPHPP06sfCktl5Sw9MdpbN+vP2bzliquLeEbwzRY+uZraBM+ISLaGQ2u3AIIKxpevzHKhrZc/nj5r//X1vhr71TDn9R/KvhZ8K/g1L4Gc081JHvfr17/K5rLVSIBK15QH65YwVex8sMkLyGbALD6KqAGVSprAxCkDxHHVCEYRbociVDnOyzFI7NDL7Z55GG0btsFdMwqy9iRlMoQIKzBFNlUbgkBwqYy0uugn/Xlj1KTr6VrSI6bwKzz+lG4aAEx11GCMJIRHXF9VYKXFHbBtT14qDVax0GjzjSptjzirrAXurieT6FjYFkWKcmSkLI111MhEFvTSRkGtusQtTxqHYeYbhHxHFXJpRZN3yBPNUwnFdEp12z17PyMpgiYqqRiPBqlVvdIuhkS0ShxzyVfaHh9j1pJ+jYtkp6OZUYwHIeokyJft8h4HtWaj6UZyLlM2CeTuodmWeQ7Hp7jIsLFjmkR8zIYpkaSCI4WodrL4BouUd+hMAN5hkGpLNdSXpfddyTPLeFmKFAZ8CtfuQoQ1sHUXMePWB3UWPtXrC074p8eT4XnhcVTx9cyWJpPmWdR16M32zx2B36P7mSsAkypChGOEU00IWTWru5Lu7Zf5LW3W/jJv94CIUD468cgZ1rQ0Amqp6vBTlP+yOP8POQ2OtS6asOzLVtR2UbdgKpY0RyvzZV1w3q+pUK1npUh4vi4nomrxRR0kHipcuUq6mJPsRuqyoqITtJ3MDGIZQRA+NnkNaEtziaKGUKpLPTGPq6pKaZFcUFHPC3IbM9ml0lypmTR+46DJZVvwnjoQb4jIWSdlOYr2mQTUz1YZafr8h4nm1yX3cjFlWxC0vFVZn1MMvelAt2ElNA5e1JK5+OZ8i6fuHhjhGdCXM/LbRi821AHzxV2bagxsTamDj+zqgU2HoDguTpGJEoKG9t3qey6Nd3uuI/IHjvgxyK4upkNDzpovpRvCKBYJXNTmScECJvi9yQECJviqK9tn7OaAOrjjg2ZSsjUMOOKoVQ9/ybtpdCBSkzSRBxFs/hrPuA/8O4gJhxRbmdNk9O7nIjkNBRB8wUguMozqlQo1XMNFW+2DQdXStvcKAUZORm5WbASqPQpPQkhjcuGRGSvFbpktQwGsgfqz6qkclIuXp8Il58J4uUZSQBXrJLCdigkPD6e4UgJfZDd2TAOLVnu8mwPYq54MiBjQJ0ZxKvVli8AwM0mt9X7qOXn9V5vUeWW8LncncUIIUD4A5PqL7h1g3gQlodEVo6NeFK2aUaoNkzmFxSwy933Yh5+BH4sqr4DKoEzm5+h5N6DmuXVVFCEAOEvmDp/+StDgPCXD0EuNaDhjiVCCXWgpWBpGd9edBWR98dT4NUQd5MqPi6n8rX2IGT3V6FKlhVMMtxl7QocABoRLwAFsuErjQY53avwgvDfpVUuge8nyHdSCrDIvaLQJ8ROAhAEFKiwa3YptLIMvOp5WW6H4JkBCJDPKa0l9TkNywkY+VzdRdO8IDves/B1D9t0VQ2+LnoKelC2J60Wr4Go9wU+BY2Y76r2J00BNcFPpQbfcrNtqwcA2Sz/+jBDAJiyFNcNBH7+tEs6l6ZiDrV1wwCE7BdBoeiscZTXSqPagaoWbeh4yzCaHXsUJGJ4uqEomuQSz9jyj4Q8CDk0s9Z/U0OAsP5tvBG9ISh4XH6JS1L+OC7Ot9/w7Tnn0HzabPJTaUwV93SVu31trwAAZH0Dq7A516+DWRXobAKahiMsdoq9QUSYTEwJEWSXQlUnn804X7WETHkTGiTJqTNUNswRZNav7HbWsqVyAcrwlAdBgIM0xJNdXv04UFSSd4prQJW8LQc5umqXqhLJ3qPKzBpk2q+ULdbg9fVle+upTH5thyv83F9lAQWQs6WbRuBVU6WYvk7GtJjdvDlN/zWALc48H00ooAXAigZEdgLVA28151dL2LQ6j8Jf1dnwvRvSAiFA2JDWzvl3rQIQ6uvAxblfXUbpS88z8/KraFeZpEDXcfz0auvYc94Mq+uAQir1R/7VaD5vlJ0OO9UoLKBApaHIpjQt0BRRdQt+jAXRCOTLZJgAACAASURBVMbpp9DzplsgrzAbQnBEpjTMK2gUg9e4GxEChMY9PjnRuoxtYwmLYmU5paNH8ctNN9OmVmhy1xsZXOOzSwgQGt+YbCItCqQqDFXFE3NdUiZUWxaVVgFNTjmeTtcMgOJ24FuBA9CQaoWApCm8Qgv8lgVCgBDOjz9lARUGUO5vD91LoaWTzO13Jaknn6SpI4I0vxZx+lMvDD8cWiC0wMoWyAIEJfjku9ShsSAaI3rwwfQaPgxatcY346rcUeWu6ELTHYKDcBr9vgVCgPD7Ngrv+A0LiCvTE4emoqt10FwH+4fv+PLCfrT86muauZLEt5aljqHlQwuEFvhdC9R7ELIlPSwUUalddmS7e+/A3LInvhGAA8mHyRYtBJWM4RVa4HcsEAKEcIr8KQsIOBAR3YDCVmKgooObpuarr5l8zHF0KC0nUU9Cv5wmb+0TF/9UY8MPhxbIdQsoEavslf0+BTkHBq6mk9EtqrfZiq2eegC9axc0vRmaIktawVKpfAchQMj1mbBB2h8ChA1i5o37JcqDoDgEdHxV2eBBOkXpU0/yy7VD6VhWga8JE3w95a3U8W3cNgl7F1pgfVhA93xVDaMgtkpOlEoFIQIzKfct7G160eX2m4nvuiNuVICBpcqD1e0qj1bEpsMrtMCaWSAECGtmp/Cu37BAQ2qW5bX4QqRUupTFNw6n4uEnKHaFM8EOeAQCaqHQpo3FAtlyzuUKXY2lXWE7fmUBcdCJp05Ka+vLdoUULKlZlDRryeZ33UnRQQfj5RVk+T4kfbHBlQ0zhKYNLbAmFggBwppYKbxnjS2wHCB4kjDl4y8uYeLBh7LZtKnE/Zos0ZA8LgQIa2zU9X2jOlpmBY8bKByu79eGz//jFvAU/4aF7mfwDE8ReKV1i/m6xQ6PPETi8P3xzTw8PRGQgEniYoOvWpgP9Mdtvil/IgQIm/Lor8++11MNuzbet1/z01nn03TaZCV6FFwhQPiV+VdmyV2fo7Pi2YqaMss9LaEiYYwKr0ZrAQ8TURkRdlBRaXSjcRbGm9C239kUn/8PKCzG0+MIkBDBtHpV6foOhQCh0Q5to2xYCBAa5bBsBI2qBwjSlVQNtc8/y7yr+9OqshJfFIc2doBQ77b/n8x09UHhLEWkuj+gYBZp3t80z289+4+EC+rfuRwgCN/0egAIK9Fdbri5/VfgrXXau5WSeoPeKIlogQZGQNO9UIvQ6uJLad/vPGjZDPQCHM1U3KGKK1Fpi/xa2GudtjN82EZrgRAgbLRD+9d2TJYzR2SfJWmxrpoFI+9jyS230CWdwVMAYeO5RM3R0SOkTQNH84hnhEFSI2NF0EQtUrIuTBPd9YnaaSKGTlpOeL6Po2ukDFOJOHm6UC27WGmfhFKR1Ki2IqR0A9/Q0HwPyxM5bVeR4qTMKLbmKYEooWhOpB0SroZraFRGDFKmhuV6WK5PzHEw8KmxYtimhqu2EJ2oB1Hbw3B9MqZOyvJVbFv+Hc+4xH0R+dZIWRZJQ/QnJFPBI+p55KUlDu6RjEZwEgVKhTKWrCU/k1J5JrVWlFrLAt9GUuOkLXl2WjH+ZSIGSUOnwLGxbBdHN6iLxlWZbMR3lT2kverdhk7EcYm7gUJmXcRSiXp5mSAOX2No2Pn5eKaJlrKJZtLE7QwR3cQTWy0nFc6BOacSEMV6SrIzqxciYyzjEFySDJw0PJZEDYqPPYkODzwIkUBcHKKBfogmuQdZfY96oNFAtyMHLBE2sRFYIAQIjWAQNsYmCATIuC5Rp4bKV19mweVX07RkKYms2NKqfc5ZoSFfzvsWJUY+Lf7Zl6oZ32N//DEUxmh6+ukkF5Ux/dPx9LzgIjJz5lL1wrPk6xrmHnvTJGoxa9wECo86Bq9FczCT4NbhTVuM/95H4LokjjuJuvZt0ZXGs4eVSWNPHI/hpDH+7xBSjo3vZdAiMWKffUP5R59S0KML/sH7kWzWFLO6mkjawf/gfSpmzKJZ37NxWjfD0TJKRiPupIl89CG1aY/oPvuRihkQ0/GTPsY335MZO5ZIcTH5J55EXTyiilodzSVRUcGS+x+jzdZdMY46ikTbLqTqMthffkHdmBeJazbmfodS02MbfKMGw9Yw0j7Omy9TNX0OHY47lroem9Ns4kQWvPMRiXbtiZ91NnZFNcteeoGi7bYgv2VLfnz9DTocfwxRw6T06aeJZNLkHX04phfFHfMO1YZPdL99aLrvvmjRfKpLKnDGvELtF5NoZcUxlKpoOnfq/rOkR/WCXoEHQLQTHJV0qDwIWoIlUppw2H50v+VGIh22wtNNDD3wQC13ImW/ZGEwb2NcYTdMn0KAsGHsvMm9RU6Z8n/tk3F8clIf2i1bTKHhYamU6l8XWuUqQJB21zo6s+MF7P3O68x77TnK7x8NsQRbPfciFXPn8dHdd9PnvbfwUzV8e8wpmPPn0+yqy2nfspiPbr+NHe64g8JmRXjvvoHRoRh/z91ZePOdzHrrE3YacR+x9i1g+vdgZyDtU/LqK5jdutL08n/B2EmwcBls1w3ab8Yn555HUecO9BwyCMaNg9okHH8CyQ/H8dWgIez+8CiImzBlCmhRBUgqXnuRhQV59Lj6Wtyxn2JUV0Ov7fDbtePjy67ArvY48LGR1I17j0RphZLCdCpK+OatN9l+xDCs9l2pGfUsedt0g7//jSl3jaDqvTfpefU1JA4+jPTDjxEtLIKDD6Rm9jd8fe1t7HnueXDcIfDJRN4/9yJ6H3U0zYcPhbIa3jr6BHbsezzFbdvyQv9/cdizjxLfshszrh7E3JdeYu+RD+AYFjOvuwF/9z3ocfmlaB9+TNXUORT26YNTkGDeCccSmTuXaMZVyp05gxCyHgTxEliucBuAI/rfyoMgHieTMjPO9C7tOOzNlzHbtsXX85TUeUMJ8E1uwQk7vF4sEAKE9WLW8KHYNva02Xx/4RU0+/xzrFQJmulhGCIvK4qLK1+5ChCkF2kjythMmpMnfszMt1+l7q7RpFyDbV9/i9J5c3ntpls4/6P3IVMBE7/kjYGD2WZAfzo1K+SlW29kr9tuJr5wKR9cPgAjYrD9TVfTvk1HnrvgCva5+2706kpevm0YHTSLpg7ULVtI7z7HknfpJXx0+bVUf/E9+pYdOfbW2/hu5Cgc3WWHSy/i1X/8E2/RUra7dghdtunNuIv7sefD9/Hz5C+Z/sC9mKk08VSSuvIyOhx2MNsOvI5nTj0Da+ECfjR9hnzwARNvvZPFs5dwzOOjGXXG8RTN/YXmnktFVSlbnHQC2159NZPOuQRt3BdUGLDriOEU9NyGlw89iANvu428bXrxnyOPw/V0dj/zDDocuR9vn3sZh13cj5IOLSgqbs2/jzqRfa4YQGKr9hS17cSLJ/Zlh74n03mz9rw64Ar2f+YRtGYt8Eur+KDPqfzftddiF8b5fOAADnztbRaN/ZifhlxHpEaD7bdh86MPxX/uadJfTKZIwimKqCs3ztHL8yY8DcPXlKS4qH1KGEm8CeXRGDW9tqfnYw+gddyMtB4hakh4oT7XIDf6Ga6QuWGBECDkxjjlXitr03z5z0vR3nyLlrVlxKwUKVPi3pqKk6/qQ8hZgOBDxoox1nM5aeJH/DzmeZx7H6UWnZ5vvkXZvLm8ef1NnPP2eyx8/z0Kt+vG7OdeQOvSg22a5vHi8BvYe/gt5P2yhMmXXEVEt3D6HstOZ5zBvYcfzrH330XxVr0onbGImGcQtZN8ft2V9Dhwd4quuJwlH08i+ctizM3a0rFlO8ZccTUdt+9Gr4EDmDp8OAVpl/xLLyO+qISJ/7qKvR66j7rmcWpn/IBhQbwmw7jzL6fVQQez3eChzP7gA8zaUqrbtaJLpy68f0l/nPwijn78cWZ+/V/iqUqVRzFz1EhihxxGz8NP4IN9D6BzZSl+PI/y449np9tv5o0derLvNdeS2P8A5j37H7xYPq22603ZzzP48o47ObLfxfwQ0ej2f3vx/PmXs9t5lzB70gT2PvU0nj3+JHY/81zat2/JqwMu5eAnHmPy+x+x0777M+HlMXTdYUeMwjhT77iV3V56nZ9uvYHkYw/RZvMd8LfvhWva6N+Mx/3uJ5ogctu5BRDEU1AvS254mso5cDFIA5Xdu9PlnrvI23UnXCuCj6gyBjmteshxkHvrZCNvcQgQGvkA5WzzapJ8dsTxJCZOojhdTcRwsBUFnIa1mhqGnAUIWQ/CJNflmPEfMXPMC6RGPkqV7rH922MonTuH568ZwuVj3ufb0U9SXFykYuZLf5pGd+DFYUPY+46h5M1fzPcXD8A0ongXnsGOJ57KPYccydGj76d905ZUPfMKeTUZlYT39Yev0OWs4yj61xU4i0rxa5JozfOwZs9n9Gn/pPfBB7DjNQOxzQhaRZ1S+qu66Sa+H/sxe785htTipbivvkHES6Jj8v0b72AecjDbDL6FzMJfIJJGa19IauZ0xvXrj9+8BYeO/jflL42hoHIheirJjHfeIXP00WxzzAm8f8DBdKmtJmYUUnnCSfS4eQhv7rEjew0eSP5hR5CZMQN0g0jrjvw88gmmPPEQRw++ks9rq+n1t5355evvaNJzRz584AFO6D+Al089g53OO58O7VrxSv9LOfixh5j35CMsnLuInYfezbQZ0+gQsZh53yh2euUZpg65Gu/Jx+n6jwvg3H5YhsH8B4ZR+9D9NE/5gXBhjngQ5PsuAEGRIOmSQAqGp7PI9ygpLmT3u+6H/Q+D5k3IOCkMI6a+U9K9IJSSsytG2PBGaIEQIDTCQdkompSxSf/wE9OvvBxzwqe08FzJscMwLTxf5GY3nhCDbVhM0z32fO1F5k6Zwjc33oHVsgn7Pvs4FV9M5r0776XvK28x7Z5R/PDWWxzzyGjYqjOMH8vLN9/AXsNvJ7JkCWMu+RftilvT87ZriS2o5p0hw9hr9G2Y5ZW8cv0ttEr75Nk+hpGh+3EH0eTyK5jY70pKJnxGfI/dOfj24Txz7PF07bENfxvUn/fPP4/43MX4yyoocFPUxnR2e+8dpn47hen3jsSvLKFIEhWtBN4uO7PjtYN45qRTyFu8CG337hxx+1DePfcibDvNYfeN4q0zLqDljBm0c6HGttGOOYQtbrqOrwYNpuTdT/Eicfa6/Q4izVvwwZmnsuct15Ho3YvnDzwMzzM56f5RlDsOn183hAMvu5TJNaUUJGtpv///kV60hJcfeIjTb76Zp8/4B3ucdzabtWnFc5dfyhGPPYr70rN89/p7bDNsFE1224mqb77lv/8awP5jnmbpV18yaeB1JF1ocdBh/N/1NzL79mFUjx5BW9dZTvCdO98r8SDo2JpJzHbI6Brz27di6xsHkzjiGIg1Q8o4PJWOaKpahcCDkC2ZXe5TyJ0ehy1tnBYIAULjHJfcb5XEfTMZ0l98xoRTTmaLpaXEUjaWruGt5kSXqx4Eob21fY0lEY+Og/uTf8xJVPwwHSs/Tv7mnSgZOJRJ477kiLffYfbokSx68hma7r03PR64Db4Yx+tDrmf3e0ZR2LqYslnziBcUkN88wrSLh1Dy1Y9sN/oGojv/jaoFy9AdH70uw6LxH1FYvpTWF1zK/Cv6Y0/6jKqtd2D7++7jzX796Ni2A9techbTT++DNXeRShZFc1gWN9jp/Y9ItygmtXghJKsxPBNvwuf8+NMP/P2GgXxy3Kk0mVVCVfcW7PXck3x43kU4tZUc+PAjjD/+FNrOr6Aw7WIYBosLLTo9dAfWVt2o/m6GqsNv1rINX187lPSEj9lxxC1Yvbblm93+D1IGvW66mbqOrRh76SAOHjyYWYtnMf2TDzjwyYeY85//MOuTz9h38GBeuPB89v1nH5oXFfHWwMEcNHo06ef+zfRnX6HF7ofR5qH7SX41iclXXIa+9y787cqBlM1ZjFZbR2KzDkSbNWHObXeSfPphit2UUhrNtaO1iC/VOAYR02JJHrQd1J9WZ51LJr8ZlggzLl8hpLQh6N4KvoPQlZD7C2jj6EEIEBrHOGycrRDRJh+8jz9m9plnUrhgPlHNFVHoX7l8cxUgGEI+6EKtobG4WVPa9O2L2Xs7zLoaal58kQUffEphpAmdTzyR6p+/p+7zr/GbNafJgfuTSJYyY+IEivc/jHjbNkHde20N1R9/SPVPM4hZUYqO3g+vS2dwPPxIVIGu6pk/Y5WXkNh2Z+reewdmzaCuWWtaHXMCzk8/Ub5oMcX77kLl889gVdbiuIH7OW1Cs+NPwe20GSSrkJ1G1y20/37DoooyWu+3B7+89CqRxRWkEzqdjjyCqq++pqK8lI4nnMDUhx+jKOXShCh+xlE8C/MLTbY65VjcHXZEr6ym4qW3WDx+IkV5Js0P2BerRQuqHn0czbco2mNf3C03Z/4Lr9Ohdy+q9AyzJk5k+9NOYurnn+EtKaPH4Yfz45hXadN7G5rk5zHlzbfZ4pjjSX05ifTPM0hSQNvT+lJXs4zyj97Ecy0SO+5E06OPQ894lLz6Mm3zIixbtoD0V1/TRFRGle89N67674HkHWhmggV5ecT6HMPmQwdDtABXtxD1JelTIN68IpsnBAi5Mca51MoQIOTSaOVSW+vTsQUkVFVS+dRTLB12M81LluGLTsMqMeHcBAh+EDbxTeyoRbVmUC3kRkIkpHnk+y55QkJkByVqUsJuSmY6BhnNwNTTOIZOHRE83cDwfCKuTUKRBQUkQdWmRlJSNyyR8gXPhKjvE3E8bE8n5rgU+OBoBhlduWYUnbWNg1AnRBwQHU1JZZPS+UorQo1pYBuOIluKuhBBx/U8HEvUAX2aaia652Fn7MD5IPFwRZAkz9CIaSaq8k7TKNNs6iI6thAySQKqpxPxPPS4TrWm43k+xWkbwzSoETt5HjEhSvJdMiZBPoqp4+g+ppTFeh4Zz8O1NDQnyNxPaQZx16UA8BydmkgUV7NJeA6FmkmZ71OmW0SIkE8G3U/j6j5RB+JCFySEDyudsBvvF0m+B/KVcXWDMitG5LQ+dL3lRrzCpmhGREECod4K/rKyp2DFVyr0IDTeEc6tloUAIbfGK3daqzj+UUx7OjZ+MkXl9Tcy/+67KfY9DNG1bwASchUgqAQxDGwtiq87GL6L6UppmqfYCiUEIfI6cslmq1gK0TBdn7QhG7sw48nGLj8V6OChS75GlhdP/iufc3Qdx/QVSFCSv05wQwAJgs27nqhZ/iufUZ5nIXLSA3AgYED2FHlvyggY+SRLPjiJiiSDjImvNnjJJxXwU895Kc8QkCDtl2eK10Q+lZb2+BBRzw7K8eT9aUtD3OTS/wjSWB3fFUDlq7YIa6Q8S51/s89tOLkVY6Pcp0xngu8EAEJ+lpUnlPdGlW0gjYXvCURJoemeaqvu6Qq8oWVyBiBkbJ9YxGCZplH3fwey3YP3QvtOahwk00A4MJURAimmBh6E7Bduef5B7nhNcmdR2/RaGgKETW/MN1CPJbwQ0PkG8gJpqEwz77rryTzxMIXplAIJy4OpKk6cW1d9iw3fQPNieLpQLNtEHEPRIssOJ8p7ruaoDVFO3eIxkE1UfpeRTVpKFx2BGDopU37vYwk74vITezaELslokr8hoEopZYqtXDQBKAICDBdPwtFKTlvx6ix3PsvmIpuyeBHk9wF4kLuknStOm/JooX+OeEK7HKTAyYYut9hGUHqnNvQgchRk2stTlMaTbF4y1sHGpIn3QAEG+YwABQEHkqjqqHdKQp0ygwAPPXhH8NTgEuCiWAOVTkRQ6hfc4eDrokMgsMvA1ITGGVxfJ6OZRMWToaiaBaAE/ADoabWpNkahovptvX47F0BkGybpXr3o8shjOF26kDZ08rJcB8rigoxCgJBbi0WOtjYECDk6cI2/2WoLye5YsiuJr9vDXbKUqVcPwBzzBs0ymeUbg2yocjrKpXPPclIb2fA8U9Hh+rp4AIJNOyC9NZQ3wcvqJdRvmgIQ1Gbva5hS6549Cctp2PSEWjfYLoUp2NLkpBwh7XjUafJvk4guG3Am622QbRMcE0xxv7tpbAei6ogPWiyG62VIyCZv+1iarp5lGqIP4eH5EtPWqRPPgYAW2XxF+0HR+An4CDwD6LYCBBEzRjKZISLMmBYk0+B5BnkS6zdAixh4tRk1RdO6hq+bJCICojL4vidBAKUJJV4UT/6S7esKX4js52LTFeClHj/64tYQQKE+pKPpApJkpgkgkM8EgEU+6quQizw/UBBtjABBUZIbAYASrY5azSLZewe2euB+zB498KNS9RP4l4KrYaWC6tXv/LzxrxRhCxuvBUKA0HjHJvdbtjo5vXQKZs9i7GHH0mHJUhJ2nYq9i0jR76oY5r5FftUDlY+x2iQ6X4EDWzZSS6faj2C3aEVVLAa1tRjlS2kvgkyGQW3cIi2bZtTEzbjE0h7xVDW+p5POK6LcjBKJmxRkqimsKCMqMQYzj8pCk4RrE6moIWKYlBTGcRIR9GSS2oo6YoXNcM04aV02MJd8LY1VvYx0vBmeliC/bCGm5EIUxCmPN8OqqiGvKJ9yOdU7spEFG7lVp5ILsGMamUSCjJOmMJ2kuCoVeBWUAJFsdf8bHoqdll//I59AhakaOqJyIO9AAIKMobTb9g1KO3Zh2wfuJ7Lb39FlrP8IYv4j926E36WwS+veAiFAWPc2DZ/4GxbwPRtSSbRvfmbqlVcSm/wFBRmpaxAZoFVPR5u2KWXDcw0oNyLkH3Usxaf2IdK+I/aCBSwZ8wo1Tz5Fs6P60OzEPjhmDZqRgbo06a+msuSRR6lNxGl10WW03mEX9GiE2hk/Ufb0v6n64BO67LYriSvOxZ09jYkDrqVdfpEqpYt2acfPjz/B0h9+Zs+hN2NbcVw/okICkZpyfrj0EjpdfCGJHt2Ze8NQmD6D/L/vQuKU0/hh9KPsePFFpPLiGHkxfC2FlUxS+tYkFi5YRJfTTqJp1464yaUs+fB9jMefw1lSguG6KvyxKe5vgmeE6TGpWZQ1b0uX++6j6YH7Qjy2Ws2S3/xGbIoG3LSXiPXe+xAgrHcThy9oaAF1ypM4dNqj9tP3+bHfRbSdJ54Ee0V2dmiywJks0sZARfcu9Hzq30x59S2mP/883Y88gi369mXpkYdjH3cK7S66nNn/upSC6qVEXQevJMnUqVPodc99WJ22YsJVV2Ona9nhqivJa1PMnAv60WaLbsTvvB7S1Ty8/Y7stlUvtrpvBHr71nxx6+3MHvcxJ4x5hR8ff4pmPyzETCbJx2Hmp2NpP+o+mh16GL88/ATLbruB4l12oP3AQXx8Wl+6tu9Maeu2bH/HUOY9/Ri88y7JklraXTuYWIsWvHvhJWy9XXc69e/HzKFDMd95i3jGU2WYv+VB2FinhArE6TozilrS5c67aX34/njxBJ5mYUgIpWEU4feMEAKE37NQ+Ps/aIEQIPxBg4W3/0kLqOS97J9MHfOefoo5/a+jczJJ3EtvkqfI/2VRAQjVHpRvsTm933yTKW+/ScWH71G+pIROrdsR//xztFPPoFP/Abx/1jnEK0oo9B28OXOoKSpi938/x7f3jMJ++jFsE9Kbd6Z4s05UTJ5G7912x+5/Dnayhq8HD6WgsBXbHn4oebvvxqThdzFn3FhOeuk/vH3vXcSnLaVZOkV+dQnVU6fT5YHRWL16Y5RW8O1FZ9O082Zs0e8KPjv+SJpU1eBu15uer77I3KE34DzyCEbzZrR/8BH8WAGTRtxDpryEjk3zic2fgzZjCgnXC7iMNsHRT+kGiwua0OKSfmx27j/wmjfB1U10LJWY+YcUGkOA8CcXp/Djq1ogBAjhnNiwFpBcA0/yDTx810Wy6RY9+BDzb7mZDtVVWCpZUWLXKzaMTXXdC0IMBkusphQPuIrWZx2DU11KxdzFpMd/wdLh91B0xb/Y7NqryMyei2FnMGyb70ffS21lkl0GXcfPV11F7Ttj6HTqSSR33xeJ8JQ//QJbbtaGqrOPJ7NkCYVltXw5dQbxujS7XnIZn903kjnjxnPyu6+TdOuI1njodiXep+/w4y330umO+7HjCWZ9/y3dCgv5fOwk9r16MN8cvCstKsuxe/aiy5jXWDh0CPrDo0nGYxinn0fHa27EKV9GbVUJNZ9PInXPveQtnEvEkeTF3Kti+aNfnKCHK/ppazrL4gmaX3w57S65AIoSSs5ZUlal6gQ/ElSFrPoF2FS/EH/U4OH9f9oCIUD40yYMH/DHLBCU+C2/ZLFLppgz6Gp48vEgYU6XkrqgrE4EIFdkcP+xN+Xc3asQ36hojAalhklVUROqLJ3eO/ai4ISTMHfZi+S1NzGrfUu2vbo/L22zM80rS4iSxDISRPfch21vuJ7pN19P1SsvsO3pfdH3OQBju+2Zdd0Q2hqQ7HcuC8ZOoNuhR/LlRx8w/51POH7YHUwYdS/zx33Eic88yStXXIbx9VSKvDr8uiqaNWlGx/tGYiaifH7TYPYaOZrx73/GHrvszZdHHkJxdRWZbXrSdczTzL3tZvyHH8fTIizL78hix2DbbdvT5tijiB10EGUvvkT5LbdSUF2uqic2ZgdCQwEmGeaIZrHIitC0z4l0uOlWKChAmK2ENUQFW5QAZaDUuNKVBQeSsdPwCtgsQuSQc9/5Rt7gECA08gHaFJrnex7anBnMu/Zaki+NoamTVkX7quTPDdgHN4lrJTd7wANQ67okttmKlrfewIzXxzDrv9+idevOblf2hweeZG77VnS/6lLGH9WH/MoSpZrp1GRYUJPk4MceZ9GM6cx85AEq0im6n3Y6nY88gqlXDaST8DBc0Y+xIx/h8MFDSM2bxQtXXc/pox5mwuh7mTPhY0558T+Mu3045g+zaSoljXYdVfNK6HL/PeSbPu+dciLbX3cNbfv+A+Yt5osDD6FNRS12j23o/PozzL3tFrxHH8coak3HQbdQ+csSvhzzFEsL8znp5ttYNn4iS28ZSut0neLMyCHBxT88HeuZdkL13gAAEgdJREFUNAXwCUdDhRklesCBdL31Bui8OZhC+STYecVcF3aMVS9VbppVfAxqRBrev/q//+HGhh8ILZC1QAgQwqnwl1vAzmTQHRt9WQlLzjyb5GcTibtJXN1T7HnCE7BJXVmgIJtF0vdYXFTATsOHYu+6K6nSDFYiTmzhPL46+TxaXHAOm111Kel5i9DSKXQ5in83mS+uHUyky5bscNe9pJKluBEPbclC4ltsyayrBtJOHNkXXsoHN93OIffcR82MqXwwcDBHPfMs3428nyWffcoBr75Cui4JdS66l1HbVdXlQzDP7ku8wOKbU0+hrEUhB7z9KlTX8PXhx9GqohZrqx4Uv/Qsi+8Yhv3k47gFBTT55/k0Pe9CkvNm4sbjFOgR5lw9kOSn79JSHmyvvNltfOMdbOziFauy4qR770j30SNxO7TBTOQrYqk1BQgKbGQ9CAGDxspX6E3Y+GbPX9WjECD8VZYP37si7qzWTlF/dKn7aQrTL76A6OeTyNMh5nlKU2BTvBT7oERgTKhIJGjSsycFXbbGXbyIpV98hllSid+uHU6b1uRnPDQtIDKyXAtnzmzsTAq/QweKd9wWJ13HlM8m0qZtOyhZhF1aRmKzzlQsq6Rj63aknQzz586lW9ctqFxSQmV5BcU9ulMlPAZpHVd3SURNan6aRXyzNurfzJ5BSdom3rkTWiKKM2cO8YzIE5vkde9KZtliIstKZFipi8YpaN+RZtv2QksnWfz110RLFipSKDW+G3mSoqLMMkzmZzzcnf5G94fuI7LFFvhWNBDpWo375H95EOozdP7XdyIECJviarF++hwChPVj1/Cpa2CB5YlpKi3BQ3M9NMejZtxEvjrzTNovXUAT5XpeOd66Bo/O8VuyORpZWghFdaxBStdJGgaWZxB3dHzbJmPqeBFT0SPLqdJR/MUa8YxNQUSnxnNIygYsjIzC3ijaBHLpPiLFZLg+MU8YCXWl9ug4LnFPVxoHGU3DiZnoIgeJTyQexUvaZLJkzRHXJWLFVPjCiOhKREq4LBzDRDOiWDjoblolRgoJkKNbih7Z8IUEWcSkPMU8KeBAiJM3lhj66vjBJPU2pcdZ2Kot3UfdReHuu+NHhQhJxCyyili/8gSsPsQQAoQc/3rnUPNDgJBDg7WxNXUFQBBefhGhEfpgA70qhfvpZ/xw1j8pqlpE1BWFvvqa8IA2d6POaMtmutcfqgUeybaeMCJUazZVdT5FiebUJZOgO2i6o0pHJamx3jqFsRjpZErpMwjtciIrsoQWwZbqCM3DiJpKlCmSxV+iypiybaI2xAIhBjzLU3TLgjGiMUPlRLg2GLpOxIzgOo76Y1riuRDlRRFq0on7+Whk8Enhuxo2EWzHw9J8ChQdtE1SCUBpCjCYvhIB3ygupXWhRLiyMiRopA2DOfHm7PHKq/D3nqBZWRpyhY6UzsaqV+hB2CimQ053IgQIOT18ud74rFSNosgNzl2iDmgJV/+yWkqffYUZw66hdcVSRdcbMWURtYNkto3cJd1wZNVend1s6jcfFXtWzMKBAuOKa7lxsloQ2d/UeyPqtSVXpfBXCotZ6FUvBlUvD5kNdWTVNbIyQfKA7Luy71fOC+HEVGBEAF1WflFJXCveYzXO9c0V/SXVt6x0VK7P5vr2i7i32FKVKooMtxVlcUEBXQYPoelpfSEeUdNdCWUp4aWGeHdFTsFvaUfUVzHoq8lB2FjsGPbjr7dACBD++jHYhFtQDxBU+rba9YNNyoe6FHp1msV3Dmf+Qw/RvjaD6SbRs8I7QbL3xnLmbFxToN6z8+fFjVbnbG9cfV0frRFhLpHHljnqCO9EvAWtB15O8fnn4RU0WemVgY0bhtBCgLA+xiR85tpZIAQIa2e38FPrxAIBKFhBIJMFDFkpYt+uQ6+qY9alV5J5+XVayL99DxdJ6hJPwsZPrrNOzBw+ZINaQHF4GJDxobqgGR1OOZMm1w3Gz0soAFwPvFYAsBAgbNABCl+2xhYIAcIamyq8cd1bIAAEQQpccI6S85OuhHvFXy2Ji2DPmMOsS68i9smnxP0MaTIqyc1cSbpv3bcufGJogbWxQBof24JUvAmRPifS8ZpB6AWt8CR505RUmzXzfP15D87atD78TGiBFRYIAUI4G/5CCzT0IATNEJCg+OSyeQl2Jo2lW7iTf+azo/vQqbKUPK8GN5MMAwx/4ciFr/7fFhDp7bK4QU3Pv/O3J59Bb94UPyEVC3+MLjIECOEs+6stEAKEv3oENun3N8hByNpB4rZSLKdyt/yAdU4SsbRMBm3yj3z5j760mDGNPNvBNH0y2QQ63Q8WX038EWt2QNukLR92/s9ZYDmf4fI8TQ3PE64DWBKJ4u+2J1vf/QB06gBRC+wUUurhK5CwZlcIENbMTuFd688CIUBYf7YNn7ymFqgnSlolpyAIO0jAQTK+Jfu9htSrrzDjimspmDOPJnETx/DwbA/Di6B7JpqWClL+wyu0wHq0gMKvmo9UYiiaDs9QHA9ugcX8zlvT895HiG7dFb8wgi8g15GKDk3qQ9djq8JHhxZYtxYIAcK6tWf4tLW2QH2CYv0Dsv+WrC75qxD7aC5mXTmlT7/EzAE30LKuirhlY9gOmidMAVJaly2DXOt2hB8MLbCGFsiW5sqWL96D6kicaU3zOOCJp+Dv++DHTSXApDwByws6QvfWGlo3vK0RWCAECI1gEMImiAVWBgj1LlzlDAiKxsmosnEfszbDrGHDKRk1mubLFtPE9FVJmadId8IIQzif1o8FVi3a9BXNg65ExSpMHbvL5nS7+XrMffbFixXgG4aiEzcNyUysb1MIENbP6IRPXR8WCAHC+rBq+Mw/bYH69MWshI3I3AihHz4mhpQ9LF7AzKHDcJ56iqJ0FYYelEsGhELhIvynByB8wK8s8GuAIP4qg7pEjPK2xXS+ZgBFxx6NFmuCm5Vqzoo3h6g1nE85aYEQIOTksG0ija6vfVQhXgn0CjIwRIcQTY5vc2by7fnnUThuHM0ytkpsFLW8kERpE5kfG7ib9YwdyqulBbOxxjKYn9+MNheeT9crLhY+ajRflCzEayA5B1mdhU2TM2oDj1D4urW1wPIyc8n1asBUGwKEtbVo+Ln1b4GVAIIi8VXgQK3OvgNOCqZNZ/4Vg6j9+FOKfVEzTKt2CY2t/FGJZFmHQuhXWP9DtrG+QZJkg8RE8LLaFH5CY3Ekn6b9LqHjxRfiNWmpShklaTGrmRXoLEiSYggQNtapsVH0S1G4SyhX1FV1Q/1XWL1CgLBRDO+m1glRAMzKEmVcMl/8wNRLryA6+SuaksQS4SKlCaApMSDFqxASM29qk2Qd9XcFMAiAJ0rpss6D8jyD6FEn0fnW6/FbtwNPfhOACAVKlwPT4C8NfrSO2hY+JrTAurGA64viqo/p20qITfPEHWuEAGHdmDd8yoa1gAAEUTCU45xM5Azlr7/D9xdcxpblVeQ7KVzdIWn6eJquTm+msDJu2EaGb9soLCDKl5AxAvEl09VxPYNSXUPbby96jHoA2ncgLSqYRiwACBISk1NYCBA2ihmwKXRCAIKDj27X4ZUsJmrmQbxZCBA2hcHf+PooDrEM+Kbo5IJvQ6qGsk//y4yTz6NjZTkFUYcqkRomguFJhfrGIye88Y1nY+6R0HapwxS6p+E6MaqiBVj770aX++6A4nZgmSqF1pDgrWTSagaeIeGtoF/1SbOhB6Exj/Om1zYJKXiup6i/JRTr+RmsBXN4/R9nk0+Crqf3DQHCpjctNoYeSwghg4ulyGlMKUInjVZTw/zbH6LqnvsorloMlkz6iFqidTJB8k14hRb4XQv8mmhLcKjnaVRqBVRvvwM9Rt5BrPsWEMnPSja7gUdLZBwlqCW0HKvMtxAg/K7hwxvWoQV+O+3FV9XjAhBcyTdQSeBJItOn8v6u/0eRE6PTwAEhQFiH4xE+aoNZQCazI2c2MgIQVM64iy7auguWUnrrMMoef4QiJ43hRoNIhJ4JFuzst8bTwpjwBhuuXHrRclbPYK4sr1gwoFYzKW3dha6j7yOx298xE/lZ7RAfXXJiFIrQgxyE1SS9hAAhlyZC7rc1YKBdsezVe7SCnnlBJVhdBrekRK2mkTbN0WdP4+3d9qJNOkrnqwaGACH3p8Gm2IMgSdETV65iT5Rk8QARqwzyqmXMuPBs/DHvUJySbFxXHeyE0EbiyOJKSArJnQeRkJV5U5xAq++zD5bktAj8zM4V0xMCLsjkJfipWSt6P/cSiW174MYVFsAgGiiPBmSfyosg968u4SUECOFU25AWUOq4klwgirl6kLAtuDUbNMPMpKl77AXeG3azytc66aWX0HV4Z7fdaef6bHb11SFA2JADFr5rXVog0H1suBLL2p5xPQynChb/woyLL4N3x1LsiviTh51NNBNIkc7mkJkhQFiXg5LDzxJ5cUlmlVyD7BkrGyJIGToLm7ek4w1DaX7s8biFTfCMDLpmgx8PKL7XIHwVAoQcnh451nSpvZH/Baq4Hp5mqiJxqejyNBEk9zBTNpl7nmTq4EHURHx2++gTiEZ5Z7dd6eA5dLjmqhAg5Ni4h839XQv4pLwUMd8l+e1XfH3KWbSd+wuFmbQ62QmCNhQ/QpbcOdTO+V2Lbho31JN7g+VCxNOoM0xqLJ1liSidB/an+ZlnQUEzccaiaTa65uIhOS4hQNg05kju9FKytITKS1d0XhJjtYIEWjuJTzV+REdzTTL3PM7UwYOpsWDXjz+BWIx3dv17CBByZ6jDlq65BRTdR4CU5fuRqUP77gcmnNyHDnNnU4im5KF1Y8Vxbw0Ofmv++vDOHLbACleS8iD4FkkzwrS4TvcL/0Fx/6vw8/NxjASGp2NIzoFSc5RE2TW7Qg/CmtkpvGsdWaCBvI1ijZk3n8nnX8iSL/+LcdiB7D9iBMlHH2fydYNIGRp7ffipYgINAcI6sn/4mEZkAbVKSwJC1j0sIYVUiogWo+a5J5h5/QBaLi4nYQcRuOVXiBAa0SD+lU1Z4UEQcOkSYa4VoejM4+g86DL8Fl3IGBJO0IjLSUxggVTY6iLzvGZXCBDWzE7hXevCAhJaCPKy0AJFXG3GbBadeTY1n4+n6qgj2WHkgySfeJTvB19DWtPZ42MBCHEFENq7Nh2uCXMQ1sVIhM9oDBZogJbRXFyJu3k+pmahVS6j+t9389/+N9Pd18i3A/rlgNAmRAiNYfgaRxsC1kRxzFZZBWT22pnuj4wg07oIX2uhSmotwLKzEFO4DnRJj12zKwQIa2an8K51YQGZlUJ9pLIN0F0dbdocFp99JjVfjKXy6KPY4YGHST0+mp+uHUSdbrL7J2NViOFtAQiOQ8eBg8IchHUxFOEzGoEFVlql6z0JAXL2vRSky5h6w/XUPfEMrZbVELWk4kGSdn4NEBQneXhtchaQUTc0i7JoPjU7/51tnxoFLSWsYKL7MTVXJOlLk/IFueQ/IcDc5OZJbnRYFr5A/1YJh8mcnTGbhWefRfV/v6TmiMPZYeTdpJ4YyY/XDabajLD3x+MhFuEtyUHIeLQbeH0IEHJjsMNW/q4FfoMVxPVdfDuJVl3K7IHXwr+fI9/RsFQtcFbTocELQoDwu9beKG+Qktkqx6Ji623p/uhIEj23xrPEZxDAyPpyxgAZZK8QIGyUcyH3OxUILwXuLUPp0uiz5vHLmedTNekL6o48kJ1GDif1+MP8fO31VOtR9hj7MeQZvLXrLnRIQZtrblwBEHLfIGEPQgv8hgUcD/5/LIwMDI8eMpz2C2YQunGLge/fTwZm2J620QbCiE8+fxhZGN7wSDBoL1rAwOBizvCflQt8rga4kAUdcgBe+QobOoAyR2eoRny6GbwBANm6Cz6bAzSY+vgZw/n8Cobn584zcHjYMrj2NDN8XbGCYU9rJ8Ov/2wMoVvWMTDwsDDMdXdhEPvFyqBZUMrAqKGh8b+goGDw+nHUZaMhQGkIIK9P+P2bgeHxI4YXc+Yw8P75Bd4XjA5GZxgoDfChqf8PEzPDXwUVBqHYWIa/XGwMDCyskFtA8YxO4fcpeIXY0AyMUVcP6RBAWnILPw2U4e8fBobfoFEFUGcJdLkIM/iiO/BIAyiZsoK27P5jYAB1pkAtChYmBkY+Pr7RCdchnRRGHT8aAqMhMBoCoyEwGgLUDwEAaDKgRHa+WhgAAAAASUVORK5CYII=;" parent="1" vertex="1">
          <mxGeometry x="7280" y="260" width="520" height="298" as="geometry" />
        </mxCell>
      </root>
    </mxGraphModel>
  </diagram>
</mxfile>
